<svg width="660" height="422" viewBox="0 0 660 422" fill="none" xmlns="http://www.w3.org/2000/svg">
<g filter="url(#filter0_ddd_239_4390)">
<rect x="30" width="600" height="362" rx="24" fill="white"/>
<rect x="54" y="24" width="86" height="24" rx="4" fill="black"/>
<g clip-path="url(#clip0_239_4390)">
<path d="M74.4241 31H72.7555V39.4611H74.4241V31Z" fill="white"/>
<path d="M70.8389 31.4735H69.1704V39.9344H70.8389V31.4735Z" fill="white"/>
<path d="M67.2537 32.002H65.5852V40.4645H67.2537V32.002Z" fill="white"/>
<path d="M63.6685 32.5365H62L62 41H63.6685L63.6685 32.5365Z" fill="white"/>
<path d="M118.493 35.5075L115.806 32.5205H114.235V39.4364H115.875V35.0239L118.328 37.6382H118.631L121.042 35.0239V39.4364H122.681V32.5205H121.111L118.493 35.5075Z" fill="white"/>
<path d="M130.494 32.5205L126.429 37.0156V32.5205H124.79V39.4364H126.292L130.356 34.9413V39.4364H131.996V32.5205H130.494Z" fill="white"/>
<path d="M105.403 35.0511C105.403 36.1522 106.005 37.0196 106.929 37.3833L105.196 39.4364H107.203L108.78 37.5687H110.486V39.4364H112.126V32.5205H107.951C106.394 32.5205 105.403 33.5853 105.403 35.0511ZM110.487 34.0437V36.0887H108.255C107.51 36.0887 107.111 35.6737 107.111 35.0652C107.111 34.4567 107.524 34.0417 108.255 34.0417L110.487 34.0437Z" fill="white"/>
<path d="M97.7827 33.9036C97.6823 36.2822 97.1805 37.8175 96.198 37.8175H95.9521V39.4777L96.2141 39.4918C98.1841 39.6016 99.273 37.8729 99.4516 34.0971H102.043V39.4364H103.68V32.5205H97.8379L97.7827 33.9036Z" fill="white"/>
<path d="M91.6098 32.4238C89.3919 32.4238 87.7962 33.9591 87.7962 35.978C87.7962 38.0664 89.5324 39.5473 91.6098 39.5473C93.7735 39.5473 95.4545 37.9838 95.4545 35.978C95.4545 33.9722 93.7735 32.4238 91.6098 32.4238ZM91.6098 37.8871C90.3563 37.8871 89.5023 37.0711 89.5023 35.978C89.5023 34.8578 90.3573 34.0639 91.6098 34.0639C92.8622 34.0639 93.7454 34.894 93.7454 35.978C93.7454 37.062 92.8502 37.8871 91.6098 37.8871Z" fill="white"/>
<path d="M86.0571 32.5335H80.2695L80.2143 33.9167C80.132 35.9094 79.6122 37.8043 78.6297 37.8315L78.175 37.8456V40.9996L79.8289 40.9963V39.4374H85.5744V40.9963H87.2423V37.8315H86.0571V32.5335ZM84.4172 37.8315H80.9178C81.5099 36.9329 81.827 35.6323 81.8822 34.1111H84.4172V37.8315Z" fill="white"/>
</g>
<path d="M56.328 92V74H63.432C67.104 74 69.6 76.4 69.6 79.76C69.6 83.024 67.104 85.496 63.432 85.496H59.64V92H56.328ZM63.36 76.976H59.64V82.52H63.36C65.16 82.52 66.288 81.44 66.288 79.76C66.288 78.032 65.16 76.976 63.36 76.976ZM79.173 92L78.957 90.344C78.069 91.52 76.701 92.24 75.021 92.24C72.861 92.24 71.133 90.992 71.133 88.688C71.133 86.216 73.245 85.256 75.765 84.68L78.837 83.984C78.573 82.784 77.757 82.28 76.533 82.28C75.165 82.28 74.277 82.88 73.941 84.104L71.037 83.576C71.637 81.296 73.557 79.712 76.581 79.712C79.773 79.712 81.861 81.392 81.861 84.752V92H79.173ZM74.229 88.472C74.229 89.312 74.805 89.744 75.669 89.744C77.277 89.744 78.909 88.712 78.909 86.528V86.264L75.957 86.984C74.949 87.224 74.229 87.584 74.229 88.472ZM89.4878 92.24C86.5117 92.24 84.6158 91.04 83.8958 88.952L86.8717 88.064C87.2078 89.264 88.0958 89.744 89.4638 89.744C90.9038 89.744 91.6718 89.216 91.6718 88.4C91.6718 87.632 91.1438 87.2 89.9678 87.2H88.0718V84.632H89.9198C91.0238 84.632 91.5278 84.224 91.5278 83.528C91.5278 82.712 90.6878 82.232 89.4398 82.232C88.1678 82.232 87.2558 82.712 86.9198 83.864L84.0878 83.216C84.6878 80.984 86.7038 79.712 89.5838 79.712C92.6558 79.712 94.5998 81.2 94.5998 83.24C94.5998 84.416 93.9518 85.28 92.6798 85.808C94.0718 86.192 94.8398 87.176 94.8398 88.568C94.8398 91.064 92.3918 92.24 89.4878 92.24ZM96.033 95.432V89.336H97.209C97.977 88.76 98.313 87.128 98.433 83.744L98.553 79.976H108.033V89.336H109.737V95.432H106.713V92H99.057V95.432H96.033ZM101.361 83.696C101.289 86.336 101.001 88.16 100.353 89.336H105.033V82.616H101.385L101.361 83.696ZM117.473 92.24C113.489 92.24 111.113 89.624 111.113 86.048C111.113 82.4 113.681 79.712 117.329 79.712C120.857 79.712 123.305 82.064 123.305 85.544C123.305 85.976 123.257 86.456 123.161 86.912H114.233C114.521 88.784 115.745 89.6 117.473 89.6C119.057 89.6 119.969 88.904 120.353 87.896L123.185 88.472C122.465 90.872 120.377 92.24 117.473 92.24ZM117.329 82.232C115.937 82.232 114.761 83 114.329 84.584H120.113C119.849 83.072 118.865 82.232 117.329 82.232ZM124.675 89.408C124.795 89.432 124.891 89.456 125.059 89.456C126.211 89.456 126.643 88.928 126.811 84.08L126.979 79.976H136.459V92H133.411V82.64H129.907L129.811 84.776C129.571 90.368 128.563 92.24 125.587 92.24C125.083 92.24 124.723 92.168 124.339 92.048L124.675 89.408ZM139.963 92V79.976H142.915V87.704L147.931 79.976H150.883V92H147.931V84.272L142.915 92H139.963ZM156.897 92V82.64H153.081V79.976H163.737V82.64H159.945V92H156.897ZM171.356 92.24C167.372 92.24 164.996 89.624 164.996 86.048C164.996 82.4 167.564 79.712 171.212 79.712C174.74 79.712 177.188 82.064 177.188 85.544C177.188 85.976 177.14 86.456 177.044 86.912H168.116C168.404 88.784 169.628 89.6 171.356 89.6C172.94 89.6 173.852 88.904 174.236 87.896L177.068 88.472C176.348 90.872 174.26 92.24 171.356 92.24ZM171.212 82.232C169.82 82.232 168.644 83 168.212 84.584H173.996C173.732 83.072 172.748 82.232 171.212 82.232ZM184.215 86C184.215 82.376 186.879 79.712 190.503 79.712C193.431 79.712 195.591 81.44 196.167 84.008L193.095 84.56C192.783 83.264 191.823 82.52 190.479 82.52C188.679 82.52 187.383 83.84 187.383 86C187.383 88.136 188.607 89.456 190.431 89.456C191.943 89.456 192.903 88.64 193.215 87.392L196.215 87.896C195.783 90.368 193.479 92.24 190.455 92.24C186.855 92.24 184.215 89.6 184.215 86ZM201.053 92V82.64H197.237V79.976H207.893V82.64H204.101V92H201.053ZM215.561 79.712C219.257 79.712 221.969 82.376 221.969 85.976C221.969 89.6 219.257 92.24 215.561 92.24C211.865 92.24 209.153 89.6 209.153 85.976C209.153 82.376 211.865 79.712 215.561 79.712ZM215.561 82.52C213.617 82.52 212.321 83.912 212.321 85.976C212.321 88.064 213.617 89.456 215.561 89.456C217.505 89.456 218.777 88.064 218.777 85.976C218.777 83.912 217.505 82.52 215.561 82.52ZM224.549 92V79.976H227.501V87.704L232.517 79.976H235.469V92H232.517V84.272L227.501 92H224.549ZM238.963 92V79.976H242.059L245.827 85.16L249.523 79.976H252.619V92H249.715V84.08L246.139 89.072H245.467L241.867 84.104V92H238.963ZM261.615 79.712C265.311 79.712 268.023 82.376 268.023 85.976C268.023 89.6 265.311 92.24 261.615 92.24C257.919 92.24 255.207 89.6 255.207 85.976C255.207 82.376 257.919 79.712 261.615 79.712ZM261.615 82.52C259.671 82.52 258.375 83.912 258.375 85.976C258.375 88.064 259.671 89.456 261.615 89.456C263.559 89.456 264.831 88.064 264.831 85.976C264.831 83.912 263.559 82.52 261.615 82.52ZM269.692 86C269.692 82.376 272.356 79.712 275.98 79.712C278.908 79.712 281.068 81.44 281.644 84.008L278.572 84.56C278.26 83.264 277.3 82.52 275.956 82.52C274.156 82.52 272.86 83.84 272.86 86C272.86 88.136 274.084 89.456 275.908 89.456C277.42 89.456 278.38 88.64 278.692 87.392L281.692 87.896C281.26 90.368 278.956 92.24 275.932 92.24C272.332 92.24 269.692 89.6 269.692 86ZM286.53 92V82.64H282.714V79.976H293.37V82.64H289.578V92H286.53ZM295.588 92V79.976H298.636V83.384H301.444C304.156 83.384 306.004 85.112 306.004 87.704C306.004 90.272 304.156 92 301.444 92H295.588ZM300.988 86.024H298.636V89.36H300.988C302.188 89.36 302.836 88.784 302.836 87.704C302.836 86.624 302.188 86.024 300.988 86.024ZM313.611 92V79.976H324.387V92H321.339V82.64H316.659V92H313.611ZM333.381 79.712C337.077 79.712 339.789 82.376 339.789 85.976C339.789 89.6 337.077 92.24 333.381 92.24C329.685 92.24 326.973 89.6 326.973 85.976C326.973 82.376 329.685 79.712 333.381 79.712ZM333.381 82.52C331.437 82.52 330.141 83.912 330.141 85.976C330.141 88.064 331.437 89.456 333.381 89.456C335.325 89.456 336.597 88.064 336.597 85.976C336.597 83.912 335.325 82.52 333.381 82.52ZM342.369 79.976H345.417V84.32H346.737L350.097 79.976H353.721L349.161 85.616L353.913 92H350.289L346.713 87.248H345.417V92H342.369V79.976ZM354.307 79.976H357.691L361.051 88.088L363.955 79.976H367.195L360.547 97.28H357.403L359.467 91.928L354.307 79.976ZM369.041 92V79.976H379.817V92H376.769V82.64H372.089V92H369.041ZM383.315 79.976H386.363V84.32H387.683L391.043 79.976H394.667L390.107 85.616L394.859 92H391.235L387.659 87.248H386.363V92H383.315V79.976ZM396.721 92V79.976H399.673V87.704L404.689 79.976H407.641V92H404.689V84.272L399.673 92H396.721Z" fill="black"/>
<path d="M58.522 124.112C56.464 124.112 54.868 123.202 54.518 121.144L55.68 120.85C55.946 122.376 57.024 123.02 58.536 123.02C60.048 123.02 61.154 122.32 61.154 120.976C61.154 119.814 60.44 119.114 58.956 119.114H57.36V118.022H58.9C60.174 118.022 60.888 117.378 60.888 116.258C60.888 115.152 59.964 114.466 58.494 114.466C57.262 114.466 56.156 115.012 55.904 116.314L54.784 116.062C55.19 114.27 56.73 113.388 58.494 113.388C60.706 113.388 62.092 114.508 62.092 116.174C62.092 117.21 61.56 118.022 60.636 118.498C61.742 118.876 62.358 119.8 62.358 121.004C62.358 122.894 60.804 124.112 58.522 124.112ZM68.6192 124L68.5912 122.628C68.0452 123.566 67.1072 124.112 65.9872 124.112C64.6852 124.112 63.8172 123.384 63.8172 122.208C63.8172 120.878 64.9232 120.332 66.5752 119.912L68.5632 119.436C68.4512 118.428 67.7792 117.938 66.7852 117.938C65.7772 117.938 65.0912 118.386 64.8392 119.324L63.8032 119.128C64.1252 117.798 65.2452 117 66.7992 117C68.5352 117 69.6272 117.98 69.6272 119.688V124H68.6192ZM64.9652 122.11C64.9652 122.74 65.3992 123.174 66.1552 123.174C67.3872 123.174 68.5772 122.222 68.5772 120.486V120.332L66.5892 120.822C65.5392 121.088 64.9652 121.424 64.9652 122.11ZM71.7867 124V117.112H77.5267V124H76.4207V118.064H72.8787V124H71.7867ZM78.8597 123.076C78.9297 123.09 78.9997 123.104 79.1117 123.104C79.6997 123.104 80.1617 122.656 80.2877 119.548L80.3857 117.112H85.2157V124H84.1097V118.064H81.4217L81.3657 119.66C81.2117 123.328 80.4277 124.112 79.2517 124.112C79.0277 124.112 78.9017 124.084 78.7197 124.014L78.8597 123.076ZM91.7793 124L91.7513 122.628C91.2053 123.566 90.2673 124.112 89.1473 124.112C87.8453 124.112 86.9773 123.384 86.9773 122.208C86.9773 120.878 88.0833 120.332 89.7353 119.912L91.7233 119.436C91.6113 118.428 90.9393 117.938 89.9453 117.938C88.9373 117.938 88.2513 118.386 87.9993 119.324L86.9633 119.128C87.2853 117.798 88.4053 117 89.9593 117C91.6953 117 92.7873 117.98 92.7873 119.688V124H91.7793ZM88.1253 122.11C88.1253 122.74 88.5593 123.174 89.3153 123.174C90.5473 123.174 91.7373 122.222 91.7373 120.486V120.332L89.7493 120.822C88.6993 121.088 88.1253 121.424 88.1253 122.11ZM96.4728 124V118.064H94.0788V117.112H99.9728V118.064H97.5788V124H96.4728ZM101.4 124V117.112H102.45V122.39L106.118 117.112H107.168V124H106.118V118.722L102.45 124H101.4ZM110.992 124V118.064H108.598V117.112H114.492V118.064H112.098V124H110.992ZM118.71 124.112C116.554 124.112 115.182 122.6 115.182 120.514C115.182 118.484 116.638 117 118.64 117C120.572 117 121.944 118.33 121.944 120.248C121.944 120.416 121.916 120.626 121.902 120.808H116.33C116.456 122.264 117.366 123.132 118.71 123.132C119.858 123.132 120.53 122.586 120.81 121.704L121.874 121.9C121.538 123.258 120.334 124.112 118.71 124.112ZM118.64 117.952C117.534 117.952 116.596 118.652 116.372 119.884H120.768C120.684 118.736 119.802 117.952 118.64 117.952ZM126.243 120.514C126.243 118.484 127.727 117 129.715 117C131.395 117 132.571 117.966 132.893 119.422L131.773 119.618C131.535 118.638 130.793 118.008 129.715 118.008C128.371 118.008 127.391 119.016 127.391 120.514C127.391 122.054 128.357 123.104 129.715 123.104C130.877 123.104 131.619 122.418 131.829 121.41L132.935 121.592C132.683 123.034 131.423 124.112 129.715 124.112C127.713 124.112 126.243 122.586 126.243 120.514ZM137.482 124.112C135.326 124.112 133.954 122.6 133.954 120.514C133.954 118.484 135.41 117 137.412 117C139.344 117 140.716 118.33 140.716 120.248C140.716 120.416 140.688 120.626 140.674 120.808H135.102C135.228 122.264 136.138 123.132 137.482 123.132C138.63 123.132 139.302 122.586 139.582 121.704L140.646 121.9C140.31 123.258 139.106 124.112 137.482 124.112ZM137.412 117.952C136.306 117.952 135.368 118.652 135.144 119.884H139.54C139.456 118.736 138.574 117.952 137.412 117.952ZM145.424 115.082C146.068 115.082 146.53 114.746 146.544 114.032H147.51C147.51 115.222 146.656 115.95 145.424 115.95C144.192 115.95 143.352 115.222 143.338 114.032H144.318C144.318 114.746 144.794 115.082 145.424 115.082ZM142.484 124V117.112H143.534V122.39L147.202 117.112H148.252V124H147.202V118.722L143.534 124H142.484ZM152.678 121.438C150.9 121.438 150.032 120.598 150.032 119.086V117.112H151.124V118.946C151.124 119.968 151.726 120.472 152.86 120.472C153.476 120.472 153.91 120.388 154.442 120.234V117.112H155.548V124H154.442V121.172C153.868 121.34 153.364 121.438 152.678 121.438ZM162.121 124L162.093 122.628C161.547 123.566 160.609 124.112 159.489 124.112C158.187 124.112 157.319 123.384 157.319 122.208C157.319 120.878 158.425 120.332 160.077 119.912L162.065 119.436C161.953 118.428 161.281 117.938 160.287 117.938C159.279 117.938 158.593 118.386 158.341 119.324L157.305 119.128C157.627 117.798 158.747 117 160.301 117C162.037 117 163.129 117.98 163.129 119.688V124H162.121ZM158.467 122.11C158.467 122.74 158.901 123.174 159.657 123.174C160.889 123.174 162.079 122.222 162.079 120.486V120.332L160.091 120.822C159.041 121.088 158.467 121.424 158.467 122.11ZM164.743 120.514C164.743 118.484 166.227 117 168.215 117C169.895 117 171.071 117.966 171.393 119.422L170.273 119.618C170.035 118.638 169.293 118.008 168.215 118.008C166.871 118.008 165.891 119.016 165.891 120.514C165.891 122.054 166.857 123.104 168.215 123.104C169.377 123.104 170.119 122.418 170.329 121.41L171.435 121.592C171.183 123.034 169.923 124.112 168.215 124.112C166.213 124.112 164.743 122.586 164.743 120.514ZM177.602 124V118.064H175.208V117.112H181.102V118.064H178.708V124H177.602ZM185.347 117C187.405 117 188.903 118.498 188.903 120.542C188.903 122.614 187.405 124.112 185.347 124.112C183.289 124.112 181.791 122.614 181.791 120.542C181.791 118.498 183.289 117 185.347 117ZM185.347 118.008C183.933 118.008 182.939 119.044 182.939 120.542C182.939 122.054 183.933 123.104 185.347 123.104C186.761 123.104 187.755 122.054 187.755 120.542C187.755 119.044 186.761 118.008 185.347 118.008ZM189.684 123.076C189.754 123.09 189.824 123.104 189.936 123.104C190.524 123.104 190.986 122.656 191.112 119.548L191.21 117.112H196.04V124H194.934V118.064H192.246L192.19 119.66C192.036 123.328 191.252 124.112 190.076 124.112C189.852 124.112 189.726 124.084 189.544 124.014L189.684 123.076ZM198.334 124V117.112H199.426V119.422H201.274C202.73 119.422 203.696 120.332 203.696 121.718C203.696 123.09 202.73 124 201.274 124H198.334ZM201.078 120.388H199.426V123.048H201.078C202.044 123.048 202.548 122.572 202.548 121.718C202.548 120.85 202.044 120.388 201.078 120.388ZM205.156 117.112H206.248V119.856H207.27L209.622 117.112H210.924L208.138 120.346L211.162 124H209.818L207.214 120.92H206.248V124H205.156V117.112ZM215.056 117C217.114 117 218.612 118.498 218.612 120.542C218.612 122.614 217.114 124.112 215.056 124.112C212.998 124.112 211.5 122.614 211.5 120.542C211.5 118.498 212.998 117 215.056 117ZM215.056 118.008C213.642 118.008 212.648 119.044 212.648 120.542C212.648 122.054 213.642 123.104 215.056 123.104C216.47 123.104 217.464 122.054 217.464 120.542C217.464 119.044 216.47 118.008 215.056 118.008ZM225.563 121.438C223.785 121.438 222.917 120.598 222.917 119.086V117.112H224.009V118.946C224.009 119.968 224.611 120.472 225.745 120.472C226.361 120.472 226.795 120.388 227.327 120.234V117.112H228.433V124H227.327V121.172C226.753 121.34 226.249 121.438 225.563 121.438ZM235.006 124L234.978 122.628C234.432 123.566 233.494 124.112 232.374 124.112C231.072 124.112 230.204 123.384 230.204 122.208C230.204 120.878 231.31 120.332 232.962 119.912L234.95 119.436C234.838 118.428 234.166 117.938 233.172 117.938C232.164 117.938 231.478 118.386 231.226 119.324L230.19 119.128C230.512 117.798 231.632 117 233.186 117C234.922 117 236.014 117.98 236.014 119.688V124H235.006ZM231.352 122.11C231.352 122.74 231.786 123.174 232.542 123.174C233.774 123.174 234.964 122.222 234.964 120.486V120.332L232.976 120.822C231.926 121.088 231.352 121.424 231.352 122.11ZM237.627 120.514C237.627 118.484 239.111 117 241.099 117C242.779 117 243.955 117.966 244.277 119.422L243.157 119.618C242.919 118.638 242.177 118.008 241.099 118.008C239.755 118.008 238.775 119.016 238.775 120.514C238.775 122.054 239.741 123.104 241.099 123.104C242.261 123.104 243.003 122.418 243.213 121.41L244.319 121.592C244.067 123.034 242.807 124.112 241.099 124.112C239.097 124.112 237.627 122.586 237.627 120.514ZM247.41 124V118.064H245.016V117.112H250.91V118.064H248.516V124H247.41ZM252.337 124V117.112H253.429V119.422H255.277C256.733 119.422 257.699 120.332 257.699 121.718C257.699 123.09 256.733 124 255.277 124H252.337ZM255.081 120.388H253.429V123.048H255.081C256.047 123.048 256.551 122.572 256.551 121.718C256.551 120.85 256.047 120.388 255.081 120.388ZM259.328 126.1H258.432L259.09 122.6H260.42L259.328 126.1ZM269.555 124L269.527 122.628C268.981 123.566 268.043 124.112 266.923 124.112C265.621 124.112 264.753 123.384 264.753 122.208C264.753 120.878 265.859 120.332 267.511 119.912L269.499 119.436C269.387 118.428 268.715 117.938 267.721 117.938C266.713 117.938 266.027 118.386 265.775 119.324L264.739 119.128C265.061 117.798 266.181 117 267.735 117C269.471 117 270.563 117.98 270.563 119.688V124H269.555ZM265.901 122.11C265.901 122.74 266.335 123.174 267.091 123.174C268.323 123.174 269.513 122.222 269.513 120.486V120.332L267.525 120.822C266.475 121.088 265.901 121.424 265.901 122.11ZM278.808 117C280.866 117 282.364 118.498 282.364 120.542C282.364 122.614 280.866 124.112 278.808 124.112C276.75 124.112 275.252 122.614 275.252 120.542C275.252 118.498 276.75 117 278.808 117ZM278.808 118.008C277.394 118.008 276.4 119.044 276.4 120.542C276.4 122.054 277.394 123.104 278.808 123.104C280.222 123.104 281.216 122.054 281.216 120.542C281.216 119.044 280.222 118.008 278.808 118.008ZM283.565 120.514C283.565 118.484 285.049 117 287.037 117C288.717 117 289.893 117.966 290.215 119.422L289.095 119.618C288.857 118.638 288.115 118.008 287.037 118.008C285.693 118.008 284.713 119.016 284.713 120.514C284.713 122.054 285.679 123.104 287.037 123.104C288.199 123.104 288.941 122.418 289.151 121.41L290.257 121.592C290.005 123.034 288.745 124.112 287.037 124.112C285.035 124.112 283.565 122.586 283.565 120.514ZM293.348 124V118.064H290.954V117.112H296.848V118.064H294.454V124H293.348ZM302.545 124L302.517 122.628C301.971 123.566 301.033 124.112 299.913 124.112C298.611 124.112 297.743 123.384 297.743 122.208C297.743 120.878 298.849 120.332 300.501 119.912L302.489 119.436C302.377 118.428 301.705 117.938 300.711 117.938C299.703 117.938 299.017 118.386 298.765 119.324L297.729 119.128C298.051 117.798 299.171 117 300.725 117C302.461 117 303.553 117.98 303.553 119.688V124H302.545ZM298.891 122.11C298.891 122.74 299.325 123.174 300.081 123.174C301.313 123.174 302.503 122.222 302.503 120.486V120.332L300.515 120.822C299.465 121.088 298.891 121.424 298.891 122.11ZM305.712 124V117.112H308.82C310.052 117.112 310.878 117.77 310.878 118.876C310.878 119.604 310.5 120.136 309.87 120.388C310.696 120.598 311.186 121.186 311.186 122.068C311.186 123.314 310.164 124 308.96 124H305.712ZM308.666 118.022H306.79V120.01H308.736C309.422 120.01 309.8 119.646 309.8 119.002C309.8 118.344 309.408 118.022 308.666 118.022ZM308.708 123.076C309.59 123.076 310.052 122.698 310.052 121.984C310.052 121.284 309.618 120.906 308.806 120.906H306.79V123.076H308.708ZM312.959 124V117.112H314.051V123.048H316.781V117.112H317.873V123.048H320.603V117.112H321.709V124H312.959ZM326.974 124.112C324.818 124.112 323.446 122.6 323.446 120.514C323.446 118.484 324.902 117 326.904 117C328.836 117 330.208 118.33 330.208 120.248C330.208 120.416 330.18 120.626 330.166 120.808H324.594C324.72 122.264 325.63 123.132 326.974 123.132C328.122 123.132 328.794 122.586 329.074 121.704L330.138 121.9C329.802 123.258 328.598 124.112 326.974 124.112ZM326.904 117.952C325.798 117.952 324.86 118.652 324.636 119.884H329.032C328.948 118.736 328.066 117.952 326.904 117.952ZM334.958 124.112C332.802 124.112 331.43 122.6 331.43 120.514C331.43 118.484 332.886 117 334.888 117C336.82 117 338.192 118.33 338.192 120.248C338.192 120.416 338.164 120.626 338.15 120.808H332.578C332.704 122.264 333.614 123.132 334.958 123.132C336.106 123.132 336.778 122.586 337.058 121.704L338.122 121.9C337.786 123.258 336.582 124.112 334.958 124.112ZM334.888 117.952C333.782 117.952 332.844 118.652 332.62 119.884H337.016C336.932 118.736 336.05 117.952 334.888 117.952ZM339.415 120.514C339.415 118.484 340.899 117 342.887 117C344.567 117 345.743 117.966 346.065 119.422L344.945 119.618C344.707 118.638 343.965 118.008 342.887 118.008C341.543 118.008 340.562 119.016 340.562 120.514C340.562 122.054 341.529 123.104 342.887 123.104C344.049 123.104 344.791 122.418 345.001 121.41L346.107 121.592C345.855 123.034 344.595 124.112 342.887 124.112C340.885 124.112 339.415 122.586 339.415 120.514ZM347.307 119.226C347.307 117.994 348.175 117.112 349.463 117.112H352.809V124H351.731V121.298H350.191L348.175 124H346.943L349.015 121.228C348.021 121.06 347.307 120.332 347.307 119.226ZM349.757 120.374H351.731V118.022H349.771C348.973 118.022 348.455 118.4 348.455 119.198C348.455 119.996 348.959 120.374 349.757 120.374ZM361.377 124.112C359.137 124.112 357.751 122.53 357.751 119.422C357.751 115.95 358.941 114.018 361.965 113.71L363.071 113.584C363.589 113.542 363.869 113.486 364.261 113.388L364.387 114.34C363.995 114.466 363.519 114.522 363.071 114.578L361.923 114.704C360.075 114.914 358.983 115.88 358.829 118.512C359.543 117.35 360.733 117.014 361.685 117.014C363.547 117.014 364.933 118.456 364.933 120.542C364.933 122.628 363.519 124.112 361.377 124.112ZM361.419 117.98C359.977 117.98 358.969 119.044 358.969 120.542C358.969 122.054 359.963 123.104 361.377 123.104C362.791 123.104 363.785 122.054 363.785 120.542C363.785 119.044 362.861 117.98 361.419 117.98ZM365.557 117.112H366.789L369.169 122.544L371.297 117.112H372.459L368.441 127.08H367.293L368.553 123.944L365.557 117.112ZM372.558 126.17V123.048H373.202C373.692 122.572 373.916 121.844 374.014 119.492L374.098 117.112H379.012V123.048H379.95V126.17H378.886V124H373.608V126.17H372.558ZM375.078 119.45C375.008 121.27 374.798 122.39 374.35 123.048H377.92V118.064H375.134L375.078 119.45ZM384.423 124.112C382.267 124.112 380.895 122.6 380.895 120.514C380.895 118.484 382.351 117 384.353 117C386.285 117 387.657 118.33 387.657 120.248C387.657 120.416 387.629 120.626 387.615 120.808H382.043C382.169 122.264 383.079 123.132 384.423 123.132C385.571 123.132 386.243 122.586 386.523 121.704L387.587 121.9C387.251 123.258 386.047 124.112 384.423 124.112ZM384.353 117.952C383.247 117.952 382.309 118.652 382.085 119.884H386.481C386.397 118.736 385.515 117.952 384.353 117.952ZM389.425 124V117.112H390.559L393.009 120.332L395.473 117.112H396.607V124H395.557V118.568L393.107 121.774H392.855L390.475 118.624V124H389.425ZM401.43 120.514C401.43 118.484 402.914 117 404.902 117C406.582 117 407.758 117.966 408.08 119.422L406.96 119.618C406.722 118.638 405.98 118.008 404.902 118.008C403.558 118.008 402.578 119.016 402.578 120.514C402.578 122.054 403.544 123.104 404.902 123.104C406.064 123.104 406.806 122.418 407.016 121.41L408.122 121.592C407.87 123.034 406.61 124.112 404.902 124.112C402.9 124.112 401.43 122.586 401.43 120.514ZM409.687 124V117.112H415.427V124H414.321V118.064H410.779V124H409.687ZM417.726 124V117.112H418.776V122.39L422.444 117.112H423.494V124H422.444V118.722L418.776 124H417.726ZM425.247 120.514C425.247 118.484 426.731 117 428.719 117C430.399 117 431.575 117.966 431.897 119.422L430.777 119.618C430.539 118.638 429.797 118.008 428.719 118.008C427.375 118.008 426.395 119.016 426.395 120.514C426.395 122.054 427.361 123.104 428.719 123.104C429.881 123.104 430.623 122.418 430.833 121.41L431.939 121.592C431.687 123.034 430.427 124.112 428.719 124.112C426.717 124.112 425.247 122.586 425.247 120.514ZM433.503 124V117.112H434.595V119.422H436.401C437.857 119.422 438.823 120.332 438.823 121.718C438.823 123.09 437.857 124 436.401 124H433.503ZM439.691 124V117.112H440.783V124H439.691ZM436.205 120.388H434.595V123.048H436.205C437.171 123.048 437.675 122.572 437.675 121.718C437.675 120.85 437.171 120.388 436.205 120.388ZM443.074 124V117.112H446.182C447.414 117.112 448.24 117.77 448.24 118.876C448.24 119.604 447.862 120.136 447.232 120.388C448.058 120.598 448.548 121.186 448.548 122.068C448.548 123.314 447.526 124 446.322 124H443.074ZM446.028 118.022H444.152V120.01H446.098C446.784 120.01 447.162 119.646 447.162 119.002C447.162 118.344 446.77 118.022 446.028 118.022ZM446.07 123.076C446.952 123.076 447.414 122.698 447.414 121.984C447.414 121.284 446.98 120.906 446.168 120.906H444.152V123.076H446.07ZM454.59 124L454.562 122.628C454.016 123.566 453.078 124.112 451.958 124.112C450.656 124.112 449.788 123.384 449.788 122.208C449.788 120.878 450.894 120.332 452.546 119.912L454.534 119.436C454.422 118.428 453.75 117.938 452.756 117.938C451.748 117.938 451.062 118.386 450.81 119.324L449.774 119.128C450.096 117.798 451.216 117 452.77 117C454.506 117 455.598 117.98 455.598 119.688V124H454.59ZM450.936 122.11C450.936 122.74 451.37 123.174 452.126 123.174C453.358 123.174 454.548 122.222 454.548 120.486V120.332L452.56 120.822C451.51 121.088 450.936 121.424 450.936 122.11ZM459.283 124V118.064H456.889V117.112H462.783V118.064H460.389V124H459.283ZM464.211 124V117.112H465.303V119.422H467.151C468.607 119.422 469.573 120.332 469.573 121.718C469.573 123.09 468.607 124 467.151 124H464.211ZM466.955 120.388H465.303V123.048H466.955C467.921 123.048 468.425 122.572 468.425 121.718C468.425 120.85 467.921 120.388 466.955 120.388ZM474.109 117.112H475.201V119.856H476.223L478.575 117.112H479.877L477.091 120.346L480.115 124H478.771L476.167 120.92H475.201V124H474.109V117.112ZM485.598 124L485.57 122.628C485.024 123.566 484.086 124.112 482.966 124.112C481.664 124.112 480.796 123.384 480.796 122.208C480.796 120.878 481.902 120.332 483.554 119.912L485.542 119.436C485.43 118.428 484.758 117.938 483.764 117.938C482.756 117.938 482.07 118.386 481.818 119.324L480.782 119.128C481.104 117.798 482.224 117 483.778 117C485.514 117 486.606 117.98 486.606 119.688V124H485.598ZM481.944 122.11C481.944 122.74 482.378 123.174 483.134 123.174C484.366 123.174 485.556 122.222 485.556 120.486V120.332L483.568 120.822C482.518 121.088 481.944 121.424 481.944 122.11ZM489.129 117.112L491.075 119.898H491.985V117.112H493.035V119.898H493.931L495.905 117.112H497.137L494.771 120.332L497.319 124H496.059L493.889 120.878H493.035V124H491.985V120.878H491.117L488.933 124H487.715L490.235 120.402L487.883 117.112H489.129ZM497.778 126.17V123.048H498.422C498.912 122.572 499.136 121.844 499.234 119.492L499.318 117.112H504.232V123.048H505.17V126.17H504.106V124H498.828V126.17H497.778ZM500.298 119.45C500.228 121.27 500.018 122.39 499.57 123.048H503.14V118.064H500.354L500.298 119.45ZM506.662 124V117.112H507.754V119.422H509.56C511.016 119.422 511.982 120.332 511.982 121.718C511.982 123.09 511.016 124 509.56 124H506.662ZM512.85 124V117.112H513.942V124H512.85ZM509.364 120.388H507.754V123.048H509.364C510.33 123.048 510.834 122.572 510.834 121.718C510.834 120.85 510.33 120.388 509.364 120.388ZM519.214 124.112C517.058 124.112 515.686 122.6 515.686 120.514C515.686 118.484 517.142 117 519.144 117C521.076 117 522.448 118.33 522.448 120.248C522.448 120.416 522.42 120.626 522.406 120.808H516.834C516.96 122.264 517.87 123.132 519.214 123.132C520.362 123.132 521.034 122.586 521.314 121.704L522.378 121.9C522.042 123.258 520.838 124.112 519.214 124.112ZM519.144 117.952C518.038 117.952 517.1 118.652 516.876 119.884H521.272C521.188 118.736 520.306 117.952 519.144 117.952ZM526.271 126.17V123.048H526.915C527.405 122.572 527.629 121.844 527.727 119.492L527.811 117.112H532.725V123.048H533.663V126.17H532.599V124H527.321V126.17H526.271ZM528.791 119.45C528.721 121.27 528.511 122.39 528.063 123.048H531.633V118.064H528.847L528.791 119.45ZM535.154 124V117.112H538.262C539.494 117.112 540.32 117.77 540.32 118.876C540.32 119.604 539.942 120.136 539.312 120.388C540.138 120.598 540.628 121.186 540.628 122.068C540.628 123.314 539.606 124 538.402 124H535.154ZM538.108 118.022H536.232V120.01H538.178C538.864 120.01 539.242 119.646 539.242 119.002C539.242 118.344 538.85 118.022 538.108 118.022ZM538.15 123.076C539.032 123.076 539.494 122.698 539.494 121.984C539.494 121.284 539.06 120.906 538.248 120.906H536.232V123.076H538.15ZM545.382 124.112C543.226 124.112 541.854 122.6 541.854 120.514C541.854 118.484 543.31 117 545.312 117C547.244 117 548.616 118.33 548.616 120.248C548.616 120.416 548.588 120.626 548.574 120.808H543.002C543.128 122.264 544.038 123.132 545.382 123.132C546.53 123.132 547.202 122.586 547.482 121.704L548.546 121.9C548.21 123.258 547.006 124.112 545.382 124.112ZM545.312 117.952C544.206 117.952 543.268 118.652 543.044 119.884H547.44C547.356 118.736 546.474 117.952 545.312 117.952ZM553.461 124V117.112H554.553V119.884H558.179V117.112H559.285V124H558.179V120.85H554.553V124H553.461ZM564.564 124.112C562.408 124.112 561.036 122.6 561.036 120.514C561.036 118.484 562.492 117 564.494 117C566.426 117 567.798 118.33 567.798 120.248C567.798 120.416 567.77 120.626 567.756 120.808H562.184C562.31 122.264 563.22 123.132 564.564 123.132C565.712 123.132 566.384 122.586 566.664 121.704L567.728 121.9C567.392 123.258 566.188 124.112 564.564 124.112ZM564.494 117.952C563.388 117.952 562.45 118.652 562.226 119.884H566.622C566.538 118.736 565.656 117.952 564.494 117.952ZM568.544 126.17V123.048H569.188C569.678 122.572 569.902 121.844 570 119.492L570.084 117.112H574.998V123.048H575.936V126.17H574.872V124H569.594V126.17H568.544ZM571.064 119.45C570.994 121.27 570.784 122.39 570.336 123.048H573.906V118.064H571.12L571.064 119.45ZM580.409 124.112C578.253 124.112 576.881 122.6 576.881 120.514C576.881 118.484 578.337 117 580.339 117C582.271 117 583.643 118.33 583.643 120.248C583.643 120.416 583.615 120.626 583.601 120.808H578.029C578.155 122.264 579.065 123.132 580.409 123.132C581.557 123.132 582.229 122.586 582.509 121.704L583.573 121.9C583.237 123.258 582.033 124.112 580.409 124.112ZM580.339 117.952C579.233 117.952 578.295 118.652 578.071 119.884H582.467C582.383 118.736 581.501 117.952 580.339 117.952ZM584.446 123.076C584.516 123.09 584.586 123.104 584.698 123.104C585.286 123.104 585.748 122.656 585.874 119.548L585.972 117.112H590.802V124H589.696V118.064H587.008L586.952 119.66C586.798 123.328 586.014 124.112 584.838 124.112C584.614 124.112 584.488 124.084 584.306 124.014L584.446 123.076ZM593.095 124V117.112H594.145V122.39L597.813 117.112H598.863V124H597.813V118.722L594.145 124H593.095Z" fill="black" fill-opacity="0.6"/>
<rect opacity="0.08" x="54" y="150" width="32" height="32" rx="4" fill="#6F99C6"/>
<path d="M73.4762 169.633C74.5071 169.633 75.3429 168.797 75.3429 167.766C75.3429 166.735 74.5071 165.899 73.4762 165.899V169.633Z" fill="#6F99C6"/>
<path fill-rule="evenodd" clip-rule="evenodd" d="M76.2288 158.788H61.1177V170.524C61.1177 171.997 62.3116 173.191 63.7843 173.191H78.8955V161.455C78.8955 159.982 77.7015 158.788 76.2288 158.788ZM62.8955 162.346V160.566H76.2288C76.7197 160.566 77.1177 160.964 77.1177 161.455V171.413H63.7843C63.2934 171.413 62.8955 171.015 62.8955 170.524V164.124H75.3356V162.346H62.8955Z" fill="black"/>
<path d="M100.786 166.03V171H99.596V160.5H100.786V164.924H102.326L106.092 160.5H107.534L103.306 165.442L107.646 171H106.218L102.284 166.03H100.786ZM113.152 171L113.124 169.628C112.578 170.566 111.64 171.112 110.52 171.112C109.218 171.112 108.35 170.384 108.35 169.208C108.35 167.878 109.456 167.332 111.108 166.912L113.096 166.436C112.984 165.428 112.312 164.938 111.318 164.938C110.31 164.938 109.624 165.386 109.372 166.324L108.336 166.128C108.658 164.798 109.778 164 111.332 164C113.068 164 114.16 164.98 114.16 166.688V171H113.152ZM109.498 169.11C109.498 169.74 109.932 170.174 110.688 170.174C111.92 170.174 113.11 169.222 113.11 167.486V167.332L111.122 167.822C110.072 168.088 109.498 168.424 109.498 169.11ZM116.32 164.112H117.412V166.856H118.434L120.786 164.112H122.088L119.302 167.346L122.326 171H120.982L118.378 167.92H117.412V171H116.32V164.112ZM129.625 164C131.683 164 133.181 165.498 133.181 167.542C133.181 169.614 131.683 171.112 129.625 171.112C127.567 171.112 126.069 169.614 126.069 167.542C126.069 165.498 127.567 164 129.625 164ZM129.625 165.008C128.211 165.008 127.217 166.044 127.217 167.542C127.217 169.054 128.211 170.104 129.625 170.104C131.039 170.104 132.033 169.054 132.033 167.542C132.033 166.044 131.039 165.008 129.625 165.008ZM138.119 171.112C135.879 171.112 134.493 169.53 134.493 166.422C134.493 162.95 135.683 161.018 138.707 160.71L139.813 160.584C140.331 160.542 140.611 160.486 141.003 160.388L141.129 161.34C140.737 161.466 140.261 161.522 139.813 161.578L138.665 161.704C136.817 161.914 135.725 162.88 135.571 165.512C136.285 164.35 137.475 164.014 138.427 164.014C140.289 164.014 141.675 165.456 141.675 167.542C141.675 169.628 140.261 171.112 138.119 171.112ZM138.161 164.98C136.719 164.98 135.711 166.044 135.711 167.542C135.711 169.054 136.705 170.104 138.119 170.104C139.533 170.104 140.527 169.054 140.527 167.542C140.527 166.044 139.603 164.98 138.161 164.98ZM143.431 171V164.112H144.523V166.422H146.329C147.785 166.422 148.751 167.332 148.751 168.718C148.751 170.09 147.785 171 146.329 171H143.431ZM149.619 171V164.112H150.711V171H149.619ZM146.133 167.388H144.523V170.048H146.133C147.099 170.048 147.603 169.572 147.603 168.718C147.603 167.85 147.099 167.388 146.133 167.388ZM155.13 168.438C153.352 168.438 152.484 167.598 152.484 166.086V164.112H153.576V165.946C153.576 166.968 154.178 167.472 155.312 167.472C155.928 167.472 156.362 167.388 156.894 167.234V164.112H158V171H156.894V168.172C156.32 168.34 155.816 168.438 155.13 168.438ZM160.302 171V164.112H161.394V166.884H165.02V164.112H166.126V171H165.02V167.85H161.394V171H160.302ZM172.693 171L172.665 169.628C172.119 170.566 171.181 171.112 170.061 171.112C168.759 171.112 167.891 170.384 167.891 169.208C167.891 167.878 168.997 167.332 170.649 166.912L172.637 166.436C172.525 165.428 171.853 164.938 170.859 164.938C169.851 164.938 169.165 165.386 168.913 166.324L167.877 166.128C168.199 164.798 169.319 164 170.873 164C172.609 164 173.701 164.98 173.701 166.688V171H172.693ZM169.039 169.11C169.039 169.74 169.473 170.174 170.229 170.174C171.461 170.174 172.651 169.222 172.651 167.486V167.332L170.663 167.822C169.613 168.088 169.039 168.424 169.039 169.11ZM175.497 166.226C175.497 164.994 176.365 164.112 177.653 164.112H180.999V171H179.921V168.298H178.381L176.365 171H175.133L177.205 168.228C176.211 168.06 175.497 167.332 175.497 166.226ZM177.947 167.374H179.921V165.022H177.961C177.163 165.022 176.645 165.4 176.645 166.198C176.645 166.996 177.149 167.374 177.947 167.374ZM189.385 164C191.443 164 192.941 165.498 192.941 167.542C192.941 169.614 191.443 171.112 189.385 171.112C187.327 171.112 185.829 169.614 185.829 167.542C185.829 165.498 187.327 164 189.385 164ZM189.385 165.008C187.971 165.008 186.977 166.044 186.977 167.542C186.977 169.054 187.971 170.104 189.385 170.104C190.799 170.104 191.793 169.054 191.793 167.542C191.793 166.044 190.799 165.008 189.385 165.008ZM194.687 171V164.112H200.427V171H199.321V165.064H195.779V171H194.687ZM201.76 170.076C201.83 170.09 201.9 170.104 202.012 170.104C202.6 170.104 203.062 169.656 203.188 166.548L203.286 164.112H208.116V171H207.01V165.064H204.322L204.266 166.66C204.112 170.328 203.328 171.112 202.152 171.112C201.928 171.112 201.802 171.084 201.62 171.014L201.76 170.076ZM214.68 171L214.652 169.628C214.106 170.566 213.168 171.112 212.048 171.112C210.746 171.112 209.878 170.384 209.878 169.208C209.878 167.878 210.984 167.332 212.636 166.912L214.624 166.436C214.512 165.428 213.84 164.938 212.846 164.938C211.838 164.938 211.152 165.386 210.9 166.324L209.864 166.128C210.186 164.798 211.306 164 212.86 164C214.596 164 215.688 164.98 215.688 166.688V171H214.68ZM211.026 169.11C211.026 169.74 211.46 170.174 212.216 170.174C213.448 170.174 214.638 169.222 214.638 167.486V167.332L212.65 167.822C211.6 168.088 211.026 168.424 211.026 169.11ZM219.373 171V165.064H216.979V164.112H222.873V165.064H220.479V171H219.373ZM228.57 171L228.542 169.628C227.996 170.566 227.058 171.112 225.938 171.112C224.636 171.112 223.768 170.384 223.768 169.208C223.768 167.878 224.874 167.332 226.526 166.912L228.514 166.436C228.402 165.428 227.73 164.938 226.736 164.938C225.728 164.938 225.042 165.386 224.79 166.324L223.754 166.128C224.076 164.798 225.196 164 226.75 164C228.486 164 229.578 164.98 229.578 166.688V171H228.57ZM224.916 169.11C224.916 169.74 225.35 170.174 226.106 170.174C227.338 170.174 228.528 169.222 228.528 167.486V167.332L226.54 167.822C225.49 168.088 224.916 168.424 224.916 169.11ZM234.814 164.112H235.906V166.856H236.928L239.28 164.112H240.582L237.796 167.346L240.82 171H239.476L236.872 167.92H235.906V171H234.814V164.112ZM246.303 171L246.275 169.628C245.729 170.566 244.791 171.112 243.671 171.112C242.369 171.112 241.501 170.384 241.501 169.208C241.501 167.878 242.607 167.332 244.259 166.912L246.247 166.436C246.135 165.428 245.463 164.938 244.469 164.938C243.461 164.938 242.775 165.386 242.523 166.324L241.487 166.128C241.809 164.798 242.929 164 244.483 164C246.219 164 247.311 164.98 247.311 166.688V171H246.303ZM242.649 169.11C242.649 169.74 243.083 170.174 243.839 170.174C245.071 170.174 246.261 169.222 246.261 167.486V167.332L244.273 167.822C243.223 168.088 242.649 168.424 242.649 169.11ZM249.47 164.112H250.52L250.548 165.302C251.122 164.49 252.004 164 253.068 164C254.972 164 256.414 165.498 256.414 167.542C256.414 169.614 254.972 171.112 253.068 171.112C252.018 171.112 251.136 170.636 250.562 169.838V174.08H249.47V164.112ZM252.914 165.008C251.528 165.008 250.562 166.044 250.562 167.542C250.562 169.054 251.528 170.104 252.914 170.104C254.286 170.104 255.266 169.054 255.266 167.542C255.266 166.044 254.286 165.008 252.914 165.008ZM259.692 171V165.064H257.298V164.112H263.192V165.064H260.798V171H259.692ZM267.437 164C269.495 164 270.993 165.498 270.993 167.542C270.993 169.614 269.495 171.112 267.437 171.112C265.379 171.112 263.881 169.614 263.881 167.542C263.881 165.498 265.379 164 267.437 164ZM267.437 165.008C266.023 165.008 265.029 166.044 265.029 167.542C265.029 169.054 266.023 170.104 267.437 170.104C268.851 170.104 269.845 169.054 269.845 167.542C269.845 166.044 268.851 165.008 267.437 165.008ZM275.68 162.082C276.324 162.082 276.786 161.746 276.8 161.032H277.766C277.766 162.222 276.912 162.95 275.68 162.95C274.448 162.95 273.608 162.222 273.594 161.032H274.574C274.574 161.746 275.05 162.082 275.68 162.082ZM272.74 171V164.112H273.79V169.39L277.458 164.112H278.508V171H277.458V165.722L273.79 171H272.74Z" fill="black"/>
<rect opacity="0.08" x="336" y="150" width="32" height="32" rx="4" fill="#B182BC"/>
<path fill-rule="evenodd" clip-rule="evenodd" d="M349.38 162.67C348.644 162.67 348.047 163.267 348.047 164.003L348.047 164.337L354.674 164.337C355.41 164.337 356.007 163.74 356.007 163.003V162.67L349.38 162.67ZM350.694 167.666C351.43 167.666 352.027 167.069 352.027 166.333L352.027 165.999L349.361 165.999C348.625 165.999 348.028 166.596 348.028 167.333V167.666L350.694 167.666Z" fill="#B182BC"/>
<path fill-rule="evenodd" clip-rule="evenodd" d="M346.333 159.167C346.333 158.891 346.557 158.667 346.833 158.667H348.292V159.66C348.292 160.489 348.963 161.16 349.792 161.16H354.259C355.088 161.16 355.759 160.489 355.759 159.66V158.667H357.667V172.833C357.667 173.109 357.443 173.333 357.167 173.333H346.333V159.167ZM354.926 157H359.333V172.833C359.333 174.03 358.363 175 357.167 175H344.667V159.167C344.667 157.97 345.637 157 346.833 157H349.125H354.926ZM349.958 158.667H354.093V159.494L349.958 159.494V158.667Z" fill="black"/>
<path d="M381.596 171V160.5H388.022V161.592H382.786V164.756H385.46C387.812 164.756 388.89 166.156 388.89 167.878C388.89 169.81 387.602 171 385.46 171H381.596ZM385.488 165.806H382.786V169.95H385.488C386.832 169.95 387.672 169.18 387.672 167.878C387.672 166.604 386.818 165.806 385.488 165.806ZM393.591 171.112C391.435 171.112 390.063 169.6 390.063 167.514C390.063 165.484 391.519 164 393.521 164C395.453 164 396.825 165.33 396.825 167.248C396.825 167.416 396.797 167.626 396.783 167.808H391.211C391.337 169.264 392.247 170.132 393.591 170.132C394.739 170.132 395.411 169.586 395.691 168.704L396.755 168.9C396.419 170.258 395.215 171.112 393.591 171.112ZM393.521 164.952C392.415 164.952 391.477 165.652 391.253 166.884H395.649C395.565 165.736 394.683 164.952 393.521 164.952ZM400.749 171.112C399.223 171.112 398.187 170.468 397.823 169.292L398.901 168.97C399.153 169.852 399.909 170.16 400.763 170.16C401.757 170.16 402.471 169.782 402.471 168.97C402.471 168.256 401.897 167.92 401.183 167.92H399.951V166.982H401.155C401.841 166.982 402.373 166.618 402.373 165.974C402.373 165.316 401.841 164.938 400.833 164.938C399.839 164.938 399.237 165.344 399.041 166.1L398.005 165.862C398.313 164.7 399.335 164 400.875 164C402.485 164 403.493 164.756 403.493 165.89C403.493 166.59 403.073 167.136 402.317 167.402C403.129 167.612 403.619 168.186 403.619 169.026C403.619 170.44 402.317 171.112 400.749 171.112ZM408.478 164.112H409.57V166.856H410.592L412.944 164.112H414.246L411.46 167.346L414.484 171H413.14L410.536 167.92H409.57V171H408.478V164.112ZM415.697 164.112H416.747L416.775 165.302C417.349 164.49 418.231 164 419.295 164C421.199 164 422.641 165.498 422.641 167.542C422.641 169.614 421.199 171.112 419.295 171.112C418.245 171.112 417.363 170.636 416.789 169.838V174.08H415.697V164.112ZM419.141 165.008C417.755 165.008 416.789 166.044 416.789 167.542C416.789 169.054 417.755 170.104 419.141 170.104C420.513 170.104 421.493 169.054 421.493 167.542C421.493 166.044 420.513 165.008 419.141 165.008ZM427.374 171.112C425.218 171.112 423.846 169.6 423.846 167.514C423.846 165.484 425.302 164 427.304 164C429.236 164 430.608 165.33 430.608 167.248C430.608 167.416 430.58 167.626 430.566 167.808H424.994C425.12 169.264 426.03 170.132 427.374 170.132C428.522 170.132 429.194 169.586 429.474 168.704L430.538 168.9C430.202 170.258 428.998 171.112 427.374 171.112ZM427.304 164.952C426.198 164.952 425.26 165.652 425.036 166.884H429.432C429.348 165.736 428.466 164.952 427.304 164.952ZM431.355 173.17V170.048H431.999C432.489 169.572 432.713 168.844 432.811 166.492L432.895 164.112H437.809V170.048H438.747V173.17H437.683V171H432.405V173.17H431.355ZM433.875 166.45C433.805 168.27 433.595 169.39 433.147 170.048H436.717V165.064H433.931L433.875 166.45ZM440.238 171V164.112H441.288V169.39L444.956 164.112H446.006V171H444.956V165.722L441.288 171H440.238ZM449.83 171V165.064H447.436V164.112H453.33V165.064H450.936V171H449.83ZM454.757 171V164.112H455.849V166.884H459.475V164.112H460.581V171H459.475V167.85H455.849V171H454.757ZM465.888 164C467.946 164 469.444 165.498 469.444 167.542C469.444 169.614 467.946 171.112 465.888 171.112C463.83 171.112 462.332 169.614 462.332 167.542C462.332 165.498 463.83 164 465.888 164ZM465.888 165.008C464.474 165.008 463.48 166.044 463.48 167.542C463.48 169.054 464.474 170.104 465.888 170.104C467.302 170.104 468.296 169.054 468.296 167.542C468.296 166.044 467.302 165.008 465.888 165.008ZM471.191 171V164.112H475.769V165.064H472.283V171H471.191ZM480.203 164C482.261 164 483.759 165.498 483.759 167.542C483.759 169.614 482.261 171.112 480.203 171.112C478.145 171.112 476.647 169.614 476.647 167.542C476.647 165.498 478.145 164 480.203 164ZM480.203 165.008C478.789 165.008 477.795 166.044 477.795 167.542C477.795 169.054 478.789 170.104 480.203 170.104C481.617 170.104 482.611 169.054 482.611 167.542C482.611 166.044 481.617 165.008 480.203 165.008ZM487.56 173.17V170.048H488.204C488.694 169.572 488.918 168.844 489.016 166.492L489.1 164.112H494.014V170.048H494.952V173.17H493.888V171H488.61V173.17H487.56ZM490.08 166.45C490.01 168.27 489.8 169.39 489.352 170.048H492.922V165.064H490.136L490.08 166.45ZM499.453 164C501.511 164 503.009 165.498 503.009 167.542C503.009 169.614 501.511 171.112 499.453 171.112C497.395 171.112 495.897 169.614 495.897 167.542C495.897 165.498 497.395 164 499.453 164ZM499.453 165.008C498.039 165.008 497.045 166.044 497.045 167.542C497.045 169.054 498.039 170.104 499.453 170.104C500.867 170.104 501.861 169.054 501.861 167.542C501.861 166.044 500.867 165.008 499.453 165.008ZM504.755 171V164.112H509.333V165.064H505.847V171H504.755ZM513.767 164C515.825 164 517.323 165.498 517.323 167.542C517.323 169.614 515.825 171.112 513.767 171.112C511.709 171.112 510.211 169.614 510.211 167.542C510.211 165.498 511.709 164 513.767 164ZM513.767 165.008C512.353 165.008 511.359 166.044 511.359 167.542C511.359 169.054 512.353 170.104 513.767 170.104C515.181 170.104 516.175 169.054 516.175 167.542C516.175 166.044 515.181 165.008 513.767 165.008ZM519.07 171V164.112H522.178C523.41 164.112 524.236 164.77 524.236 165.876C524.236 166.604 523.858 167.136 523.228 167.388C524.054 167.598 524.544 168.186 524.544 169.068C524.544 170.314 523.522 171 522.318 171H519.07ZM522.024 165.022H520.148V167.01H522.094C522.78 167.01 523.158 166.646 523.158 166.002C523.158 165.344 522.766 165.022 522.024 165.022ZM522.066 170.076C522.948 170.076 523.41 169.698 523.41 168.984C523.41 168.284 522.976 167.906 522.164 167.906H520.148V170.076H522.066ZM529.326 164C531.384 164 532.882 165.498 532.882 167.542C532.882 169.614 531.384 171.112 529.326 171.112C527.268 171.112 525.77 169.614 525.77 167.542C525.77 165.498 527.268 164 529.326 164ZM529.326 165.008C527.912 165.008 526.918 166.044 526.918 167.542C526.918 169.054 527.912 170.104 529.326 170.104C530.74 170.104 531.734 169.054 531.734 167.542C531.734 166.044 530.74 165.008 529.326 165.008ZM534.628 164.112H535.678L535.706 165.302C536.28 164.49 537.162 164 538.226 164C540.13 164 541.572 165.498 541.572 167.542C541.572 169.614 540.13 171.112 538.226 171.112C537.176 171.112 536.294 170.636 535.72 169.838V174.08H534.628V164.112ZM538.072 165.008C536.686 165.008 535.72 166.044 535.72 167.542C535.72 169.054 536.686 170.104 538.072 170.104C539.444 170.104 540.424 169.054 540.424 167.542C540.424 166.044 539.444 165.008 538.072 165.008ZM547.594 171L547.566 169.628C547.02 170.566 546.082 171.112 544.962 171.112C543.66 171.112 542.792 170.384 542.792 169.208C542.792 167.878 543.898 167.332 545.55 166.912L547.538 166.436C547.426 165.428 546.754 164.938 545.76 164.938C544.752 164.938 544.066 165.386 543.814 166.324L542.778 166.128C543.1 164.798 544.22 164 545.774 164C547.51 164 548.602 164.98 548.602 166.688V171H547.594ZM543.94 169.11C543.94 169.74 544.374 170.174 545.13 170.174C546.362 170.174 547.552 169.222 547.552 167.486V167.332L545.564 167.822C544.514 168.088 543.94 168.424 543.94 169.11Z" fill="black"/>
<rect x="54" y="202" width="552" height="100" rx="10" fill="#F6F7F8"/>
<path d="M66.708 221.5C66.708 218.836 68.496 216.904 71.088 216.904C73.692 216.904 75.468 218.836 75.468 221.5C75.468 224.152 73.692 226.096 71.088 226.096C68.496 226.096 66.708 224.152 66.708 221.5ZM74.412 221.5C74.412 219.34 73.092 217.852 71.088 217.852C69.072 217.852 67.764 219.34 67.764 221.5C67.764 223.66 69.072 225.148 71.088 225.148C73.092 225.148 74.412 223.66 74.412 221.5ZM77.1559 226V220.096H82.0759V226H81.1279V220.912H78.0919V226H77.1559ZM83.2185 225.208C83.2785 225.22 83.3385 225.232 83.4345 225.232C83.9385 225.232 84.3345 224.848 84.4425 222.184L84.5265 220.096H88.6665V226H87.7185V220.912H85.4145L85.3665 222.28C85.2345 225.424 84.5625 226.096 83.5545 226.096C83.3625 226.096 83.2545 226.072 83.0985 226.012L83.2185 225.208ZM94.2924 226L94.2684 224.824C93.8004 225.628 92.9964 226.096 92.0364 226.096C90.9204 226.096 90.1764 225.472 90.1764 224.464C90.1764 223.324 91.1244 222.856 92.5404 222.496L94.2444 222.088C94.1484 221.224 93.5724 220.804 92.7204 220.804C91.8564 220.804 91.2684 221.188 91.0524 221.992L90.1644 221.824C90.4404 220.684 91.4004 220 92.7324 220C94.2204 220 95.1564 220.84 95.1564 222.304V226H94.2924ZM91.1604 224.38C91.1604 224.92 91.5324 225.292 92.1804 225.292C93.2364 225.292 94.2564 224.476 94.2564 222.988V222.856L92.5524 223.276C91.6524 223.504 91.1604 223.792 91.1604 224.38ZM98.3154 226V220.912H96.2634V220.096H101.315V220.912H99.2634V226H98.3154ZM106.199 226L106.175 224.824C105.707 225.628 104.903 226.096 103.943 226.096C102.827 226.096 102.083 225.472 102.083 224.464C102.083 223.324 103.031 222.856 104.447 222.496L106.151 222.088C106.055 221.224 105.479 220.804 104.627 220.804C103.763 220.804 103.175 221.188 102.959 221.992L102.071 221.824C102.347 220.684 103.307 220 104.639 220C106.127 220 107.063 220.84 107.063 222.304V226H106.199ZM103.067 224.38C103.067 224.92 103.439 225.292 104.087 225.292C105.143 225.292 106.163 224.476 106.163 222.988V222.856L104.459 223.276C103.559 223.504 103.067 223.792 103.067 224.38ZM111.082 223.012C111.082 221.272 112.354 220 114.058 220C115.498 220 116.506 220.828 116.782 222.076L115.822 222.244C115.618 221.404 114.982 220.864 114.058 220.864C112.906 220.864 112.066 221.728 112.066 223.012C112.066 224.332 112.894 225.232 114.058 225.232C115.054 225.232 115.69 224.644 115.87 223.78L116.818 223.936C116.602 225.172 115.522 226.096 114.058 226.096C112.342 226.096 111.082 224.788 111.082 223.012ZM120.716 226.096C118.868 226.096 117.692 224.8 117.692 223.012C117.692 221.272 118.94 220 120.656 220C122.312 220 123.488 221.14 123.488 222.784C123.488 222.928 123.464 223.108 123.452 223.264H118.676C118.784 224.512 119.564 225.256 120.716 225.256C121.7 225.256 122.276 224.788 122.516 224.032L123.428 224.2C123.14 225.364 122.108 226.096 120.716 226.096ZM120.656 220.816C119.708 220.816 118.904 221.416 118.712 222.472H122.48C122.408 221.488 121.652 220.816 120.656 220.816ZM125.004 226V220.096H128.928V220.912H125.94V226H125.004ZM132.728 220C134.492 220 135.776 221.284 135.776 223.036C135.776 224.812 134.492 226.096 132.728 226.096C130.964 226.096 129.68 224.812 129.68 223.036C129.68 221.284 130.964 220 132.728 220ZM132.728 220.864C131.516 220.864 130.664 221.752 130.664 223.036C130.664 224.332 131.516 225.232 132.728 225.232C133.94 225.232 134.792 224.332 134.792 223.036C134.792 221.752 133.94 220.864 132.728 220.864ZM136.397 227.86V225.184H136.949C137.369 224.776 137.561 224.152 137.645 222.136L137.717 220.096H141.929V225.184H142.733V227.86H141.821V226H137.297V227.86H136.397ZM138.557 222.1C138.497 223.66 138.317 224.62 137.933 225.184H140.993V220.912H138.605L138.557 222.1ZM144.011 226V220.096H144.947V222.472H148.055V220.096H149.003V226H148.055V223.3H144.947V226H144.011ZM150.66 221.908C150.66 220.852 151.404 220.096 152.508 220.096H155.376V226H154.452V223.684H153.132L151.404 226H150.348L152.124 223.624C151.272 223.48 150.66 222.856 150.66 221.908ZM152.76 222.892H154.452V220.876H152.772C152.088 220.876 151.644 221.2 151.644 221.884C151.644 222.568 152.076 222.892 152.76 222.892Z" fill="black"/>
<path d="M73.033 245.635V247H66.702V245.83L69.107 243.412C70.732 241.813 71.304 241.033 71.304 240.084C71.304 239.109 70.667 238.446 69.666 238.446C68.821 238.446 67.976 238.953 67.82 240.136L66.416 239.863C66.728 238.056 68.106 237.133 69.731 237.133C71.551 237.133 72.773 238.303 72.773 240.045C72.773 241.371 72.006 242.32 70.251 244.075L68.717 245.635H73.033ZM80.8812 247.117C78.7232 247.117 77.3062 245.245 77.3062 242.099C77.3062 238.979 78.7232 237.133 80.8812 237.133C83.0392 237.133 84.4562 238.979 84.4562 242.099C84.4562 245.245 83.0392 247.117 80.8812 247.117ZM80.8812 238.446C79.4382 238.446 78.7622 239.902 78.7622 242.099C78.7622 244.335 79.4382 245.804 80.8812 245.804C82.3112 245.804 82.9872 244.335 82.9872 242.099C82.9872 239.902 82.2982 238.446 80.8812 238.446ZM90.1459 247V244.79H85.5959V243.555L89.7559 237.25H91.5629V243.49H92.9149V244.79H91.5629V247H90.1459ZM87.1169 243.49H90.1459V238.914L87.1169 243.49ZM97.6644 247.117C95.5064 247.117 94.0894 245.245 94.0894 242.099C94.0894 238.979 95.5064 237.133 97.6644 237.133C99.8224 237.133 101.239 238.979 101.239 242.099C101.239 245.245 99.8224 247.117 97.6644 247.117ZM97.6644 238.446C96.2214 238.446 95.5454 239.902 95.5454 242.099C95.5454 244.335 96.2214 245.804 97.6644 245.804C99.0944 245.804 99.7704 244.335 99.7704 242.099C99.7704 239.902 99.0814 238.446 97.6644 238.446ZM106.757 247V245.713H105.314V244.452H106.757V243.269H105.314V241.956H106.757V237.25H110.449C112.412 237.25 113.712 238.511 113.712 240.253C113.712 241.969 112.412 243.269 110.449 243.269H108.213V244.452H110.956V245.713H108.213V247H106.757ZM110.449 238.563H108.213V241.956H110.449C111.567 241.956 112.256 241.267 112.256 240.253C112.256 239.226 111.567 238.563 110.449 238.563Z" fill="black"/>
<rect x="66" y="260" width="127.5" height="6" rx="3" fill="#428BF9"/>
<path d="M203.424 222.508C201.48 222.508 200.244 221.632 200.244 219.712V217H201.264V219.484C201.264 220.96 202.044 221.56 203.568 221.56C204.288 221.56 204.96 221.44 205.776 221.116V217H206.796V226H205.776V222.052C204.996 222.328 204.24 222.508 203.424 222.508ZM211.7 226.096C209.852 226.096 208.676 224.8 208.676 223.012C208.676 221.272 209.924 220 211.64 220C213.296 220 214.472 221.14 214.472 222.784C214.472 222.928 214.448 223.108 214.436 223.264H209.66C209.768 224.512 210.548 225.256 211.7 225.256C212.684 225.256 213.26 224.788 213.5 224.032L214.412 224.2C214.124 225.364 213.092 226.096 211.7 226.096ZM211.64 220.816C210.692 220.816 209.888 221.416 209.696 222.472H213.464C213.392 221.488 212.636 220.816 211.64 220.816ZM215.988 220.096H216.888L216.912 221.116C217.404 220.42 218.16 220 219.072 220C220.704 220 221.94 221.284 221.94 223.036C221.94 224.812 220.704 226.096 219.072 226.096C218.172 226.096 217.416 225.688 216.924 225.004V228.64H215.988V220.096ZM218.94 220.864C217.752 220.864 216.924 221.752 216.924 223.036C216.924 224.332 217.752 225.232 218.94 225.232C220.116 225.232 220.956 224.332 220.956 223.036C220.956 221.752 220.116 220.864 218.94 220.864ZM225.997 226.096C224.149 226.096 222.973 224.8 222.973 223.012C222.973 221.272 224.221 220 225.937 220C227.593 220 228.769 221.14 228.769 222.784C228.769 222.928 228.745 223.108 228.733 223.264H223.957C224.065 224.512 224.845 225.256 225.997 225.256C226.981 225.256 227.557 224.788 227.797 224.032L228.709 224.2C228.421 225.364 227.389 226.096 225.997 226.096ZM225.937 220.816C224.989 220.816 224.185 221.416 223.993 222.472H227.761C227.689 221.488 226.933 220.816 225.937 220.816ZM232.133 226.096C230.825 226.096 229.937 225.544 229.625 224.536L230.549 224.26C230.765 225.016 231.413 225.28 232.145 225.28C232.997 225.28 233.609 224.956 233.609 224.26C233.609 223.648 233.117 223.36 232.505 223.36H231.449V222.556H232.481C233.069 222.556 233.525 222.244 233.525 221.692C233.525 221.128 233.069 220.804 232.205 220.804C231.353 220.804 230.837 221.152 230.669 221.8L229.781 221.596C230.045 220.6 230.921 220 232.241 220C233.621 220 234.485 220.648 234.485 221.62C234.485 222.22 234.125 222.688 233.477 222.916C234.173 223.096 234.593 223.588 234.593 224.308C234.593 225.52 233.477 226.096 232.133 226.096ZM244.157 225.052V226H238.433V225.16L241.145 222.352C242.201 221.284 242.849 220.516 242.849 219.532C242.849 218.512 242.129 217.84 241.097 217.84C240.197 217.84 239.345 218.332 239.165 219.556L238.181 219.352C238.469 217.72 239.705 216.904 241.145 216.904C242.741 216.904 243.881 217.924 243.881 219.508C243.881 220.756 243.137 221.608 241.949 222.832L239.813 225.052H244.157ZM248.214 226V220.096H249.15V222.472H252.258V220.096H253.206V226H252.258V223.3H249.15V226H248.214ZM257.731 226.096C255.883 226.096 254.707 224.8 254.707 223.012C254.707 221.272 255.955 220 257.671 220C259.327 220 260.503 221.14 260.503 222.784C260.503 222.928 260.479 223.108 260.467 223.264H255.691C255.799 224.512 256.579 225.256 257.731 225.256C258.715 225.256 259.291 224.788 259.531 224.032L260.443 224.2C260.155 225.364 259.123 226.096 257.731 226.096ZM257.671 220.816C256.723 220.816 255.919 221.416 255.727 222.472H259.495C259.423 221.488 258.667 220.816 257.671 220.816ZM261.143 227.86V225.184H261.695C262.115 224.776 262.307 224.152 262.391 222.136L262.463 220.096H266.675V225.184H267.479V227.86H266.567V226H262.043V227.86H261.143ZM263.303 222.1C263.243 223.66 263.063 224.62 262.679 225.184H265.739V220.912H263.351L263.303 222.1ZM271.313 226.096C269.465 226.096 268.289 224.8 268.289 223.012C268.289 221.272 269.537 220 271.253 220C272.909 220 274.085 221.14 274.085 222.784C274.085 222.928 274.061 223.108 274.049 223.264H269.273C269.381 224.512 270.161 225.256 271.313 225.256C272.297 225.256 272.873 224.788 273.113 224.032L274.025 224.2C273.737 225.364 272.705 226.096 271.313 226.096ZM271.253 220.816C270.305 220.816 269.501 221.416 269.309 222.472H273.077C273.005 221.488 272.249 220.816 271.253 220.816ZM274.773 225.208C274.833 225.22 274.893 225.232 274.989 225.232C275.493 225.232 275.889 224.848 275.997 222.184L276.081 220.096H280.221V226H279.273V220.912H276.969L276.921 222.28C276.789 225.424 276.117 226.096 275.109 226.096C274.917 226.096 274.809 226.072 274.653 226.012L274.773 225.208ZM282.187 226V220.096H283.087V224.62L286.231 220.096H287.131V226H286.231V221.476L283.087 226H282.187Z" fill="black" fill-opacity="0.4"/>
<path d="M206.533 245.635V247H200.202V245.83L202.607 243.412C204.232 241.813 204.804 241.033 204.804 240.084C204.804 239.109 204.167 238.446 203.166 238.446C202.321 238.446 201.476 238.953 201.32 240.136L199.916 239.863C200.228 238.056 201.606 237.133 203.231 237.133C205.051 237.133 206.273 238.303 206.273 240.045C206.273 241.371 205.506 242.32 203.751 244.075L202.217 245.635H206.533ZM214.381 247.117C212.223 247.117 210.806 245.245 210.806 242.099C210.806 238.979 212.223 237.133 214.381 237.133C216.539 237.133 217.956 238.979 217.956 242.099C217.956 245.245 216.539 247.117 214.381 247.117ZM214.381 238.446C212.938 238.446 212.262 239.902 212.262 242.099C212.262 244.335 212.938 245.804 214.381 245.804C215.811 245.804 216.487 244.335 216.487 242.099C216.487 239.902 215.798 238.446 214.381 238.446ZM223.646 247V244.79H219.096V243.555L223.256 237.25H225.063V243.49H226.415V244.79H225.063V247H223.646ZM220.617 243.49H223.646V238.914L220.617 243.49ZM231.164 247.117C229.006 247.117 227.589 245.245 227.589 242.099C227.589 238.979 229.006 237.133 231.164 237.133C233.322 237.133 234.739 238.979 234.739 242.099C234.739 245.245 233.322 247.117 231.164 247.117ZM231.164 238.446C229.721 238.446 229.045 239.902 229.045 242.099C229.045 244.335 229.721 245.804 231.164 245.804C232.594 245.804 233.27 244.335 233.27 242.099C233.27 239.902 232.581 238.446 231.164 238.446ZM240.257 247V245.713H238.814V244.452H240.257V243.269H238.814V241.956H240.257V237.25H243.949C245.912 237.25 247.212 238.511 247.212 240.253C247.212 241.969 245.912 243.269 243.949 243.269H241.713V244.452H244.456V245.713H241.713V247H240.257ZM243.949 238.563H241.713V241.956H243.949C245.067 241.956 245.756 241.267 245.756 240.253C245.756 239.226 245.067 238.563 243.949 238.563Z" fill="black" fill-opacity="0.4"/>
<rect x="199.5" y="260" width="127.5" height="6" rx="3" fill="black" fill-opacity="0.08"/>
<path d="M336.924 222.508C334.98 222.508 333.744 221.632 333.744 219.712V217H334.764V219.484C334.764 220.96 335.544 221.56 337.068 221.56C337.788 221.56 338.46 221.44 339.276 221.116V217H340.296V226H339.276V222.052C338.496 222.328 337.74 222.508 336.924 222.508ZM345.2 226.096C343.352 226.096 342.176 224.8 342.176 223.012C342.176 221.272 343.424 220 345.14 220C346.796 220 347.972 221.14 347.972 222.784C347.972 222.928 347.948 223.108 347.936 223.264H343.16C343.268 224.512 344.048 225.256 345.2 225.256C346.184 225.256 346.76 224.788 347 224.032L347.912 224.2C347.624 225.364 346.592 226.096 345.2 226.096ZM345.14 220.816C344.192 220.816 343.388 221.416 343.196 222.472H346.964C346.892 221.488 346.136 220.816 345.14 220.816ZM349.488 220.096H350.388L350.412 221.116C350.904 220.42 351.66 220 352.572 220C354.204 220 355.44 221.284 355.44 223.036C355.44 224.812 354.204 226.096 352.572 226.096C351.672 226.096 350.916 225.688 350.424 225.004V228.64H349.488V220.096ZM352.44 220.864C351.252 220.864 350.424 221.752 350.424 223.036C350.424 224.332 351.252 225.232 352.44 225.232C353.616 225.232 354.456 224.332 354.456 223.036C354.456 221.752 353.616 220.864 352.44 220.864ZM359.497 226.096C357.649 226.096 356.473 224.8 356.473 223.012C356.473 221.272 357.721 220 359.437 220C361.093 220 362.269 221.14 362.269 222.784C362.269 222.928 362.245 223.108 362.233 223.264H357.457C357.565 224.512 358.345 225.256 359.497 225.256C360.481 225.256 361.057 224.788 361.297 224.032L362.209 224.2C361.921 225.364 360.889 226.096 359.497 226.096ZM359.437 220.816C358.489 220.816 357.685 221.416 357.493 222.472H361.261C361.189 221.488 360.433 220.816 359.437 220.816ZM365.633 226.096C364.325 226.096 363.437 225.544 363.125 224.536L364.049 224.26C364.265 225.016 364.913 225.28 365.645 225.28C366.497 225.28 367.109 224.956 367.109 224.26C367.109 223.648 366.617 223.36 366.005 223.36H364.949V222.556H365.981C366.569 222.556 367.025 222.244 367.025 221.692C367.025 221.128 366.569 220.804 365.705 220.804C364.853 220.804 364.337 221.152 364.169 221.8L363.281 221.596C363.545 220.6 364.421 220 365.741 220C367.121 220 367.985 220.648 367.985 221.62C367.985 222.22 367.625 222.688 366.977 222.916C367.673 223.096 368.093 223.588 368.093 224.308C368.093 225.52 366.977 226.096 365.633 226.096ZM375.965 226V223.828H371.585V222.952L375.653 217H376.973V222.904H378.209V223.828H376.973V226H375.965ZM372.653 222.904H375.965V218.104L372.653 222.904ZM382.136 226V220.096H383.072V222.472H386.18V220.096H387.128V226H386.18V223.3H383.072V226H382.136ZM391.653 226.096C389.805 226.096 388.629 224.8 388.629 223.012C388.629 221.272 389.877 220 391.593 220C393.249 220 394.425 221.14 394.425 222.784C394.425 222.928 394.401 223.108 394.389 223.264H389.613C389.721 224.512 390.501 225.256 391.653 225.256C392.637 225.256 393.213 224.788 393.453 224.032L394.365 224.2C394.077 225.364 393.045 226.096 391.653 226.096ZM391.593 220.816C390.645 220.816 389.841 221.416 389.649 222.472H393.417C393.345 221.488 392.589 220.816 391.593 220.816ZM395.065 227.86V225.184H395.617C396.037 224.776 396.229 224.152 396.313 222.136L396.385 220.096H400.597V225.184H401.401V227.86H400.489V226H395.965V227.86H395.065ZM397.225 222.1C397.165 223.66 396.985 224.62 396.601 225.184H399.661V220.912H397.273L397.225 222.1ZM405.235 226.096C403.387 226.096 402.211 224.8 402.211 223.012C402.211 221.272 403.459 220 405.175 220C406.831 220 408.007 221.14 408.007 222.784C408.007 222.928 407.983 223.108 407.971 223.264H403.195C403.303 224.512 404.083 225.256 405.235 225.256C406.219 225.256 406.795 224.788 407.035 224.032L407.947 224.2C407.659 225.364 406.627 226.096 405.235 226.096ZM405.175 220.816C404.227 220.816 403.423 221.416 403.231 222.472H406.999C406.927 221.488 406.171 220.816 405.175 220.816ZM408.695 225.208C408.755 225.22 408.815 225.232 408.911 225.232C409.415 225.232 409.811 224.848 409.919 222.184L410.003 220.096H414.143V226H413.195V220.912H410.891L410.843 222.28C410.711 225.424 410.039 226.096 409.031 226.096C408.839 226.096 408.731 226.072 408.575 226.012L408.695 225.208ZM416.109 226V220.096H417.009V224.62L420.153 220.096H421.053V226H420.153V221.476L417.009 226H416.109Z" fill="black" fill-opacity="0.4"/>
<path d="M340.033 245.635V247H333.702V245.83L336.107 243.412C337.732 241.813 338.304 241.033 338.304 240.084C338.304 239.109 337.667 238.446 336.666 238.446C335.821 238.446 334.976 238.953 334.82 240.136L333.416 239.863C333.728 238.056 335.106 237.133 336.731 237.133C338.551 237.133 339.773 238.303 339.773 240.045C339.773 241.371 339.006 242.32 337.251 244.075L335.717 245.635H340.033ZM347.881 247.117C345.723 247.117 344.306 245.245 344.306 242.099C344.306 238.979 345.723 237.133 347.881 237.133C350.039 237.133 351.456 238.979 351.456 242.099C351.456 245.245 350.039 247.117 347.881 247.117ZM347.881 238.446C346.438 238.446 345.762 239.902 345.762 242.099C345.762 244.335 346.438 245.804 347.881 245.804C349.311 245.804 349.987 244.335 349.987 242.099C349.987 239.902 349.298 238.446 347.881 238.446ZM357.146 247V244.79H352.596V243.555L356.756 237.25H358.563V243.49H359.915V244.79H358.563V247H357.146ZM354.117 243.49H357.146V238.914L354.117 243.49ZM364.664 247.117C362.506 247.117 361.089 245.245 361.089 242.099C361.089 238.979 362.506 237.133 364.664 237.133C366.822 237.133 368.239 238.979 368.239 242.099C368.239 245.245 366.822 247.117 364.664 247.117ZM364.664 238.446C363.221 238.446 362.545 239.902 362.545 242.099C362.545 244.335 363.221 245.804 364.664 245.804C366.094 245.804 366.77 244.335 366.77 242.099C366.77 239.902 366.081 238.446 364.664 238.446ZM373.757 247V245.713H372.314V244.452H373.757V243.269H372.314V241.956H373.757V237.25H377.449C379.412 237.25 380.712 238.511 380.712 240.253C380.712 241.969 379.412 243.269 377.449 243.269H375.213V244.452H377.956V245.713H375.213V247H373.757ZM377.449 238.563H375.213V241.956H377.449C378.567 241.956 379.256 241.267 379.256 240.253C379.256 239.226 378.567 238.563 377.449 238.563Z" fill="black" fill-opacity="0.4"/>
<rect x="333" y="260" width="127.5" height="6" rx="3" fill="black" fill-opacity="0.08"/>
<path d="M470.424 222.508C468.48 222.508 467.244 221.632 467.244 219.712V217H468.264V219.484C468.264 220.96 469.044 221.56 470.568 221.56C471.288 221.56 471.96 221.44 472.776 221.116V217H473.796V226H472.776V222.052C471.996 222.328 471.24 222.508 470.424 222.508ZM478.7 226.096C476.852 226.096 475.676 224.8 475.676 223.012C475.676 221.272 476.924 220 478.64 220C480.296 220 481.472 221.14 481.472 222.784C481.472 222.928 481.448 223.108 481.436 223.264H476.66C476.768 224.512 477.548 225.256 478.7 225.256C479.684 225.256 480.26 224.788 480.5 224.032L481.412 224.2C481.124 225.364 480.092 226.096 478.7 226.096ZM478.64 220.816C477.692 220.816 476.888 221.416 476.696 222.472H480.464C480.392 221.488 479.636 220.816 478.64 220.816ZM482.988 220.096H483.888L483.912 221.116C484.404 220.42 485.16 220 486.072 220C487.704 220 488.94 221.284 488.94 223.036C488.94 224.812 487.704 226.096 486.072 226.096C485.172 226.096 484.416 225.688 483.924 225.004V228.64H482.988V220.096ZM485.94 220.864C484.752 220.864 483.924 221.752 483.924 223.036C483.924 224.332 484.752 225.232 485.94 225.232C487.116 225.232 487.956 224.332 487.956 223.036C487.956 221.752 487.116 220.864 485.94 220.864ZM492.997 226.096C491.149 226.096 489.973 224.8 489.973 223.012C489.973 221.272 491.221 220 492.937 220C494.593 220 495.769 221.14 495.769 222.784C495.769 222.928 495.745 223.108 495.733 223.264H490.957C491.065 224.512 491.845 225.256 492.997 225.256C493.981 225.256 494.557 224.788 494.797 224.032L495.709 224.2C495.421 225.364 494.389 226.096 492.997 226.096ZM492.937 220.816C491.989 220.816 491.185 221.416 490.993 222.472H494.761C494.689 221.488 493.933 220.816 492.937 220.816ZM499.133 226.096C497.825 226.096 496.937 225.544 496.625 224.536L497.549 224.26C497.765 225.016 498.413 225.28 499.145 225.28C499.997 225.28 500.609 224.956 500.609 224.26C500.609 223.648 500.117 223.36 499.505 223.36H498.449V222.556H499.481C500.069 222.556 500.525 222.244 500.525 221.692C500.525 221.128 500.069 220.804 499.205 220.804C498.353 220.804 497.837 221.152 497.669 221.8L496.781 221.596C497.045 220.6 497.921 220 499.241 220C500.621 220 501.485 220.648 501.485 221.62C501.485 222.22 501.125 222.688 500.477 222.916C501.173 223.096 501.593 223.588 501.593 224.308C501.593 225.52 500.477 226.096 499.133 226.096ZM508.289 226.096C506.585 226.096 505.277 224.98 505.277 223.264C505.277 222.484 505.541 221.764 505.973 221.116L508.685 217H509.837L507.533 220.456C507.821 220.36 508.145 220.3 508.469 220.3C510.149 220.3 511.397 221.44 511.397 223.132C511.397 224.908 510.065 226.096 508.289 226.096ZM508.301 225.148C509.489 225.148 510.353 224.32 510.353 223.132C510.353 221.956 509.489 221.164 508.313 221.164C507.749 221.164 507.233 221.368 506.873 221.728C506.501 222.112 506.309 222.616 506.309 223.204C506.309 224.356 507.149 225.148 508.301 225.148ZM515.472 226V220.096H516.408V222.472H519.516V220.096H520.464V226H519.516V223.3H516.408V226H515.472ZM524.989 226.096C523.141 226.096 521.965 224.8 521.965 223.012C521.965 221.272 523.213 220 524.929 220C526.585 220 527.761 221.14 527.761 222.784C527.761 222.928 527.737 223.108 527.725 223.264H522.949C523.057 224.512 523.837 225.256 524.989 225.256C525.973 225.256 526.549 224.788 526.789 224.032L527.701 224.2C527.413 225.364 526.381 226.096 524.989 226.096ZM524.929 220.816C523.981 220.816 523.177 221.416 522.985 222.472H526.753C526.681 221.488 525.925 220.816 524.929 220.816ZM528.401 227.86V225.184H528.953C529.373 224.776 529.565 224.152 529.649 222.136L529.721 220.096H533.933V225.184H534.737V227.86H533.825V226H529.301V227.86H528.401ZM530.561 222.1C530.501 223.66 530.321 224.62 529.937 225.184H532.997V220.912H530.609L530.561 222.1ZM538.571 226.096C536.723 226.096 535.547 224.8 535.547 223.012C535.547 221.272 536.795 220 538.511 220C540.167 220 541.343 221.14 541.343 222.784C541.343 222.928 541.319 223.108 541.307 223.264H536.531C536.639 224.512 537.419 225.256 538.571 225.256C539.555 225.256 540.131 224.788 540.371 224.032L541.283 224.2C540.995 225.364 539.963 226.096 538.571 226.096ZM538.511 220.816C537.563 220.816 536.759 221.416 536.567 222.472H540.335C540.263 221.488 539.507 220.816 538.511 220.816ZM542.031 225.208C542.091 225.22 542.151 225.232 542.247 225.232C542.751 225.232 543.147 224.848 543.255 222.184L543.339 220.096H547.479V226H546.531V220.912H544.227L544.179 222.28C544.047 225.424 543.375 226.096 542.367 226.096C542.175 226.096 542.067 226.072 541.911 226.012L542.031 225.208ZM549.445 226V220.096H550.381V222.076H551.965C553.213 222.076 554.041 222.856 554.041 224.044C554.041 225.22 553.213 226 551.965 226H549.445ZM551.797 222.904H550.381V225.184H551.797C552.625 225.184 553.057 224.776 553.057 224.044C553.057 223.3 552.625 222.904 551.797 222.904Z" fill="black" fill-opacity="0.4"/>
<path d="M473.533 245.635V247H467.202V245.83L469.607 243.412C471.232 241.813 471.804 241.033 471.804 240.084C471.804 239.109 471.167 238.446 470.166 238.446C469.321 238.446 468.476 238.953 468.32 240.136L466.916 239.863C467.228 238.056 468.606 237.133 470.231 237.133C472.051 237.133 473.273 238.303 473.273 240.045C473.273 241.371 472.506 242.32 470.751 244.075L469.217 245.635H473.533ZM481.381 247.117C479.223 247.117 477.806 245.245 477.806 242.099C477.806 238.979 479.223 237.133 481.381 237.133C483.539 237.133 484.956 238.979 484.956 242.099C484.956 245.245 483.539 247.117 481.381 247.117ZM481.381 238.446C479.938 238.446 479.262 239.902 479.262 242.099C479.262 244.335 479.938 245.804 481.381 245.804C482.811 245.804 483.487 244.335 483.487 242.099C483.487 239.902 482.798 238.446 481.381 238.446ZM490.646 247V244.79H486.096V243.555L490.256 237.25H492.063V243.49H493.415V244.79H492.063V247H490.646ZM487.617 243.49H490.646V238.914L487.617 243.49ZM498.164 247.117C496.006 247.117 494.589 245.245 494.589 242.099C494.589 238.979 496.006 237.133 498.164 237.133C500.322 237.133 501.739 238.979 501.739 242.099C501.739 245.245 500.322 247.117 498.164 247.117ZM498.164 238.446C496.721 238.446 496.045 239.902 496.045 242.099C496.045 244.335 496.721 245.804 498.164 245.804C499.594 245.804 500.27 244.335 500.27 242.099C500.27 239.902 499.581 238.446 498.164 238.446ZM507.257 247V245.713H505.814V244.452H507.257V243.269H505.814V241.956H507.257V237.25H510.949C512.912 237.25 514.212 238.511 514.212 240.253C514.212 241.969 512.912 243.269 510.949 243.269H508.713V244.452H511.456V245.713H508.713V247H507.257ZM510.949 238.563H508.713V241.956H510.949C512.067 241.956 512.756 241.267 512.756 240.253C512.756 239.226 512.067 238.563 510.949 238.563Z" fill="black" fill-opacity="0.4"/>
<rect x="466.5" y="260" width="127.5" height="6" rx="3" fill="black" fill-opacity="0.08"/>
<path d="M67.368 286V277H74.472V286H73.452V277.936H68.388V286H67.368ZM76.816 280.096H77.716L77.74 281.116C78.232 280.42 78.988 280 79.9 280C81.532 280 82.768 281.284 82.768 283.036C82.768 284.812 81.532 286.096 79.9 286.096C79 286.096 78.244 285.688 77.752 285.004V288.64H76.816V280.096ZM79.768 280.864C78.58 280.864 77.752 281.752 77.752 283.036C77.752 284.332 78.58 285.232 79.768 285.232C80.944 285.232 81.784 284.332 81.784 283.036C81.784 281.752 80.944 280.864 79.768 280.864ZM84.2692 286V280.096H85.1692V284.62L88.3132 280.096H89.2132V286H88.3132V281.476L85.1692 286H84.2692ZM91.1832 286V280.096H92.1552L94.2552 282.856L96.3672 280.096H97.3392V286H96.4392V281.344L94.3392 284.092H94.1232L92.0832 281.392V286H91.1832ZM101.86 286.096C100.012 286.096 98.8363 284.8 98.8363 283.012C98.8363 281.272 100.084 280 101.8 280C103.456 280 104.632 281.14 104.632 282.784C104.632 282.928 104.608 283.108 104.596 283.264H99.8203C99.9283 284.512 100.708 285.256 101.86 285.256C102.844 285.256 103.42 284.788 103.66 284.032L104.572 284.2C104.284 285.364 103.252 286.096 101.86 286.096ZM101.8 280.816C100.852 280.816 100.048 281.416 99.8563 282.472H103.624C103.552 281.488 102.796 280.816 101.8 280.816ZM106.148 280.096H107.048L107.072 281.116C107.564 280.42 108.32 280 109.232 280C110.864 280 112.1 281.284 112.1 283.036C112.1 284.812 110.864 286.096 109.232 286.096C108.332 286.096 107.576 285.688 107.084 285.004V288.64H106.148V280.096ZM109.1 280.864C107.912 280.864 107.084 281.752 107.084 283.036C107.084 284.332 107.912 285.232 109.1 285.232C110.276 285.232 111.116 284.332 111.116 283.036C111.116 281.752 110.276 280.864 109.1 280.864ZM113.601 286V280.096H114.537V282.472H117.645V280.096H118.593V286H117.645V283.3H114.537V286H113.601ZM120.562 286V280.096H121.498V282.076H123.046C124.294 282.076 125.122 282.856 125.122 284.044C125.122 285.22 124.294 286 123.046 286H120.562ZM125.866 286V280.096H126.802V286H125.866ZM122.878 282.904H121.498V285.184H122.878C123.706 285.184 124.138 284.776 124.138 284.044C124.138 283.3 123.706 282.904 122.878 282.904ZM131.285 278.356C131.837 278.356 132.233 278.068 132.245 277.456H133.073C133.073 278.476 132.341 279.1 131.285 279.1C130.229 279.1 129.509 278.476 129.497 277.456H130.337C130.337 278.068 130.745 278.356 131.285 278.356ZM128.765 286V280.096H129.665V284.62L132.809 280.096H133.709V286H132.809V281.476L129.665 286H128.765ZM138.316 286V280.096H142.24V280.912H139.252V286H138.316ZM143.461 280.096H144.361L144.385 281.116C144.877 280.42 145.633 280 146.545 280C148.177 280 149.413 281.284 149.413 283.036C149.413 284.812 148.177 286.096 146.545 286.096C145.645 286.096 144.889 285.688 144.397 285.004V288.64H143.461V280.096ZM146.413 280.864C145.225 280.864 144.397 281.752 144.397 283.036C144.397 284.332 145.225 285.232 146.413 285.232C147.589 285.232 148.429 284.332 148.429 283.036C148.429 281.752 147.589 280.864 146.413 280.864ZM154.574 286L154.55 284.824C154.082 285.628 153.278 286.096 152.318 286.096C151.202 286.096 150.458 285.472 150.458 284.464C150.458 283.324 151.406 282.856 152.822 282.496L154.526 282.088C154.43 281.224 153.854 280.804 153.002 280.804C152.138 280.804 151.55 281.188 151.334 281.992L150.446 281.824C150.722 280.684 151.682 280 153.014 280C154.502 280 155.438 280.84 155.438 282.304V286H154.574ZM151.442 284.38C151.442 284.92 151.814 285.292 152.462 285.292C153.518 285.292 154.538 284.476 154.538 282.988V282.856L152.834 283.276C151.934 283.504 151.442 283.792 151.442 284.38ZM159.965 288.64V286C158.081 285.964 156.821 284.788 156.821 283.036C156.821 281.308 158.081 280.132 159.965 280.096V277H160.877V280.096C162.761 280.144 163.997 281.32 163.997 283.036C163.997 284.776 162.761 285.952 160.877 286V288.64H159.965ZM157.781 283.036C157.781 284.32 158.585 285.148 159.965 285.184V280.912C158.585 280.948 157.781 281.764 157.781 283.036ZM163.037 283.036C163.037 281.764 162.245 280.948 160.877 280.912V285.184C162.245 285.148 163.037 284.32 163.037 283.036ZM165.504 286V280.096H166.404V284.62L169.548 280.096H170.448V286H169.548V281.476L166.404 286H165.504ZM172.418 280.096H173.354V282.448H174.23L176.246 280.096H177.362L174.974 282.868L177.566 286H176.414L174.182 283.36H173.354V286H172.418V280.096ZM178.749 287.8H177.981L178.545 284.8H179.685L178.749 287.8ZM183.855 286V280.096H184.827L186.927 282.856L189.039 280.096H190.011V286H189.111V281.344L187.011 284.092H186.795L184.755 281.392V286H183.855ZM194.556 280C196.32 280 197.604 281.284 197.604 283.036C197.604 284.812 196.32 286.096 194.556 286.096C192.792 286.096 191.508 284.812 191.508 283.036C191.508 281.284 192.792 280 194.556 280ZM194.556 280.864C193.344 280.864 192.492 281.752 192.492 283.036C192.492 284.332 193.344 285.232 194.556 285.232C195.768 285.232 196.62 284.332 196.62 283.036C196.62 281.752 195.768 280.864 194.556 280.864ZM199.261 280.096L200.929 282.484H201.709V280.096H202.609V282.484H203.377L205.069 280.096H206.125L204.097 282.856L206.281 286H205.201L203.341 283.324H202.609V286H201.709V283.324H200.965L199.093 286H198.049L200.209 282.916L198.193 280.096H199.261ZM209.626 286.096C207.778 286.096 206.602 284.8 206.602 283.012C206.602 281.272 207.85 280 209.566 280C211.222 280 212.398 281.14 212.398 282.784C212.398 282.928 212.374 283.108 212.362 283.264H207.586C207.694 284.512 208.474 285.256 209.626 285.256C210.61 285.256 211.186 284.788 211.426 284.032L212.338 284.2C212.05 285.364 211.018 286.096 209.626 286.096ZM209.566 280.816C208.618 280.816 207.814 281.416 207.622 282.472H211.39C211.318 281.488 210.562 280.816 209.566 280.816ZM215.222 286V280.912H213.17V280.096H218.222V280.912H216.17V286H215.222ZM224.818 286.096C222.898 286.096 221.71 284.74 221.71 282.076C221.71 279.1 222.73 277.444 225.322 277.18L226.27 277.072C226.714 277.036 226.954 276.988 227.29 276.904L227.398 277.72C227.062 277.828 226.654 277.876 226.27 277.924L225.286 278.032C223.702 278.212 222.766 279.04 222.634 281.296C223.246 280.3 224.266 280.012 225.082 280.012C226.678 280.012 227.866 281.248 227.866 283.036C227.866 284.824 226.654 286.096 224.818 286.096ZM224.854 280.84C223.618 280.84 222.754 281.752 222.754 283.036C222.754 284.332 223.606 285.232 224.818 285.232C226.03 285.232 226.882 284.332 226.882 283.036C226.882 281.752 226.09 280.84 224.854 280.84ZM229.371 286V280.096H230.307V282.076H231.855C233.103 282.076 233.931 282.856 233.931 284.044C233.931 285.22 233.103 286 231.855 286H229.371ZM234.675 286V280.096H235.611V286H234.675ZM231.687 282.904H230.307V285.184H231.687C232.515 285.184 232.947 284.776 232.947 284.044C232.947 283.3 232.515 282.904 231.687 282.904ZM238.882 286V280.912H236.83V280.096H241.882V280.912H239.83V286H238.882ZM243.105 286V280.096H244.041V282.076H245.625C246.873 282.076 247.701 282.856 247.701 284.044C247.701 285.22 246.873 286 245.625 286H243.105ZM245.457 282.904H244.041V285.184H245.457C246.285 285.184 246.717 284.776 246.717 284.044C246.717 283.3 246.285 282.904 245.457 282.904ZM251.121 283.012C251.121 281.272 252.393 280 254.097 280C255.537 280 256.545 280.828 256.821 282.076L255.861 282.244C255.657 281.404 255.021 280.864 254.097 280.864C252.945 280.864 252.105 281.728 252.105 283.012C252.105 284.332 252.933 285.232 254.097 285.232C255.093 285.232 255.729 284.644 255.909 283.78L256.857 283.936C256.641 285.172 255.561 286.096 254.097 286.096C252.381 286.096 251.121 284.788 251.121 283.012ZM260.755 286.096C258.907 286.096 257.731 284.8 257.731 283.012C257.731 281.272 258.979 280 260.695 280C262.351 280 263.527 281.14 263.527 282.784C263.527 282.928 263.503 283.108 263.491 283.264H258.715C258.823 284.512 259.603 285.256 260.755 285.256C261.739 285.256 262.315 284.788 262.555 284.032L263.467 284.2C263.179 285.364 262.147 286.096 260.755 286.096ZM260.695 280.816C259.747 280.816 258.943 281.416 258.751 282.472H262.519C262.447 281.488 261.691 280.816 260.695 280.816ZM265.043 280.096H265.943L265.967 281.116C266.459 280.42 267.215 280 268.127 280C269.759 280 270.995 281.284 270.995 283.036C270.995 284.812 269.759 286.096 268.127 286.096C267.227 286.096 266.471 285.688 265.979 285.004V288.64H265.043V280.096ZM267.995 280.864C266.807 280.864 265.979 281.752 265.979 283.036C265.979 284.332 266.807 285.232 267.995 285.232C269.171 285.232 270.011 284.332 270.011 283.036C270.011 281.752 269.171 280.864 267.995 280.864ZM272.496 286V280.096H275.16C276.216 280.096 276.924 280.66 276.924 281.608C276.924 282.232 276.6 282.688 276.06 282.904C276.768 283.084 277.188 283.588 277.188 284.344C277.188 285.412 276.312 286 275.28 286H272.496ZM275.028 280.876H273.42V282.58H275.088C275.676 282.58 276 282.268 276 281.716C276 281.152 275.664 280.876 275.028 280.876ZM275.064 285.208C275.82 285.208 276.216 284.884 276.216 284.272C276.216 283.672 275.844 283.348 275.148 283.348H273.42V285.208H275.064ZM278.707 286V280.096H279.607V284.62L282.751 280.096H283.651V286H282.751V281.476L279.607 286H278.707ZM285.153 283.012C285.153 281.272 286.425 280 288.129 280C289.569 280 290.577 280.828 290.853 282.076L289.893 282.244C289.689 281.404 289.053 280.864 288.129 280.864C286.977 280.864 286.137 281.728 286.137 283.012C286.137 284.332 286.965 285.232 288.129 285.232C289.125 285.232 289.761 284.644 289.941 283.78L290.889 283.936C290.673 285.172 289.593 286.096 288.129 286.096C286.413 286.096 285.153 284.788 285.153 283.012ZM292.23 286V280.096H293.166V282.472H296.274V280.096H297.222V286H296.274V283.3H293.166V286H292.23ZM299.191 286V280.096H300.127V282.076H301.675C302.923 282.076 303.751 282.856 303.751 284.044C303.751 285.22 302.923 286 301.675 286H299.191ZM304.495 286V280.096H305.431V286H304.495ZM301.507 282.904H300.127V285.184H301.507C302.335 285.184 302.767 284.776 302.767 284.044C302.767 283.3 302.335 282.904 301.507 282.904ZM309.914 278.356C310.466 278.356 310.862 278.068 310.874 277.456H311.702C311.702 278.476 310.97 279.1 309.914 279.1C308.858 279.1 308.138 278.476 308.126 277.456H308.966C308.966 278.068 309.374 278.356 309.914 278.356ZM307.394 286V280.096H308.294V284.62L311.438 280.096H312.338V286H311.438V281.476L308.294 286H307.394ZM316.477 283.012C316.477 281.272 317.749 280 319.453 280C320.893 280 321.901 280.828 322.177 282.076L321.217 282.244C321.013 281.404 320.377 280.864 319.453 280.864C318.301 280.864 317.461 281.728 317.461 283.012C317.461 284.332 318.289 285.232 319.453 285.232C320.449 285.232 321.085 284.644 321.265 283.78L322.213 283.936C321.997 285.172 320.917 286.096 319.453 286.096C317.737 286.096 316.477 284.788 316.477 283.012ZM326.29 286.096C324.37 286.096 323.182 284.74 323.182 282.076C323.182 279.1 324.202 277.444 326.794 277.18L327.742 277.072C328.186 277.036 328.426 276.988 328.762 276.904L328.87 277.72C328.534 277.828 328.126 277.876 327.742 277.924L326.758 278.032C325.174 278.212 324.238 279.04 324.106 281.296C324.718 280.3 325.738 280.012 326.554 280.012C328.15 280.012 329.338 281.248 329.338 283.036C329.338 284.824 328.126 286.096 326.29 286.096ZM326.326 280.84C325.09 280.84 324.226 281.752 324.226 283.036C324.226 284.332 325.078 285.232 326.29 285.232C327.502 285.232 328.354 284.332 328.354 283.036C328.354 281.752 327.562 280.84 326.326 280.84ZM333.423 280C335.187 280 336.471 281.284 336.471 283.036C336.471 284.812 335.187 286.096 333.423 286.096C331.659 286.096 330.375 284.812 330.375 283.036C330.375 281.284 331.659 280 333.423 280ZM333.423 280.864C332.211 280.864 331.359 281.752 331.359 283.036C331.359 284.332 332.211 285.232 333.423 285.232C334.635 285.232 335.487 284.332 335.487 283.036C335.487 281.752 334.635 280.864 333.423 280.864ZM337.968 280.096H338.868L338.892 281.116C339.384 280.42 340.14 280 341.052 280C342.684 280 343.92 281.284 343.92 283.036C343.92 284.812 342.684 286.096 341.052 286.096C340.152 286.096 339.396 285.688 338.904 285.004V288.64H337.968V280.096ZM340.92 280.864C339.732 280.864 338.904 281.752 338.904 283.036C338.904 284.332 339.732 285.232 340.92 285.232C342.096 285.232 342.936 284.332 342.936 283.036C342.936 281.752 342.096 280.864 340.92 280.864Z" fill="black" fill-opacity="0.4"/>
<path d="M188.774 334V325H195.878V334H194.858V325.936H189.794V334H188.774ZM200.802 328C202.566 328 203.85 329.284 203.85 331.036C203.85 332.812 202.566 334.096 200.802 334.096C199.038 334.096 197.754 332.812 197.754 331.036C197.754 329.284 199.038 328 200.802 328ZM200.802 328.864C199.59 328.864 198.738 329.752 198.738 331.036C198.738 332.332 199.59 333.232 200.802 333.232C202.014 333.232 202.866 332.332 202.866 331.036C202.866 329.752 202.014 328.864 200.802 328.864ZM204.471 335.86V333.184H205.023C205.443 332.776 205.635 332.152 205.719 330.136L205.791 328.096H210.003V333.184H210.807V335.86H209.895V334H205.371V335.86H204.471ZM206.631 330.1C206.571 331.66 206.391 332.62 206.007 333.184H209.067V328.912H206.679L206.631 330.1ZM212.086 328.096H212.986L213.01 329.116C213.502 328.42 214.258 328 215.17 328C216.802 328 218.038 329.284 218.038 331.036C218.038 332.812 216.802 334.096 215.17 334.096C214.27 334.096 213.514 333.688 213.022 333.004V336.64H212.086V328.096ZM215.038 328.864C213.85 328.864 213.022 329.752 213.022 331.036C213.022 332.332 213.85 333.232 215.038 333.232C216.214 333.232 217.054 332.332 217.054 331.036C217.054 329.752 216.214 328.864 215.038 328.864ZM222.119 328C223.883 328 225.167 329.284 225.167 331.036C225.167 332.812 223.883 334.096 222.119 334.096C220.355 334.096 219.071 332.812 219.071 331.036C219.071 329.284 220.355 328 222.119 328ZM222.119 328.864C220.907 328.864 220.055 329.752 220.055 331.036C220.055 332.332 220.907 333.232 222.119 333.232C223.331 333.232 224.183 332.332 224.183 331.036C224.183 329.752 223.331 328.864 222.119 328.864ZM229.4 334.096C227.48 334.096 226.292 332.74 226.292 330.076C226.292 327.1 227.312 325.444 229.904 325.18L230.852 325.072C231.296 325.036 231.536 324.988 231.872 324.904L231.98 325.72C231.644 325.828 231.236 325.876 230.852 325.924L229.868 326.032C228.284 326.212 227.348 327.04 227.216 329.296C227.828 328.3 228.848 328.012 229.664 328.012C231.26 328.012 232.448 329.248 232.448 331.036C232.448 332.824 231.236 334.096 229.4 334.096ZM229.436 328.84C228.2 328.84 227.336 329.752 227.336 331.036C227.336 332.332 228.188 333.232 229.4 333.232C230.612 333.232 231.464 332.332 231.464 331.036C231.464 329.752 230.672 328.84 229.436 328.84ZM233.953 334V328.096H234.889V330.472H237.997V328.096H238.945V334H237.997V331.3H234.889V334H233.953ZM243.47 334.096C241.622 334.096 240.446 332.8 240.446 331.012C240.446 329.272 241.694 328 243.41 328C245.066 328 246.242 329.14 246.242 330.784C246.242 330.928 246.218 331.108 246.206 331.264H241.43C241.538 332.512 242.318 333.256 243.47 333.256C244.454 333.256 245.03 332.788 245.27 332.032L246.182 332.2C245.894 333.364 244.862 334.096 243.47 334.096ZM243.41 328.816C242.462 328.816 241.658 329.416 241.466 330.472H245.234C245.162 329.488 244.406 328.816 243.41 328.816ZM250.313 334.096C248.465 334.096 247.289 332.8 247.289 331.012C247.289 329.272 248.537 328 250.253 328C251.909 328 253.085 329.14 253.085 330.784C253.085 330.928 253.061 331.108 253.049 331.264H248.273C248.381 332.512 249.161 333.256 250.313 333.256C251.297 333.256 251.873 332.788 252.113 332.032L253.025 332.2C252.737 333.364 251.705 334.096 250.313 334.096ZM250.253 328.816C249.305 328.816 248.501 329.416 248.309 330.472H252.077C252.005 329.488 251.249 328.816 250.253 328.816ZM259.818 328C261.582 328 262.866 329.284 262.866 331.036C262.866 332.812 261.582 334.096 259.818 334.096C258.054 334.096 256.77 332.812 256.77 331.036C256.77 329.284 258.054 328 259.818 328ZM259.818 328.864C258.606 328.864 257.754 329.752 257.754 331.036C257.754 332.332 258.606 333.232 259.818 333.232C261.03 333.232 261.882 332.332 261.882 331.036C261.882 329.752 261.03 328.864 259.818 328.864ZM266.532 331.012C266.532 329.272 267.804 328 269.508 328C270.948 328 271.956 328.828 272.232 330.076L271.272 330.244C271.068 329.404 270.432 328.864 269.508 328.864C268.356 328.864 267.516 329.728 267.516 331.012C267.516 332.332 268.344 333.232 269.508 333.232C270.504 333.232 271.14 332.644 271.32 331.78L272.268 331.936C272.052 333.172 270.972 334.096 269.508 334.096C267.792 334.096 266.532 332.788 266.532 331.012ZM276.165 334.096C274.317 334.096 273.141 332.8 273.141 331.012C273.141 329.272 274.389 328 276.105 328C277.761 328 278.937 329.14 278.937 330.784C278.937 330.928 278.913 331.108 278.901 331.264H274.125C274.233 332.512 275.013 333.256 276.165 333.256C277.149 333.256 277.725 332.788 277.965 332.032L278.877 332.2C278.589 333.364 277.557 334.096 276.165 334.096ZM276.105 328.816C275.157 328.816 274.353 329.416 274.161 330.472H277.929C277.857 329.488 277.101 328.816 276.105 328.816ZM280.453 328.096H281.353L281.377 329.116C281.869 328.42 282.625 328 283.537 328C285.169 328 286.405 329.284 286.405 331.036C286.405 332.812 285.169 334.096 283.537 334.096C282.637 334.096 281.881 333.688 281.389 333.004V336.64H280.453V328.096ZM283.405 328.864C282.217 328.864 281.389 329.752 281.389 331.036C281.389 332.332 282.217 333.232 283.405 333.232C284.581 333.232 285.421 332.332 285.421 331.036C285.421 329.752 284.581 328.864 283.405 328.864ZM287.906 334V328.096H290.57C291.626 328.096 292.334 328.66 292.334 329.608C292.334 330.232 292.01 330.688 291.47 330.904C292.178 331.084 292.598 331.588 292.598 332.344C292.598 333.412 291.722 334 290.69 334H287.906ZM290.438 328.876H288.83V330.58H290.498C291.086 330.58 291.41 330.268 291.41 329.716C291.41 329.152 291.074 328.876 290.438 328.876ZM290.474 333.208C291.23 333.208 291.626 332.884 291.626 332.272C291.626 331.672 291.254 331.348 290.558 331.348H288.83V333.208H290.474ZM294.117 334V328.096H295.017V332.62L298.161 328.096H299.061V334H298.161V329.476L295.017 334H294.117ZM300.563 331.012C300.563 329.272 301.835 328 303.539 328C304.979 328 305.987 328.828 306.263 330.076L305.303 330.244C305.099 329.404 304.463 328.864 303.539 328.864C302.387 328.864 301.547 329.728 301.547 331.012C301.547 332.332 302.375 333.232 303.539 333.232C304.535 333.232 305.171 332.644 305.351 331.78L306.299 331.936C306.083 333.172 305.003 334.096 303.539 334.096C301.823 334.096 300.563 332.788 300.563 331.012ZM310.196 334.096C308.348 334.096 307.172 332.8 307.172 331.012C307.172 329.272 308.42 328 310.136 328C311.792 328 312.968 329.14 312.968 330.784C312.968 330.928 312.944 331.108 312.932 331.264H308.156C308.264 332.512 309.044 333.256 310.196 333.256C311.18 333.256 311.756 332.788 311.996 332.032L312.908 332.2C312.62 333.364 311.588 334.096 310.196 334.096ZM310.136 328.816C309.188 328.816 308.384 329.416 308.192 330.472H311.96C311.888 329.488 311.132 328.816 310.136 328.816ZM317.121 334V328.096H318.093L320.193 330.856L322.305 328.096H323.277V334H322.377V329.344L320.277 332.092H320.061L318.021 329.392V334H317.121ZM327.822 328C329.586 328 330.87 329.284 330.87 331.036C330.87 332.812 329.586 334.096 327.822 334.096C326.058 334.096 324.774 332.812 324.774 331.036C324.774 329.284 326.058 328 327.822 328ZM327.822 328.864C326.61 328.864 325.758 329.752 325.758 331.036C325.758 332.332 326.61 333.232 327.822 333.232C329.034 333.232 329.886 332.332 329.886 331.036C329.886 329.752 329.034 328.864 327.822 328.864ZM332.526 328.096L334.194 330.484H334.974V328.096H335.874V330.484H336.642L338.334 328.096H339.39L337.362 330.856L339.546 334H338.466L336.606 331.324H335.874V334H334.974V331.324H334.23L332.358 334H331.314L333.474 330.916L331.458 328.096H332.526ZM340.617 334V328.096H341.553V330.472H344.661V328.096H345.609V334H344.661V331.3H341.553V334H340.617ZM350.158 328C351.922 328 353.206 329.284 353.206 331.036C353.206 332.812 351.922 334.096 350.158 334.096C348.394 334.096 347.11 332.812 347.11 331.036C347.11 329.284 348.394 328 350.158 328ZM350.158 328.864C348.946 328.864 348.094 329.752 348.094 331.036C348.094 332.332 348.946 333.232 350.158 333.232C351.37 333.232 352.222 332.332 352.222 331.036C352.222 329.752 351.37 328.864 350.158 328.864ZM356.451 328.096H357.507L359.547 332.752L361.371 328.096H362.367L358.923 336.64H357.939L359.019 333.952L356.451 328.096ZM365.305 334.096C363.997 334.096 363.109 333.544 362.797 332.536L363.721 332.26C363.937 333.016 364.585 333.28 365.317 333.28C366.169 333.28 366.781 332.956 366.781 332.26C366.781 331.648 366.289 331.36 365.677 331.36H364.621V330.556H365.653C366.241 330.556 366.697 330.244 366.697 329.692C366.697 329.128 366.241 328.804 365.377 328.804C364.525 328.804 364.009 329.152 363.841 329.8L362.953 329.596C363.217 328.6 364.093 328 365.413 328C366.793 328 367.657 328.648 367.657 329.62C367.657 330.22 367.297 330.688 366.649 330.916C367.345 331.096 367.765 331.588 367.765 332.308C367.765 333.52 366.649 334.096 365.305 334.096ZM369.293 334V328.096H370.229V330.472H373.337V328.096H374.285V334H373.337V331.3H370.229V334H369.293ZM379.914 334L379.89 332.824C379.422 333.628 378.618 334.096 377.658 334.096C376.542 334.096 375.798 333.472 375.798 332.464C375.798 331.324 376.746 330.856 378.162 330.496L379.866 330.088C379.77 329.224 379.194 328.804 378.342 328.804C377.478 328.804 376.89 329.188 376.674 329.992L375.786 329.824C376.062 328.684 377.022 328 378.354 328C379.842 328 380.778 328.84 380.778 330.304V334H379.914ZM376.782 332.38C376.782 332.92 377.154 333.292 377.802 333.292C378.858 333.292 379.878 332.476 379.878 330.988V330.856L378.174 331.276C377.274 331.504 376.782 331.792 376.782 332.38ZM383.937 334V328.912H381.885V328.096H386.937V328.912H384.885V334H383.937ZM388.16 334V328.096H389.096V330.076H390.68C391.928 330.076 392.756 330.856 392.756 332.044C392.756 333.22 391.928 334 390.68 334H388.16ZM390.512 330.904H389.096V333.184H390.512C391.34 333.184 391.772 332.776 391.772 332.044C391.772 331.3 391.34 330.904 390.512 330.904ZM396.644 334V328.096H397.58V330.472H400.688V328.096H401.636V334H400.688V331.3H397.58V334H396.644ZM407.265 334L407.241 332.824C406.773 333.628 405.969 334.096 405.009 334.096C403.893 334.096 403.149 333.472 403.149 332.464C403.149 331.324 404.097 330.856 405.513 330.496L407.217 330.088C407.121 329.224 406.545 328.804 405.693 328.804C404.829 328.804 404.241 329.188 404.025 329.992L403.137 329.824C403.413 328.684 404.373 328 405.705 328C407.193 328 408.129 328.84 408.129 330.304V334H407.265ZM404.133 332.38C404.133 332.92 404.505 333.292 405.153 333.292C406.209 333.292 407.229 332.476 407.229 330.988V330.856L405.525 331.276C404.625 331.504 404.133 331.792 404.133 332.38Z" fill="black" fill-opacity="0.4"/>
<path d="M418.101 334H417.201L417.177 333.04C416.685 333.7 415.941 334.096 415.053 334.096C413.385 334.096 412.149 332.812 412.149 331.036C412.149 329.284 413.385 328 415.053 328C415.929 328 416.673 328.396 417.165 329.032V325H418.101V334ZM415.149 328.864C413.973 328.864 413.133 329.752 413.133 331.036C413.133 332.332 413.973 333.232 415.149 333.232C416.349 333.232 417.165 332.332 417.165 331.036C417.165 329.752 416.349 328.864 415.149 328.864ZM422.65 328C424.414 328 425.698 329.284 425.698 331.036C425.698 332.812 424.414 334.096 422.65 334.096C420.886 334.096 419.602 332.812 419.602 331.036C419.602 329.284 420.886 328 422.65 328ZM422.65 328.864C421.438 328.864 420.586 329.752 420.586 331.036C420.586 332.332 421.438 333.232 422.65 333.232C423.862 333.232 424.714 332.332 424.714 331.036C424.714 329.752 423.862 328.864 422.65 328.864ZM427.195 334V325H428.131V334H427.195ZM429.213 328.096H430.269L432.309 332.752L434.133 328.096H435.129L431.685 336.64H430.701L431.781 333.952L429.213 328.096ZM439.843 334L439.819 332.824C439.351 333.628 438.547 334.096 437.587 334.096C436.471 334.096 435.727 333.472 435.727 332.464C435.727 331.324 436.675 330.856 438.091 330.496L439.795 330.088C439.699 329.224 439.123 328.804 438.271 328.804C437.407 328.804 436.819 329.188 436.603 329.992L435.715 329.824C435.991 328.684 436.951 328 438.283 328C439.771 328 440.707 328.84 440.707 330.304V334H439.843ZM436.711 332.38C436.711 332.92 437.083 333.292 437.731 333.292C438.787 333.292 439.807 332.476 439.807 330.988V330.856L438.103 331.276C437.203 331.504 436.711 331.792 436.711 332.38ZM442.558 334V328.096H443.458L443.482 328.864C443.842 328.348 444.406 328 445.15 328C445.93 328 446.602 328.348 446.95 329.044C447.322 328.432 447.958 328 448.834 328C450.01 328 450.922 328.756 450.922 330.256V334H449.974V330.304C449.974 329.344 449.446 328.876 448.666 328.876C447.862 328.876 447.202 329.356 447.202 330.34V334H446.266V330.304C446.266 329.344 445.726 328.876 444.958 328.876C444.154 328.876 443.494 329.392 443.494 330.424V334H442.558ZM455.321 334.096C453.473 334.096 452.297 332.8 452.297 331.012C452.297 329.272 453.545 328 455.261 328C456.917 328 458.093 329.14 458.093 330.784C458.093 330.928 458.069 331.108 458.057 331.264H453.281C453.389 332.512 454.169 333.256 455.321 333.256C456.305 333.256 456.881 332.788 457.121 332.032L458.033 332.2C457.745 333.364 456.713 334.096 455.321 334.096ZM455.261 328.816C454.313 328.816 453.509 329.416 453.317 330.472H457.085C457.013 329.488 456.257 328.816 455.261 328.816ZM459.969 334.108C459.561 334.108 459.261 333.832 459.261 333.412C459.261 333.004 459.561 332.728 459.969 332.728C460.389 332.728 460.677 333.004 460.677 333.412C460.677 333.832 460.389 334.108 459.969 334.108ZM462.304 334V328.096H463.228L463.252 329.032C463.588 328.408 464.212 328 465.04 328C465.244 328 465.412 328.024 465.628 328.084L465.484 329.008C465.268 328.948 465.076 328.924 464.884 328.924C463.996 328.924 463.24 329.608 463.24 330.928V334H462.304ZM467.491 328.096V331.636C467.491 332.656 468.103 333.232 469.039 333.232C469.879 333.232 470.671 332.716 470.671 331.468V328.096H471.607V334H470.743L470.719 333.148C470.311 333.772 469.639 334.096 468.811 334.096C467.515 334.096 466.555 333.232 466.555 331.72V328.096H467.491Z" fill="#1771E6"/>
<g filter="url(#filter1_b_239_4390)">
<rect x="594" y="12" width="24" height="24" rx="12" fill="black" fill-opacity="0.04"/>
<path d="M601.001 28.0453L610.045 19.0006L610.999 19.9547L601.955 28.9994L601.001 28.0453Z" fill="black"/>
<path d="M601.954 19L611 28.0459L610.046 29L601 19.9541L601.954 19Z" fill="black"/>
</g>
</g>
<defs>
<filter id="filter0_ddd_239_4390" x="0" y="0" width="660" height="422" filterUnits="userSpaceOnUse" color-interpolation-filters="sRGB">
<feFlood flood-opacity="0" result="BackgroundImageFix"/>
<feColorMatrix in="SourceAlpha" type="matrix" values="0 0 0 0 0 0 0 0 0 0 0 0 0 0 0 0 0 0 127 0" result="hardAlpha"/>
<feMorphology radius="10" operator="erode" in="SourceAlpha" result="effect1_dropShadow_239_4390"/>
<feOffset dy="8"/>
<feGaussianBlur stdDeviation="8"/>
<feColorMatrix type="matrix" values="0 0 0 0 0 0 0 0 0 0 0 0 0 0 0 0 0 0 0.05 0"/>
<feBlend mode="normal" in2="BackgroundImageFix" result="effect1_dropShadow_239_4390"/>
<feColorMatrix in="SourceAlpha" type="matrix" values="0 0 0 0 0 0 0 0 0 0 0 0 0 0 0 0 0 0 127 0" result="hardAlpha"/>
<feMorphology radius="10" operator="erode" in="SourceAlpha" result="effect2_dropShadow_239_4390"/>
<feOffset dy="30"/>
<feGaussianBlur stdDeviation="15"/>
<feColorMatrix type="matrix" values="0 0 0 0 0 0 0 0 0 0 0 0 0 0 0 0 0 0 0.04 0"/>
<feBlend mode="normal" in2="effect1_dropShadow_239_4390" result="effect2_dropShadow_239_4390"/>
<feColorMatrix in="SourceAlpha" type="matrix" values="0 0 0 0 0 0 0 0 0 0 0 0 0 0 0 0 0 0 127 0" result="hardAlpha"/>
<feMorphology radius="10" operator="erode" in="SourceAlpha" result="effect3_dropShadow_239_4390"/>
<feOffset dy="30"/>
<feGaussianBlur stdDeviation="20"/>
<feColorMatrix type="matrix" values="0 0 0 0 0 0 0 0 0 0 0 0 0 0 0 0 0 0 0.03 0"/>
<feBlend mode="normal" in2="effect2_dropShadow_239_4390" result="effect3_dropShadow_239_4390"/>
<feBlend mode="normal" in="SourceGraphic" in2="effect3_dropShadow_239_4390" result="shape"/>
</filter>
<filter id="filter1_b_239_4390" x="578" y="-4" width="56" height="56" filterUnits="userSpaceOnUse" color-interpolation-filters="sRGB">
<feFlood flood-opacity="0" result="BackgroundImageFix"/>
<feGaussianBlur in="BackgroundImageFix" stdDeviation="8"/>
<feComposite in2="SourceAlpha" operator="in" result="effect1_backgroundBlur_239_4390"/>
<feBlend mode="normal" in="SourceGraphic" in2="effect1_backgroundBlur_239_4390" result="shape"/>
</filter>
<clipPath id="clip0_239_4390">
<rect width="70" height="10" fill="white" transform="translate(62 31)"/>
</clipPath>
</defs>
</svg>
