<svg width="375" height="396" viewBox="0 0 375 396" fill="none" xmlns="http://www.w3.org/2000/svg">
<rect width="375" height="396" rx="20" fill="white"/>
<path d="M17.94 45V30H23.86C26.92 30 29 32 29 34.8C29 37.52 26.92 39.58 23.86 39.58H20.7V45H17.94ZM23.8 32.48H20.7V37.1H23.8C25.3 37.1 26.24 36.2 26.24 34.8C26.24 33.36 25.3 32.48 23.8 32.48ZM36.9775 45L36.7975 43.62C36.0575 44.6 34.9175 45.2 33.5175 45.2C31.7175 45.2 30.2775 44.16 30.2775 42.24C30.2775 40.18 32.0375 39.38 34.1375 38.9L36.6975 38.32C36.4775 37.32 35.7975 36.9 34.7775 36.9C33.6375 36.9 32.8975 37.4 32.6175 38.42L30.1975 37.98C30.6975 36.08 32.2975 34.76 34.8175 34.76C37.4775 34.76 39.2175 36.16 39.2175 38.96V45H36.9775ZM32.8575 42.06C32.8575 42.76 33.3375 43.12 34.0575 43.12C35.3975 43.12 36.7575 42.26 36.7575 40.44V40.22L34.2975 40.82C33.4575 41.02 32.8575 41.32 32.8575 42.06ZM45.5731 45.2C43.0931 45.2 41.5131 44.2 40.9131 42.46L43.3931 41.72C43.6731 42.72 44.4131 43.12 45.5531 43.12C46.7531 43.12 47.3931 42.68 47.3931 42C47.3931 41.36 46.9531 41 45.9731 41H44.3931V38.86H45.9331C46.8531 38.86 47.2731 38.52 47.2731 37.94C47.2731 37.26 46.5731 36.86 45.5331 36.86C44.4731 36.86 43.7131 37.26 43.4331 38.22L41.0731 37.68C41.5731 35.82 43.2531 34.76 45.6531 34.76C48.2131 34.76 49.8331 36 49.8331 37.7C49.8331 38.68 49.2931 39.4 48.2331 39.84C49.3931 40.16 50.0331 40.98 50.0331 42.14C50.0331 44.22 47.9931 45.2 45.5731 45.2ZM51.0275 47.86V42.78H52.0075C52.6475 42.3 52.9275 40.94 53.0275 38.12L53.1275 34.98H61.0275V42.78H62.4475V47.86H59.9275V45H53.5475V47.86H51.0275ZM55.4675 38.08C55.4075 40.28 55.1675 41.8 54.6275 42.78H58.5275V37.18H55.4875L55.4675 38.08ZM68.8945 45.2C65.5745 45.2 63.5945 43.02 63.5945 40.04C63.5945 37 65.7345 34.76 68.7745 34.76C71.7145 34.76 73.7545 36.72 73.7545 39.62C73.7545 39.98 73.7145 40.38 73.6345 40.76H66.1945C66.4345 42.32 67.4545 43 68.8945 43C70.2145 43 70.9745 42.42 71.2945 41.58L73.6545 42.06C73.0545 44.06 71.3145 45.2 68.8945 45.2ZM68.7745 36.86C67.6145 36.86 66.6345 37.5 66.2745 38.82H71.0945C70.8745 37.56 70.0545 36.86 68.7745 36.86ZM74.8956 42.84C74.9956 42.86 75.0756 42.88 75.2156 42.88C76.1756 42.88 76.5356 42.44 76.6756 38.4L76.8156 34.98H84.7156V45H82.1756V37.2H79.2556L79.1756 38.98C78.9756 43.64 78.1356 45.2 75.6556 45.2C75.2356 45.2 74.9356 45.14 74.6156 45.04L74.8956 42.84ZM87.6358 45V34.98H90.0958V41.42L94.2758 34.98H96.7358V45H94.2758V38.56L90.0958 45H87.6358ZM101.748 45V37.2H98.5675V34.98H107.448V37.2H104.288V45H101.748ZM113.797 45.2C110.477 45.2 108.497 43.02 108.497 40.04C108.497 37 110.637 34.76 113.677 34.76C116.617 34.76 118.657 36.72 118.657 39.62C118.657 39.98 118.617 40.38 118.537 40.76H111.097C111.337 42.32 112.357 43 113.797 43C115.117 43 115.877 42.42 116.197 41.58L118.557 42.06C117.957 44.06 116.217 45.2 113.797 45.2ZM113.677 36.86C112.517 36.86 111.537 37.5 111.177 38.82H115.997C115.777 37.56 114.957 36.86 113.677 36.86ZM124.513 40C124.513 36.98 126.733 34.76 129.753 34.76C132.193 34.76 133.993 36.2 134.473 38.34L131.913 38.8C131.653 37.72 130.853 37.1 129.733 37.1C128.233 37.1 127.153 38.2 127.153 40C127.153 41.78 128.173 42.88 129.692 42.88C130.953 42.88 131.753 42.2 132.013 41.16L134.513 41.58C134.153 43.64 132.233 45.2 129.713 45.2C126.713 45.2 124.513 43 124.513 40ZM138.544 45V37.2H135.364V34.98H144.244V37.2H141.084V45H138.544ZM150.634 34.76C153.714 34.76 155.974 36.98 155.974 39.98C155.974 43 153.714 45.2 150.634 45.2C147.554 45.2 145.294 43 145.294 39.98C145.294 36.98 147.554 34.76 150.634 34.76ZM150.634 37.1C149.014 37.1 147.934 38.26 147.934 39.98C147.934 41.72 149.014 42.88 150.634 42.88C152.254 42.88 153.314 41.72 153.314 39.98C153.314 38.26 152.254 37.1 150.634 37.1ZM158.124 45V34.98H160.584V41.42L164.764 34.98H167.224V45H164.764V38.56L160.584 45H158.124ZM170.136 45V34.98H172.716L175.856 39.3L178.936 34.98H181.516V45H179.096V38.4L176.116 42.56H175.556L172.556 38.42V45H170.136ZM189.013 34.76C192.093 34.76 194.353 36.98 194.353 39.98C194.353 43 192.093 45.2 189.013 45.2C185.933 45.2 183.673 43 183.673 39.98C183.673 36.98 185.933 34.76 189.013 34.76ZM189.013 37.1C187.393 37.1 186.313 38.26 186.313 39.98C186.313 41.72 187.393 42.88 189.013 42.88C190.633 42.88 191.693 41.72 191.693 39.98C191.693 38.26 190.633 37.1 189.013 37.1ZM195.743 40C195.743 36.98 197.963 34.76 200.983 34.76C203.423 34.76 205.223 36.2 205.703 38.34L203.143 38.8C202.883 37.72 202.083 37.1 200.963 37.1C199.463 37.1 198.383 38.2 198.383 40C198.383 41.78 199.403 42.88 200.923 42.88C202.183 42.88 202.983 42.2 203.243 41.16L205.743 41.58C205.383 43.64 203.463 45.2 200.943 45.2C197.943 45.2 195.743 43 195.743 40ZM209.775 45V37.2H206.595V34.98H215.475V37.2H212.315V45H209.775ZM217.323 45V34.98H219.863V37.82H222.203C224.463 37.82 226.003 39.26 226.003 41.42C226.003 43.56 224.463 45 222.203 45H217.323ZM221.823 40.02H219.863V42.8H221.823C222.823 42.8 223.363 42.32 223.363 41.42C223.363 40.52 222.823 40.02 221.823 40.02ZM232.343 45V34.98H241.323V45H238.783V37.2H234.883V45H232.343ZM248.817 34.76C251.897 34.76 254.157 36.98 254.157 39.98C254.157 43 251.897 45.2 248.817 45.2C245.737 45.2 243.477 43 243.477 39.98C243.477 36.98 245.737 34.76 248.817 34.76ZM248.817 37.1C247.197 37.1 246.117 38.26 246.117 39.98C246.117 41.72 247.197 42.88 248.817 42.88C250.437 42.88 251.497 41.72 251.497 39.98C251.497 38.26 250.437 37.1 248.817 37.1ZM256.308 34.98H258.848V38.6H259.948L262.748 34.98H265.768L261.968 39.68L265.928 45H262.908L259.928 41.04H258.848V45H256.308V34.98ZM266.256 34.98H269.076L271.876 41.74L274.296 34.98H276.996L271.456 49.4H268.836L270.556 44.94L266.256 34.98ZM278.534 45V34.98H287.514V45H284.974V37.2H281.074V45H278.534ZM290.429 34.98H292.969V38.6H294.069L296.869 34.98H299.889L296.089 39.68L300.049 45H297.029L294.049 41.04H292.969V45H290.429V34.98ZM301.601 45V34.98H304.061V41.42L308.241 34.98H310.701V45H308.241V38.56L304.061 45H301.601Z" fill="black"/>
<path d="M20.522 104.112C18.464 104.112 16.868 103.202 16.518 101.144L17.68 100.85C17.946 102.376 19.024 103.02 20.536 103.02C22.048 103.02 23.154 102.32 23.154 100.976C23.154 99.814 22.44 99.114 20.956 99.114H19.36V98.022H20.9C22.174 98.022 22.888 97.378 22.888 96.258C22.888 95.152 21.964 94.466 20.494 94.466C19.262 94.466 18.156 95.012 17.904 96.314L16.784 96.062C17.19 94.27 18.73 93.388 20.494 93.388C22.706 93.388 24.092 94.508 24.092 96.174C24.092 97.21 23.56 98.022 22.636 98.498C23.742 98.876 24.358 99.8 24.358 101.004C24.358 102.894 22.804 104.112 20.522 104.112ZM30.6192 104L30.5912 102.628C30.0452 103.566 29.1072 104.112 27.9872 104.112C26.6852 104.112 25.8172 103.384 25.8172 102.208C25.8172 100.878 26.9232 100.332 28.5752 99.912L30.5632 99.436C30.4512 98.428 29.7792 97.938 28.7852 97.938C27.7772 97.938 27.0912 98.386 26.8392 99.324L25.8032 99.128C26.1252 97.798 27.2452 97 28.7992 97C30.5352 97 31.6272 97.98 31.6272 99.688V104H30.6192ZM26.9652 102.11C26.9652 102.74 27.3992 103.174 28.1552 103.174C29.3872 103.174 30.5772 102.222 30.5772 100.486V100.332L28.5892 100.822C27.5392 101.088 26.9652 101.424 26.9652 102.11ZM33.7867 104V97.112H39.5267V104H38.4207V98.064H34.8787V104H33.7867ZM40.8597 103.076C40.9297 103.09 40.9997 103.104 41.1117 103.104C41.6997 103.104 42.1617 102.656 42.2877 99.548L42.3857 97.112H47.2157V104H46.1097V98.064H43.4217L43.3657 99.66C43.2117 103.328 42.4277 104.112 41.2517 104.112C41.0277 104.112 40.9017 104.084 40.7197 104.014L40.8597 103.076ZM53.7793 104L53.7513 102.628C53.2053 103.566 52.2673 104.112 51.1473 104.112C49.8453 104.112 48.9773 103.384 48.9773 102.208C48.9773 100.878 50.0833 100.332 51.7353 99.912L53.7233 99.436C53.6113 98.428 52.9393 97.938 51.9453 97.938C50.9373 97.938 50.2513 98.386 49.9993 99.324L48.9633 99.128C49.2853 97.798 50.4053 97 51.9593 97C53.6953 97 54.7873 97.98 54.7873 99.688V104H53.7793ZM50.1253 102.11C50.1253 102.74 50.5593 103.174 51.3153 103.174C52.5473 103.174 53.7373 102.222 53.7373 100.486V100.332L51.7493 100.822C50.6993 101.088 50.1253 101.424 50.1253 102.11ZM58.4728 104V98.064H56.0788V97.112H61.9728V98.064H59.5788V104H58.4728ZM63.4 104V97.112H64.45V102.39L68.118 97.112H69.168V104H68.118V98.722L64.45 104H63.4ZM72.9924 104V98.064H70.5984V97.112H76.4924V98.064H74.0984V104H72.9924ZM80.7101 104.112C78.5541 104.112 77.1821 102.6 77.1821 100.514C77.1821 98.484 78.6381 97 80.6401 97C82.5721 97 83.9441 98.33 83.9441 100.248C83.9441 100.416 83.9161 100.626 83.9021 100.808H78.3301C78.4561 102.264 79.3661 103.132 80.7101 103.132C81.8581 103.132 82.5301 102.586 82.8101 101.704L83.8741 101.9C83.5381 103.258 82.3341 104.112 80.7101 104.112ZM80.6401 97.952C79.5341 97.952 78.5961 98.652 78.3721 99.884H82.7681C82.6841 98.736 81.8021 97.952 80.6401 97.952ZM88.2426 100.514C88.2426 98.484 89.7266 97 91.7146 97C93.3946 97 94.5706 97.966 94.8926 99.422L93.7726 99.618C93.5346 98.638 92.7926 98.008 91.7146 98.008C90.3706 98.008 89.3906 99.016 89.3906 100.514C89.3906 102.054 90.3566 103.104 91.7146 103.104C92.8766 103.104 93.6186 102.418 93.8286 101.41L94.9346 101.592C94.6826 103.034 93.4226 104.112 91.7146 104.112C89.7126 104.112 88.2426 102.586 88.2426 100.514ZM99.4816 104.112C97.3256 104.112 95.9536 102.6 95.9536 100.514C95.9536 98.484 97.4096 97 99.4116 97C101.344 97 102.716 98.33 102.716 100.248C102.716 100.416 102.688 100.626 102.674 100.808H97.1016C97.2276 102.264 98.1376 103.132 99.4816 103.132C100.63 103.132 101.302 102.586 101.582 101.704L102.646 101.9C102.31 103.258 101.106 104.112 99.4816 104.112ZM99.4116 97.952C98.3056 97.952 97.3676 98.652 97.1436 99.884H101.54C101.456 98.736 100.574 97.952 99.4116 97.952ZM107.424 95.082C108.068 95.082 108.53 94.746 108.544 94.032H109.51C109.51 95.222 108.656 95.95 107.424 95.95C106.192 95.95 105.352 95.222 105.338 94.032H106.318C106.318 94.746 106.794 95.082 107.424 95.082ZM104.484 104V97.112H105.534V102.39L109.202 97.112H110.252V104H109.202V98.722L105.534 104H104.484ZM114.678 101.438C112.9 101.438 112.032 100.598 112.032 99.086V97.112H113.124V98.946C113.124 99.968 113.726 100.472 114.86 100.472C115.476 100.472 115.91 100.388 116.442 100.234V97.112H117.548V104H116.442V101.172C115.868 101.34 115.364 101.438 114.678 101.438ZM124.121 104L124.093 102.628C123.547 103.566 122.609 104.112 121.489 104.112C120.187 104.112 119.319 103.384 119.319 102.208C119.319 100.878 120.425 100.332 122.077 99.912L124.065 99.436C123.953 98.428 123.281 97.938 122.287 97.938C121.279 97.938 120.593 98.386 120.341 99.324L119.305 99.128C119.627 97.798 120.747 97 122.301 97C124.037 97 125.129 97.98 125.129 99.688V104H124.121ZM120.467 102.11C120.467 102.74 120.901 103.174 121.657 103.174C122.889 103.174 124.079 102.222 124.079 100.486V100.332L122.091 100.822C121.041 101.088 120.467 101.424 120.467 102.11ZM126.743 100.514C126.743 98.484 128.227 97 130.215 97C131.895 97 133.071 97.966 133.393 99.422L132.273 99.618C132.035 98.638 131.293 98.008 130.215 98.008C128.871 98.008 127.891 99.016 127.891 100.514C127.891 102.054 128.857 103.104 130.215 103.104C131.377 103.104 132.119 102.418 132.329 101.41L133.435 101.592C133.183 103.034 131.923 104.112 130.215 104.112C128.213 104.112 126.743 102.586 126.743 100.514ZM139.602 104V98.064H137.208V97.112H143.102V98.064H140.708V104H139.602ZM147.347 97C149.405 97 150.903 98.498 150.903 100.542C150.903 102.614 149.405 104.112 147.347 104.112C145.289 104.112 143.791 102.614 143.791 100.542C143.791 98.498 145.289 97 147.347 97ZM147.347 98.008C145.933 98.008 144.939 99.044 144.939 100.542C144.939 102.054 145.933 103.104 147.347 103.104C148.761 103.104 149.755 102.054 149.755 100.542C149.755 99.044 148.761 98.008 147.347 98.008ZM151.684 103.076C151.754 103.09 151.824 103.104 151.936 103.104C152.524 103.104 152.986 102.656 153.112 99.548L153.21 97.112H158.04V104H156.934V98.064H154.246L154.19 99.66C154.036 103.328 153.252 104.112 152.076 104.112C151.852 104.112 151.726 104.084 151.544 104.014L151.684 103.076ZM160.334 104V97.112H161.426V99.422H163.274C164.73 99.422 165.696 100.332 165.696 101.718C165.696 103.09 164.73 104 163.274 104H160.334ZM163.078 100.388H161.426V103.048H163.078C164.044 103.048 164.548 102.572 164.548 101.718C164.548 100.85 164.044 100.388 163.078 100.388ZM167.156 97.112H168.248V99.856H169.27L171.622 97.112H172.924L170.138 100.346L173.162 104H171.818L169.214 100.92H168.248V104H167.156V97.112ZM177.056 97C179.114 97 180.612 98.498 180.612 100.542C180.612 102.614 179.114 104.112 177.056 104.112C174.998 104.112 173.5 102.614 173.5 100.542C173.5 98.498 174.998 97 177.056 97ZM177.056 98.008C175.642 98.008 174.648 99.044 174.648 100.542C174.648 102.054 175.642 103.104 177.056 103.104C178.47 103.104 179.464 102.054 179.464 100.542C179.464 99.044 178.47 98.008 177.056 98.008ZM187.563 101.438C185.785 101.438 184.917 100.598 184.917 99.086V97.112H186.009V98.946C186.009 99.968 186.611 100.472 187.745 100.472C188.361 100.472 188.795 100.388 189.327 100.234V97.112H190.433V104H189.327V101.172C188.753 101.34 188.249 101.438 187.563 101.438ZM197.006 104L196.978 102.628C196.432 103.566 195.494 104.112 194.374 104.112C193.072 104.112 192.204 103.384 192.204 102.208C192.204 100.878 193.31 100.332 194.962 99.912L196.95 99.436C196.838 98.428 196.166 97.938 195.172 97.938C194.164 97.938 193.478 98.386 193.226 99.324L192.19 99.128C192.512 97.798 193.632 97 195.186 97C196.922 97 198.014 97.98 198.014 99.688V104H197.006ZM193.352 102.11C193.352 102.74 193.786 103.174 194.542 103.174C195.774 103.174 196.964 102.222 196.964 100.486V100.332L194.976 100.822C193.926 101.088 193.352 101.424 193.352 102.11ZM199.627 100.514C199.627 98.484 201.111 97 203.099 97C204.779 97 205.955 97.966 206.277 99.422L205.157 99.618C204.919 98.638 204.177 98.008 203.099 98.008C201.755 98.008 200.775 99.016 200.775 100.514C200.775 102.054 201.741 103.104 203.099 103.104C204.261 103.104 205.003 102.418 205.213 101.41L206.319 101.592C206.067 103.034 204.807 104.112 203.099 104.112C201.097 104.112 199.627 102.586 199.627 100.514ZM209.41 104V98.064H207.016V97.112H212.91V98.064H210.516V104H209.41ZM214.337 104V97.112H215.429V99.422H217.277C218.733 99.422 219.699 100.332 219.699 101.718C219.699 103.09 218.733 104 217.277 104H214.337ZM217.081 100.388H215.429V103.048H217.081C218.047 103.048 218.551 102.572 218.551 101.718C218.551 100.85 218.047 100.388 217.081 100.388ZM221.328 106.1H220.432L221.09 102.6H222.42L221.328 106.1ZM231.555 104L231.527 102.628C230.981 103.566 230.043 104.112 228.923 104.112C227.621 104.112 226.753 103.384 226.753 102.208C226.753 100.878 227.859 100.332 229.511 99.912L231.499 99.436C231.387 98.428 230.715 97.938 229.721 97.938C228.713 97.938 228.027 98.386 227.775 99.324L226.739 99.128C227.061 97.798 228.181 97 229.735 97C231.471 97 232.563 97.98 232.563 99.688V104H231.555ZM227.901 102.11C227.901 102.74 228.335 103.174 229.091 103.174C230.323 103.174 231.513 102.222 231.513 100.486V100.332L229.525 100.822C228.475 101.088 227.901 101.424 227.901 102.11ZM240.808 97C242.866 97 244.364 98.498 244.364 100.542C244.364 102.614 242.866 104.112 240.808 104.112C238.75 104.112 237.252 102.614 237.252 100.542C237.252 98.498 238.75 97 240.808 97ZM240.808 98.008C239.394 98.008 238.4 99.044 238.4 100.542C238.4 102.054 239.394 103.104 240.808 103.104C242.222 103.104 243.216 102.054 243.216 100.542C243.216 99.044 242.222 98.008 240.808 98.008ZM245.565 100.514C245.565 98.484 247.049 97 249.037 97C250.717 97 251.893 97.966 252.215 99.422L251.095 99.618C250.857 98.638 250.115 98.008 249.037 98.008C247.693 98.008 246.713 99.016 246.713 100.514C246.713 102.054 247.679 103.104 249.037 103.104C250.199 103.104 250.941 102.418 251.151 101.41L252.257 101.592C252.005 103.034 250.745 104.112 249.037 104.112C247.035 104.112 245.565 102.586 245.565 100.514ZM255.348 104V98.064H252.954V97.112H258.848V98.064H256.454V104H255.348ZM264.545 104L264.517 102.628C263.971 103.566 263.033 104.112 261.913 104.112C260.611 104.112 259.743 103.384 259.743 102.208C259.743 100.878 260.849 100.332 262.501 99.912L264.489 99.436C264.377 98.428 263.705 97.938 262.711 97.938C261.703 97.938 261.017 98.386 260.765 99.324L259.729 99.128C260.051 97.798 261.171 97 262.725 97C264.461 97 265.553 97.98 265.553 99.688V104H264.545ZM260.891 102.11C260.891 102.74 261.325 103.174 262.081 103.174C263.313 103.174 264.503 102.222 264.503 100.486V100.332L262.515 100.822C261.465 101.088 260.891 101.424 260.891 102.11ZM267.712 104V97.112H270.82C272.052 97.112 272.878 97.77 272.878 98.876C272.878 99.604 272.5 100.136 271.87 100.388C272.696 100.598 273.186 101.186 273.186 102.068C273.186 103.314 272.164 104 270.96 104H267.712ZM270.666 98.022H268.79V100.01H270.736C271.422 100.01 271.8 99.646 271.8 99.002C271.8 98.344 271.408 98.022 270.666 98.022ZM270.708 103.076C271.59 103.076 272.052 102.698 272.052 101.984C272.052 101.284 271.618 100.906 270.806 100.906H268.79V103.076H270.708ZM274.959 104V97.112H276.051V103.048H278.781V97.112H279.873V103.048H282.603V97.112H283.709V104H274.959ZM285.992 104V97.112H287.042V102.39L290.71 97.112H291.76V104H290.71V98.722L287.042 104H285.992ZM297.04 104.112C294.884 104.112 293.512 102.6 293.512 100.514C293.512 98.484 294.968 97 296.97 97C298.902 97 300.274 98.33 300.274 100.248C300.274 100.416 300.246 100.626 300.232 100.808H294.66C294.786 102.264 295.696 103.132 297.04 103.132C298.188 103.132 298.86 102.586 299.14 101.704L300.204 101.9C299.868 103.258 298.664 104.112 297.04 104.112ZM296.97 97.952C295.864 97.952 294.926 98.652 294.702 99.884H299.098C299.014 98.736 298.132 97.952 296.97 97.952ZM301.497 100.514C301.497 98.484 302.981 97 304.969 97C306.649 97 307.825 97.966 308.147 99.422L307.027 99.618C306.789 98.638 306.047 98.008 304.969 98.008C303.625 98.008 302.645 99.016 302.645 100.514C302.645 102.054 303.611 103.104 304.969 103.104C306.131 103.104 306.873 102.418 307.083 101.41L308.189 101.592C307.937 103.034 306.677 104.112 304.969 104.112C302.967 104.112 301.497 102.586 301.497 100.514ZM309.389 99.226C309.389 97.994 310.257 97.112 311.545 97.112H314.891V104H313.813V101.298H312.273L310.257 104H309.025L311.097 101.228C310.103 101.06 309.389 100.332 309.389 99.226ZM311.839 100.374H313.813V98.022H311.853C311.055 98.022 310.537 98.4 310.537 99.198C310.537 99.996 311.041 100.374 311.839 100.374ZM20.34 126.112C18.1 126.112 16.714 124.53 16.714 121.422C16.714 117.95 17.904 116.018 20.928 115.71L22.034 115.584C22.552 115.542 22.832 115.486 23.224 115.388L23.35 116.34C22.958 116.466 22.482 116.522 22.034 116.578L20.886 116.704C19.038 116.914 17.946 117.88 17.792 120.512C18.506 119.35 19.696 119.014 20.648 119.014C22.51 119.014 23.896 120.456 23.896 122.542C23.896 124.628 22.482 126.112 20.34 126.112ZM20.382 119.98C18.94 119.98 17.932 121.044 17.932 122.542C17.932 124.054 18.926 125.104 20.34 125.104C21.754 125.104 22.748 124.054 22.748 122.542C22.748 121.044 21.824 119.98 20.382 119.98ZM24.5202 119.112H25.7522L28.1322 124.544L30.2602 119.112H31.4222L27.4042 129.08H26.2562L27.5162 125.944L24.5202 119.112ZM31.5205 128.17V125.048H32.1645C32.6545 124.572 32.8785 123.844 32.9765 121.492L33.0605 119.112H37.9745V125.048H38.9125V128.17H37.8485V126H32.5705V128.17H31.5205ZM34.0405 121.45C33.9705 123.27 33.7605 124.39 33.3125 125.048H36.8825V120.064H34.0965L34.0405 121.45ZM43.3859 126.112C41.2299 126.112 39.8579 124.6 39.8579 122.514C39.8579 120.484 41.3139 119 43.3159 119C45.2479 119 46.6199 120.33 46.6199 122.248C46.6199 122.416 46.5919 122.626 46.5779 122.808H41.0059C41.1319 124.264 42.0419 125.132 43.3859 125.132C44.5339 125.132 45.2059 124.586 45.4859 123.704L46.5499 123.9C46.2139 125.258 45.0099 126.112 43.3859 126.112ZM43.3159 119.952C42.2099 119.952 41.2719 120.652 41.0479 121.884H45.4439C45.3599 120.736 44.4779 119.952 43.3159 119.952ZM48.3882 126V119.112H49.5222L51.9722 122.332L54.4362 119.112H55.5702V126H54.5202V120.568L52.0702 123.774H51.8182L49.4382 120.624V126H48.3882ZM60.393 122.514C60.393 120.484 61.877 119 63.865 119C65.545 119 66.721 119.966 67.043 121.422L65.923 121.618C65.685 120.638 64.943 120.008 63.865 120.008C62.521 120.008 61.541 121.016 61.541 122.514C61.541 124.054 62.507 125.104 63.865 125.104C65.027 125.104 65.769 124.418 65.979 123.41L67.085 123.592C66.833 125.034 65.573 126.112 63.865 126.112C61.863 126.112 60.393 124.586 60.393 122.514ZM68.65 126V119.112H74.39V126H73.284V120.064H69.742V126H68.65ZM76.689 126V119.112H77.739V124.39L81.407 119.112H82.457V126H81.407V120.722L77.739 126H76.689ZM84.2094 122.514C84.2094 120.484 85.6934 119 87.6814 119C89.3614 119 90.5374 119.966 90.8594 121.422L89.7394 121.618C89.5014 120.638 88.7594 120.008 87.6814 120.008C86.3374 120.008 85.3574 121.016 85.3574 122.514C85.3574 124.054 86.3234 125.104 87.6814 125.104C88.8434 125.104 89.5854 124.418 89.7954 123.41L90.9014 123.592C90.6494 125.034 89.3894 126.112 87.6814 126.112C85.6794 126.112 84.2094 124.586 84.2094 122.514ZM92.4664 126V119.112H93.5584V121.422H95.3644C96.8204 121.422 97.7864 122.332 97.7864 123.718C97.7864 125.09 96.8204 126 95.3644 126H92.4664ZM98.6544 126V119.112H99.7464V126H98.6544ZM95.1684 122.388H93.5584V125.048H95.1684C96.1344 125.048 96.6384 124.572 96.6384 123.718C96.6384 122.85 96.1344 122.388 95.1684 122.388ZM102.037 126V119.112H105.145C106.377 119.112 107.203 119.77 107.203 120.876C107.203 121.604 106.825 122.136 106.195 122.388C107.021 122.598 107.511 123.186 107.511 124.068C107.511 125.314 106.489 126 105.285 126H102.037ZM104.991 120.022H103.115V122.01H105.061C105.747 122.01 106.125 121.646 106.125 121.002C106.125 120.344 105.733 120.022 104.991 120.022ZM105.033 125.076C105.915 125.076 106.377 124.698 106.377 123.984C106.377 123.284 105.943 122.906 105.131 122.906H103.115V125.076H105.033ZM113.553 126L113.525 124.628C112.979 125.566 112.041 126.112 110.921 126.112C109.619 126.112 108.751 125.384 108.751 124.208C108.751 122.878 109.857 122.332 111.509 121.912L113.497 121.436C113.385 120.428 112.713 119.938 111.719 119.938C110.711 119.938 110.025 120.386 109.773 121.324L108.737 121.128C109.059 119.798 110.179 119 111.733 119C113.469 119 114.561 119.98 114.561 121.688V126H113.553ZM109.899 124.11C109.899 124.74 110.333 125.174 111.089 125.174C112.321 125.174 113.511 124.222 113.511 122.486V122.332L111.523 122.822C110.473 123.088 109.899 123.424 109.899 124.11ZM118.246 126V120.064H115.852V119.112H121.746V120.064H119.352V126H118.246ZM123.173 126V119.112H124.265V121.422H126.113C127.569 121.422 128.535 122.332 128.535 123.718C128.535 125.09 127.569 126 126.113 126H123.173ZM125.917 122.388H124.265V125.048H125.917C126.883 125.048 127.387 124.572 127.387 123.718C127.387 122.85 126.883 122.388 125.917 122.388ZM133.072 119.112H134.164V121.856H135.186L137.538 119.112H138.84L136.054 122.346L139.078 126H137.734L135.13 122.92H134.164V126H133.072V119.112ZM144.561 126L144.533 124.628C143.987 125.566 143.049 126.112 141.929 126.112C140.627 126.112 139.759 125.384 139.759 124.208C139.759 122.878 140.865 122.332 142.517 121.912L144.505 121.436C144.393 120.428 143.721 119.938 142.727 119.938C141.719 119.938 141.033 120.386 140.781 121.324L139.745 121.128C140.067 119.798 141.187 119 142.741 119C144.477 119 145.569 119.98 145.569 121.688V126H144.561ZM140.907 124.11C140.907 124.74 141.341 125.174 142.097 125.174C143.329 125.174 144.519 124.222 144.519 122.486V122.332L142.531 122.822C141.481 123.088 140.907 123.424 140.907 124.11ZM148.092 119.112L150.038 121.898H150.948V119.112H151.998V121.898H152.894L154.868 119.112H156.1L153.734 122.332L156.282 126H155.022L152.852 122.878H151.998V126H150.948V122.878H150.08L147.896 126H146.678L149.198 122.402L146.846 119.112H148.092ZM156.741 128.17V125.048H157.385C157.875 124.572 158.099 123.844 158.197 121.492L158.281 119.112H163.195V125.048H164.133V128.17H163.069V126H157.791V128.17H156.741ZM159.261 121.45C159.191 123.27 158.981 124.39 158.533 125.048H162.103V120.064H159.317L159.261 121.45ZM165.625 126V119.112H166.717V121.422H168.523C169.979 121.422 170.945 122.332 170.945 123.718C170.945 125.09 169.979 126 168.523 126H165.625ZM171.813 126V119.112H172.905V126H171.813ZM168.327 122.388H166.717V125.048H168.327C169.293 125.048 169.797 124.572 169.797 123.718C169.797 122.85 169.293 122.388 168.327 122.388ZM178.177 126.112C176.021 126.112 174.649 124.6 174.649 122.514C174.649 120.484 176.105 119 178.107 119C180.039 119 181.411 120.33 181.411 122.248C181.411 122.416 181.383 122.626 181.369 122.808H175.797C175.923 124.264 176.833 125.132 178.177 125.132C179.325 125.132 179.997 124.586 180.277 123.704L181.341 123.9C181.005 125.258 179.801 126.112 178.177 126.112ZM178.107 119.952C177.001 119.952 176.063 120.652 175.839 121.884H180.235C180.151 120.736 179.269 119.952 178.107 119.952ZM185.233 128.17V125.048H185.877C186.367 124.572 186.591 123.844 186.689 121.492L186.773 119.112H191.687V125.048H192.625V128.17H191.561V126H186.283V128.17H185.233ZM187.753 121.45C187.683 123.27 187.473 124.39 187.025 125.048H190.595V120.064H187.809L187.753 121.45ZM194.117 126V119.112H197.225C198.457 119.112 199.283 119.77 199.283 120.876C199.283 121.604 198.905 122.136 198.275 122.388C199.101 122.598 199.591 123.186 199.591 124.068C199.591 125.314 198.569 126 197.365 126H194.117ZM197.071 120.022H195.195V122.01H197.141C197.827 122.01 198.205 121.646 198.205 121.002C198.205 120.344 197.813 120.022 197.071 120.022ZM197.113 125.076C197.995 125.076 198.457 124.698 198.457 123.984C198.457 123.284 198.023 122.906 197.211 122.906H195.195V125.076H197.113ZM204.345 126.112C202.189 126.112 200.817 124.6 200.817 122.514C200.817 120.484 202.273 119 204.275 119C206.207 119 207.579 120.33 207.579 122.248C207.579 122.416 207.551 122.626 207.537 122.808H201.965C202.091 124.264 203.001 125.132 204.345 125.132C205.493 125.132 206.165 124.586 206.445 123.704L207.509 123.9C207.173 125.258 205.969 126.112 204.345 126.112ZM204.275 119.952C203.169 119.952 202.231 120.652 202.007 121.884H206.403C206.319 120.736 205.437 119.952 204.275 119.952ZM212.423 126V119.112H213.515V121.884H217.141V119.112H218.247V126H217.141V122.85H213.515V126H212.423ZM223.526 126.112C221.37 126.112 219.998 124.6 219.998 122.514C219.998 120.484 221.454 119 223.456 119C225.388 119 226.76 120.33 226.76 122.248C226.76 122.416 226.732 122.626 226.718 122.808H221.146C221.272 124.264 222.182 125.132 223.526 125.132C224.674 125.132 225.346 124.586 225.626 123.704L226.69 123.9C226.354 125.258 225.15 126.112 223.526 126.112ZM223.456 119.952C222.35 119.952 221.412 120.652 221.188 121.884H225.584C225.5 120.736 224.618 119.952 223.456 119.952ZM227.507 128.17V125.048H228.151C228.641 124.572 228.865 123.844 228.963 121.492L229.047 119.112H233.961V125.048H234.899V128.17H233.835V126H228.557V128.17H227.507ZM230.027 121.45C229.957 123.27 229.747 124.39 229.299 125.048H232.869V120.064H230.083L230.027 121.45ZM239.372 126.112C237.216 126.112 235.844 124.6 235.844 122.514C235.844 120.484 237.3 119 239.302 119C241.234 119 242.606 120.33 242.606 122.248C242.606 122.416 242.578 122.626 242.564 122.808H236.992C237.118 124.264 238.028 125.132 239.372 125.132C240.52 125.132 241.192 124.586 241.472 123.704L242.536 123.9C242.2 125.258 240.996 126.112 239.372 126.112ZM239.302 119.952C238.196 119.952 237.258 120.652 237.034 121.884H241.43C241.346 120.736 240.464 119.952 239.302 119.952ZM243.409 125.076C243.479 125.09 243.549 125.104 243.661 125.104C244.249 125.104 244.711 124.656 244.837 121.548L244.935 119.112H249.765V126H248.659V120.064H245.971L245.915 121.66C245.761 125.328 244.977 126.112 243.801 126.112C243.577 126.112 243.451 126.084 243.269 126.014L243.409 125.076ZM252.058 126V119.112H253.108V124.39L256.776 119.112H257.826V126H256.776V120.722L253.108 126H252.058Z" fill="black" fill-opacity="0.6"/>
<rect opacity="0.08" x="16" y="148" width="32" height="32" rx="4" fill="#6F99C6"/>
<path fill-rule="evenodd" clip-rule="evenodd" d="M34.4 164C34.4 163.558 34.7581 163.2 35.2 163.2C36.5218 163.2 37.6 164.278 37.6 165.6C37.6 166.922 36.5218 168 35.2 168C34.7581 168 34.4 167.642 34.4 167.2C34.4 166.758 34.7581 166.4 35.2 166.4C35.6381 166.4 36 166.038 36 165.6C36 165.162 35.6381 164.8 35.2 164.8C34.7581 164.8 34.4 164.442 34.4 164Z" fill="#6F99C6"/>
<path fill-rule="evenodd" clip-rule="evenodd" d="M39.4666 168.8V159.2C39.4666 158.611 38.9891 158.133 38.4 158.133H25.6C25.0109 158.133 24.5333 158.611 24.5333 159.2V168.8C24.5333 169.389 25.0109 169.867 25.6 169.867H38.4C38.9891 169.867 39.4666 169.389 39.4666 168.8ZM25.6 156.533C24.1272 156.533 22.9333 157.727 22.9333 159.2V168.8C22.9333 170.273 24.1272 171.467 25.6 171.467H38.4C39.8727 171.467 41.0666 170.273 41.0666 168.8V159.2C41.0666 157.727 39.8727 156.533 38.4 156.533H25.6Z" fill="black"/>
<path fill-rule="evenodd" clip-rule="evenodd" d="M23.4666 160.533C23.4666 160.091 23.8248 159.733 24.2666 159.733L37.0666 159.733C37.5085 159.733 37.8666 160.091 37.8666 160.533C37.8666 160.975 37.5085 161.333 37.0666 161.333L24.2666 161.333C23.8248 161.333 23.4666 160.975 23.4666 160.533Z" fill="black"/>
<path d="M62.786 164.03V169H61.596V158.5H62.786V162.924H64.326L68.092 158.5H69.534L65.306 163.442L69.646 169H68.218L64.284 164.03H62.786ZM75.1524 169L75.1244 167.628C74.5784 168.566 73.6404 169.112 72.5204 169.112C71.2184 169.112 70.3504 168.384 70.3504 167.208C70.3504 165.878 71.4564 165.332 73.1084 164.912L75.0964 164.436C74.9844 163.428 74.3124 162.938 73.3184 162.938C72.3104 162.938 71.6244 163.386 71.3724 164.324L70.3364 164.128C70.6584 162.798 71.7784 162 73.3324 162C75.0684 162 76.1604 162.98 76.1604 164.688V169H75.1524ZM71.4984 167.11C71.4984 167.74 71.9324 168.174 72.6884 168.174C73.9204 168.174 75.1104 167.222 75.1104 165.486V165.332L73.1224 165.822C72.0724 166.088 71.4984 166.424 71.4984 167.11ZM78.3199 162.112H79.4119V164.856H80.4339L82.7859 162.112H84.0879L81.3019 165.346L84.3259 169H82.9819L80.3779 165.92H79.4119V169H78.3199V162.112ZM91.6248 162C93.6828 162 95.1808 163.498 95.1808 165.542C95.1808 167.614 93.6828 169.112 91.6248 169.112C89.5668 169.112 88.0688 167.614 88.0688 165.542C88.0688 163.498 89.5668 162 91.6248 162ZM91.6248 163.008C90.2108 163.008 89.2168 164.044 89.2168 165.542C89.2168 167.054 90.2108 168.104 91.6248 168.104C93.0388 168.104 94.0328 167.054 94.0328 165.542C94.0328 164.044 93.0388 163.008 91.6248 163.008ZM100.119 169.112C97.8793 169.112 96.4933 167.53 96.4933 164.422C96.4933 160.95 97.6833 159.018 100.707 158.71L101.813 158.584C102.331 158.542 102.611 158.486 103.003 158.388L103.129 159.34C102.737 159.466 102.261 159.522 101.813 159.578L100.665 159.704C98.8173 159.914 97.7253 160.88 97.5713 163.512C98.2853 162.35 99.4753 162.014 100.427 162.014C102.289 162.014 103.675 163.456 103.675 165.542C103.675 167.628 102.261 169.112 100.119 169.112ZM100.161 162.98C98.7193 162.98 97.7113 164.044 97.7113 165.542C97.7113 167.054 98.7053 168.104 100.119 168.104C101.533 168.104 102.527 167.054 102.527 165.542C102.527 164.044 101.603 162.98 100.161 162.98ZM105.431 169V162.112H106.523V164.422H108.329C109.785 164.422 110.751 165.332 110.751 166.718C110.751 168.09 109.785 169 108.329 169H105.431ZM111.619 169V162.112H112.711V169H111.619ZM108.133 165.388H106.523V168.048H108.133C109.099 168.048 109.603 167.572 109.603 166.718C109.603 165.85 109.099 165.388 108.133 165.388ZM117.13 166.438C115.352 166.438 114.484 165.598 114.484 164.086V162.112H115.576V163.946C115.576 164.968 116.178 165.472 117.312 165.472C117.928 165.472 118.362 165.388 118.894 165.234V162.112H120V169H118.894V166.172C118.32 166.34 117.816 166.438 117.13 166.438ZM122.302 169V162.112H123.394V164.884H127.02V162.112H128.126V169H127.02V165.85H123.394V169H122.302ZM134.693 169L134.665 167.628C134.119 168.566 133.181 169.112 132.061 169.112C130.759 169.112 129.891 168.384 129.891 167.208C129.891 165.878 130.997 165.332 132.649 164.912L134.637 164.436C134.525 163.428 133.853 162.938 132.859 162.938C131.851 162.938 131.165 163.386 130.913 164.324L129.877 164.128C130.199 162.798 131.319 162 132.873 162C134.609 162 135.701 162.98 135.701 164.688V169H134.693ZM131.039 167.11C131.039 167.74 131.473 168.174 132.229 168.174C133.461 168.174 134.651 167.222 134.651 165.486V165.332L132.663 165.822C131.613 166.088 131.039 166.424 131.039 167.11ZM137.497 164.226C137.497 162.994 138.365 162.112 139.653 162.112H142.999V169H141.921V166.298H140.381L138.365 169H137.133L139.205 166.228C138.211 166.06 137.497 165.332 137.497 164.226ZM139.947 165.374H141.921V163.022H139.961C139.163 163.022 138.645 163.4 138.645 164.198C138.645 164.996 139.149 165.374 139.947 165.374ZM151.385 162C153.443 162 154.941 163.498 154.941 165.542C154.941 167.614 153.443 169.112 151.385 169.112C149.327 169.112 147.829 167.614 147.829 165.542C147.829 163.498 149.327 162 151.385 162ZM151.385 163.008C149.971 163.008 148.977 164.044 148.977 165.542C148.977 167.054 149.971 168.104 151.385 168.104C152.799 168.104 153.793 167.054 153.793 165.542C153.793 164.044 152.799 163.008 151.385 163.008ZM156.687 169V162.112H162.427V169H161.321V163.064H157.779V169H156.687ZM163.76 168.076C163.83 168.09 163.9 168.104 164.012 168.104C164.6 168.104 165.062 167.656 165.188 164.548L165.286 162.112H170.116V169H169.01V163.064H166.322L166.266 164.66C166.112 168.328 165.328 169.112 164.152 169.112C163.928 169.112 163.802 169.084 163.62 169.014L163.76 168.076ZM176.68 169L176.652 167.628C176.106 168.566 175.168 169.112 174.048 169.112C172.746 169.112 171.878 168.384 171.878 167.208C171.878 165.878 172.984 165.332 174.636 164.912L176.624 164.436C176.512 163.428 175.84 162.938 174.846 162.938C173.838 162.938 173.152 163.386 172.9 164.324L171.864 164.128C172.186 162.798 173.306 162 174.86 162C176.596 162 177.688 162.98 177.688 164.688V169H176.68ZM173.026 167.11C173.026 167.74 173.46 168.174 174.216 168.174C175.448 168.174 176.638 167.222 176.638 165.486V165.332L174.65 165.822C173.6 166.088 173.026 166.424 173.026 167.11ZM181.373 169V163.064H178.979V162.112H184.873V163.064H182.479V169H181.373ZM190.57 169L190.542 167.628C189.996 168.566 189.058 169.112 187.938 169.112C186.636 169.112 185.768 168.384 185.768 167.208C185.768 165.878 186.874 165.332 188.526 164.912L190.514 164.436C190.402 163.428 189.73 162.938 188.736 162.938C187.728 162.938 187.042 163.386 186.79 164.324L185.754 164.128C186.076 162.798 187.196 162 188.75 162C190.486 162 191.578 162.98 191.578 164.688V169H190.57ZM186.916 167.11C186.916 167.74 187.35 168.174 188.106 168.174C189.338 168.174 190.528 167.222 190.528 165.486V165.332L188.54 165.822C187.49 166.088 186.916 166.424 186.916 167.11ZM196.814 162.112H197.906V164.856H198.928L201.28 162.112H202.582L199.796 165.346L202.82 169H201.476L198.872 165.92H197.906V169H196.814V162.112ZM208.303 169L208.275 167.628C207.729 168.566 206.791 169.112 205.671 169.112C204.369 169.112 203.501 168.384 203.501 167.208C203.501 165.878 204.607 165.332 206.259 164.912L208.247 164.436C208.135 163.428 207.463 162.938 206.469 162.938C205.461 162.938 204.775 163.386 204.523 164.324L203.487 164.128C203.809 162.798 204.929 162 206.483 162C208.219 162 209.311 162.98 209.311 164.688V169H208.303ZM204.649 167.11C204.649 167.74 205.083 168.174 205.839 168.174C207.071 168.174 208.261 167.222 208.261 165.486V165.332L206.273 165.822C205.223 166.088 204.649 166.424 204.649 167.11ZM211.47 162.112H212.52L212.548 163.302C213.122 162.49 214.004 162 215.068 162C216.972 162 218.414 163.498 218.414 165.542C218.414 167.614 216.972 169.112 215.068 169.112C214.018 169.112 213.136 168.636 212.562 167.838V172.08H211.47V162.112ZM214.914 163.008C213.528 163.008 212.562 164.044 212.562 165.542C212.562 167.054 213.528 168.104 214.914 168.104C216.286 168.104 217.266 167.054 217.266 165.542C217.266 164.044 216.286 163.008 214.914 163.008ZM221.692 169V163.064H219.298V162.112H225.192V163.064H222.798V169H221.692ZM229.437 162C231.495 162 232.993 163.498 232.993 165.542C232.993 167.614 231.495 169.112 229.437 169.112C227.379 169.112 225.881 167.614 225.881 165.542C225.881 163.498 227.379 162 229.437 162ZM229.437 163.008C228.023 163.008 227.029 164.044 227.029 165.542C227.029 167.054 228.023 168.104 229.437 168.104C230.851 168.104 231.845 167.054 231.845 165.542C231.845 164.044 230.851 163.008 229.437 163.008ZM237.68 160.082C238.324 160.082 238.786 159.746 238.8 159.032H239.766C239.766 160.222 238.912 160.95 237.68 160.95C236.448 160.95 235.608 160.222 235.594 159.032H236.574C236.574 159.746 237.05 160.082 237.68 160.082ZM234.74 169V162.112H235.79V167.39L239.458 162.112H240.508V169H239.458V163.722L235.79 169H234.74Z" fill="black"/>
<rect opacity="0.08" x="16" y="192" width="32" height="32" rx="4" fill="#B182BC"/>
<path fill-rule="evenodd" clip-rule="evenodd" d="M32 208.886C32 209.868 31.204 210.664 30.2222 210.664H28.4444C28.4444 209.682 29.2403 208.886 30.2222 208.886H32Z" fill="#B182BC"/>
<path fill-rule="evenodd" clip-rule="evenodd" d="M35.5564 205.333C35.5564 206.315 34.7605 207.111 33.7786 207.111H28.4444C28.4444 206.129 29.2403 205.333 30.2222 205.333H35.5564Z" fill="#B182BC"/>
<path fill-rule="evenodd" clip-rule="evenodd" d="M39.111 199.111V214.222C39.111 215.695 37.9171 216.889 36.4444 216.889H24.8889V201.778C24.8889 200.305 26.0828 199.111 27.5555 199.111L39.111 199.111ZM37.3333 200.889L27.5555 200.889C27.0646 200.889 26.6666 201.287 26.6666 201.778V215.111H36.4444C36.9353 215.111 37.3333 214.713 37.3333 214.222V200.889Z" fill="black"/>
<path fill-rule="evenodd" clip-rule="evenodd" d="M35.5555 199.111V201.778C35.5555 202.76 34.7596 203.556 33.7777 203.556H30.2222C29.2403 203.556 28.4444 202.76 28.4444 201.778V199.111L30.2222 199.111V201.778L33.7777 201.778V199.111L35.5555 199.111Z" fill="black"/>
<path d="M61.596 213V202.5H68.022V203.592H62.786V206.756H65.46C67.812 206.756 68.89 208.156 68.89 209.878C68.89 211.81 67.602 213 65.46 213H61.596ZM65.488 207.806H62.786V211.95H65.488C66.832 211.95 67.672 211.18 67.672 209.878C67.672 208.604 66.818 207.806 65.488 207.806ZM73.5909 213.112C71.4349 213.112 70.0629 211.6 70.0629 209.514C70.0629 207.484 71.5189 206 73.5209 206C75.4529 206 76.8249 207.33 76.8249 209.248C76.8249 209.416 76.7969 209.626 76.7829 209.808H71.2109C71.3369 211.264 72.2469 212.132 73.5909 212.132C74.7389 212.132 75.4109 211.586 75.6909 210.704L76.7549 210.9C76.4189 212.258 75.2149 213.112 73.5909 213.112ZM73.5209 206.952C72.4149 206.952 71.4769 207.652 71.2529 208.884H75.6489C75.5649 207.736 74.6829 206.952 73.5209 206.952ZM80.7493 213.112C79.2233 213.112 78.1873 212.468 77.8233 211.292L78.9013 210.97C79.1533 211.852 79.9093 212.16 80.7633 212.16C81.7573 212.16 82.4713 211.782 82.4713 210.97C82.4713 210.256 81.8973 209.92 81.1833 209.92H79.9513V208.982H81.1553C81.8413 208.982 82.3733 208.618 82.3733 207.974C82.3733 207.316 81.8413 206.938 80.8333 206.938C79.8393 206.938 79.2373 207.344 79.0413 208.1L78.0053 207.862C78.3133 206.7 79.3353 206 80.8753 206C82.4853 206 83.4933 206.756 83.4933 207.89C83.4933 208.59 83.0733 209.136 82.3173 209.402C83.1293 209.612 83.6193 210.186 83.6193 211.026C83.6193 212.44 82.3173 213.112 80.7493 213.112ZM88.4781 206.112H89.5701V208.856H90.5921L92.9441 206.112H94.2461L91.4601 209.346L94.4841 213H93.1401L90.5361 209.92H89.5701V213H88.4781V206.112ZM95.6968 206.112H96.7468L96.7748 207.302C97.3488 206.49 98.2308 206 99.2948 206C101.199 206 102.641 207.498 102.641 209.542C102.641 211.614 101.199 213.112 99.2948 213.112C98.2448 213.112 97.3628 212.636 96.7888 211.838V216.08H95.6968V206.112ZM99.1408 207.008C97.7548 207.008 96.7888 208.044 96.7888 209.542C96.7888 211.054 97.7548 212.104 99.1408 212.104C100.513 212.104 101.493 211.054 101.493 209.542C101.493 208.044 100.513 207.008 99.1408 207.008ZM107.374 213.112C105.218 213.112 103.846 211.6 103.846 209.514C103.846 207.484 105.302 206 107.304 206C109.236 206 110.608 207.33 110.608 209.248C110.608 209.416 110.58 209.626 110.566 209.808H104.994C105.12 211.264 106.03 212.132 107.374 212.132C108.522 212.132 109.194 211.586 109.474 210.704L110.538 210.9C110.202 212.258 108.998 213.112 107.374 213.112ZM107.304 206.952C106.198 206.952 105.26 207.652 105.036 208.884H109.432C109.348 207.736 108.466 206.952 107.304 206.952ZM111.355 215.17V212.048H111.999C112.489 211.572 112.713 210.844 112.811 208.492L112.895 206.112H117.809V212.048H118.747V215.17H117.683V213H112.405V215.17H111.355ZM113.875 208.45C113.805 210.27 113.595 211.39 113.147 212.048H116.717V207.064H113.931L113.875 208.45ZM120.238 213V206.112H121.288V211.39L124.956 206.112H126.006V213H124.956V207.722L121.288 213H120.238ZM129.83 213V207.064H127.436V206.112H133.33V207.064H130.936V213H129.83ZM134.757 213V206.112H135.849V208.884H139.475V206.112H140.581V213H139.475V209.85H135.849V213H134.757ZM145.888 206C147.946 206 149.444 207.498 149.444 209.542C149.444 211.614 147.946 213.112 145.888 213.112C143.83 213.112 142.332 211.614 142.332 209.542C142.332 207.498 143.83 206 145.888 206ZM145.888 207.008C144.474 207.008 143.48 208.044 143.48 209.542C143.48 211.054 144.474 212.104 145.888 212.104C147.302 212.104 148.296 211.054 148.296 209.542C148.296 208.044 147.302 207.008 145.888 207.008ZM151.191 213V206.112H155.769V207.064H152.283V213H151.191ZM160.203 206C162.261 206 163.759 207.498 163.759 209.542C163.759 211.614 162.261 213.112 160.203 213.112C158.145 213.112 156.647 211.614 156.647 209.542C156.647 207.498 158.145 206 160.203 206ZM160.203 207.008C158.789 207.008 157.795 208.044 157.795 209.542C157.795 211.054 158.789 212.104 160.203 212.104C161.617 212.104 162.611 211.054 162.611 209.542C162.611 208.044 161.617 207.008 160.203 207.008ZM167.56 215.17V212.048H168.204C168.694 211.572 168.918 210.844 169.016 208.492L169.1 206.112H174.014V212.048H174.952V215.17H173.888V213H168.61V215.17H167.56ZM170.08 208.45C170.01 210.27 169.8 211.39 169.352 212.048H172.922V207.064H170.136L170.08 208.45ZM179.453 206C181.511 206 183.009 207.498 183.009 209.542C183.009 211.614 181.511 213.112 179.453 213.112C177.395 213.112 175.897 211.614 175.897 209.542C175.897 207.498 177.395 206 179.453 206ZM179.453 207.008C178.039 207.008 177.045 208.044 177.045 209.542C177.045 211.054 178.039 212.104 179.453 212.104C180.867 212.104 181.861 211.054 181.861 209.542C181.861 208.044 180.867 207.008 179.453 207.008ZM184.755 213V206.112H189.333V207.064H185.847V213H184.755ZM193.767 206C195.825 206 197.323 207.498 197.323 209.542C197.323 211.614 195.825 213.112 193.767 213.112C191.709 213.112 190.211 211.614 190.211 209.542C190.211 207.498 191.709 206 193.767 206ZM193.767 207.008C192.353 207.008 191.359 208.044 191.359 209.542C191.359 211.054 192.353 212.104 193.767 212.104C195.181 212.104 196.175 211.054 196.175 209.542C196.175 208.044 195.181 207.008 193.767 207.008ZM199.07 213V206.112H202.178C203.41 206.112 204.236 206.77 204.236 207.876C204.236 208.604 203.858 209.136 203.228 209.388C204.054 209.598 204.544 210.186 204.544 211.068C204.544 212.314 203.522 213 202.318 213H199.07ZM202.024 207.022H200.148V209.01H202.094C202.78 209.01 203.158 208.646 203.158 208.002C203.158 207.344 202.766 207.022 202.024 207.022ZM202.066 212.076C202.948 212.076 203.41 211.698 203.41 210.984C203.41 210.284 202.976 209.906 202.164 209.906H200.148V212.076H202.066ZM209.326 206C211.384 206 212.882 207.498 212.882 209.542C212.882 211.614 211.384 213.112 209.326 213.112C207.268 213.112 205.77 211.614 205.77 209.542C205.77 207.498 207.268 206 209.326 206ZM209.326 207.008C207.912 207.008 206.918 208.044 206.918 209.542C206.918 211.054 207.912 212.104 209.326 212.104C210.74 212.104 211.734 211.054 211.734 209.542C211.734 208.044 210.74 207.008 209.326 207.008ZM214.628 206.112H215.678L215.706 207.302C216.28 206.49 217.162 206 218.226 206C220.13 206 221.572 207.498 221.572 209.542C221.572 211.614 220.13 213.112 218.226 213.112C217.176 213.112 216.294 212.636 215.72 211.838V216.08H214.628V206.112ZM218.072 207.008C216.686 207.008 215.72 208.044 215.72 209.542C215.72 211.054 216.686 212.104 218.072 212.104C219.444 212.104 220.424 211.054 220.424 209.542C220.424 208.044 219.444 207.008 218.072 207.008ZM227.594 213L227.566 211.628C227.02 212.566 226.082 213.112 224.962 213.112C223.66 213.112 222.792 212.384 222.792 211.208C222.792 209.878 223.898 209.332 225.55 208.912L227.538 208.436C227.426 207.428 226.754 206.938 225.76 206.938C224.752 206.938 224.066 207.386 223.814 208.324L222.778 208.128C223.1 206.798 224.22 206 225.774 206C227.51 206 228.602 206.98 228.602 208.688V213H227.594ZM223.94 211.11C223.94 211.74 224.374 212.174 225.13 212.174C226.362 212.174 227.552 211.222 227.552 209.486V209.332L225.564 209.822C224.514 210.088 223.94 210.424 223.94 211.11Z" fill="black"/>
<rect x="16" y="240" width="343" height="100" rx="10" fill="#F6F7F8"/>
<path d="M34.458 259.5C34.458 256.884 36.258 254.904 38.802 254.904C40.866 254.904 42.33 256.128 42.714 257.94L41.694 258.204C41.394 256.812 40.374 255.852 38.802 255.852C36.762 255.852 35.514 257.484 35.514 259.5C35.514 261.528 36.738 263.16 38.802 263.16C40.446 263.16 41.55 262.152 41.79 260.772L42.822 261.024C42.39 262.896 40.926 264.108 38.802 264.108C36.21 264.108 34.458 262.128 34.458 259.5ZM46.747 264.096C44.899 264.096 43.723 262.8 43.723 261.012C43.723 259.272 44.971 258 46.687 258C48.343 258 49.519 259.14 49.519 260.784C49.519 260.928 49.495 261.108 49.483 261.264H44.707C44.815 262.512 45.595 263.256 46.747 263.256C47.731 263.256 48.307 262.788 48.547 262.032L49.459 262.2C49.171 263.364 48.139 264.096 46.747 264.096ZM46.687 258.816C45.739 258.816 44.935 259.416 44.743 260.472H48.511C48.439 259.488 47.683 258.816 46.687 258.816ZM51.0348 264V258.096H54.9588V258.912H51.9708V264H51.0348ZM58.7593 258C60.5233 258 61.8073 259.284 61.8073 261.036C61.8073 262.812 60.5233 264.096 58.7593 264.096C56.9953 264.096 55.7113 262.812 55.7113 261.036C55.7113 259.284 56.9953 258 58.7593 258ZM58.7593 258.864C57.5473 258.864 56.6953 259.752 56.6953 261.036C56.6953 262.332 57.5473 263.232 58.7593 263.232C59.9713 263.232 60.8233 262.332 60.8233 261.036C60.8233 259.752 59.9713 258.864 58.7593 258.864ZM62.4283 265.86V263.184H62.9803C63.4003 262.776 63.5923 262.152 63.6763 260.136L63.7483 258.096H67.9603V263.184H68.7643V265.86H67.8523V264H63.3283V265.86H62.4283ZM64.5883 260.1C64.5283 261.66 64.3483 262.62 63.9643 263.184H67.0243V258.912H64.6363L64.5883 260.1ZM70.0426 264V258.096H70.9786V260.472H74.0866V258.096H75.0346V264H74.0866V261.3H70.9786V264H70.0426ZM76.6915 259.908C76.6915 258.852 77.4355 258.096 78.5395 258.096H81.4075V264H80.4835V261.684H79.1635L77.4355 264H76.3795L78.1555 261.624C77.3035 261.48 76.6915 260.856 76.6915 259.908ZM78.7915 260.892H80.4835V258.876H78.8035C78.1195 258.876 77.6755 259.2 77.6755 259.884C77.6755 260.568 78.1075 260.892 78.7915 260.892Z" fill="black"/>
<path d="M40.783 283.635V285H34.452V283.83L36.857 281.412C38.482 279.813 39.054 279.033 39.054 278.084C39.054 277.109 38.417 276.446 37.416 276.446C36.571 276.446 35.726 276.953 35.57 278.136L34.166 277.863C34.478 276.056 35.856 275.133 37.481 275.133C39.301 275.133 40.523 276.303 40.523 278.045C40.523 279.371 39.756 280.32 38.001 282.075L36.467 283.635H40.783ZM48.6312 285.117C46.4732 285.117 45.0562 283.245 45.0562 280.099C45.0562 276.979 46.4732 275.133 48.6312 275.133C50.7892 275.133 52.2062 276.979 52.2062 280.099C52.2062 283.245 50.7892 285.117 48.6312 285.117ZM48.6312 276.446C47.1882 276.446 46.5122 277.902 46.5122 280.099C46.5122 282.335 47.1882 283.804 48.6312 283.804C50.0612 283.804 50.7372 282.335 50.7372 280.099C50.7372 277.902 50.0482 276.446 48.6312 276.446ZM57.8959 285V282.79H53.3459V281.555L57.5059 275.25H59.3129V281.49H60.6649V282.79H59.3129V285H57.8959ZM54.8669 281.49H57.8959V276.914L54.8669 281.49ZM65.4144 285.117C63.2564 285.117 61.8394 283.245 61.8394 280.099C61.8394 276.979 63.2564 275.133 65.4144 275.133C67.5724 275.133 68.9894 276.979 68.9894 280.099C68.9894 283.245 67.5724 285.117 65.4144 285.117ZM65.4144 276.446C63.9714 276.446 63.2954 277.902 63.2954 280.099C63.2954 282.335 63.9714 283.804 65.4144 283.804C66.8444 283.804 67.5204 282.335 67.5204 280.099C67.5204 277.902 66.8314 276.446 65.4144 276.446ZM74.5065 285V283.713H73.0635V282.452H74.5065V281.269H73.0635V279.956H74.5065V275.25H78.1985C80.1615 275.25 81.4615 276.511 81.4615 278.253C81.4615 279.969 80.1615 281.269 78.1985 281.269H75.9625V282.452H78.7055V283.713H75.9625V285H74.5065ZM78.1985 276.563H75.9625V279.956H78.1985C79.3165 279.956 80.0055 279.267 80.0055 278.253C80.0055 277.226 79.3165 276.563 78.1985 276.563Z" fill="black"/>
<rect x="28" y="298" width="75.25" height="6" rx="3" fill="#428BF9"/>
<path d="M121.384 263.052V264H115.66V263.16L118.372 260.352C119.428 259.284 120.076 258.516 120.076 257.532C120.076 256.512 119.356 255.84 118.324 255.84C117.424 255.84 116.572 256.332 116.392 257.556L115.408 257.352C115.696 255.72 116.932 254.904 118.372 254.904C119.968 254.904 121.108 255.924 121.108 257.508C121.108 258.756 120.364 259.608 119.176 260.832L117.04 263.052H121.384ZM126.512 264V261.828H122.132V260.952L126.2 255H127.52V260.904H128.756V261.828H127.52V264H126.512ZM123.2 260.904H126.512V256.104L123.2 260.904ZM131.807 265.86V263.184H132.359C132.779 262.776 132.971 262.152 133.055 260.136L133.127 258.096H137.339V263.184H138.143V265.86H137.231V264H132.707V265.86H131.807ZM133.967 260.1C133.907 261.66 133.727 262.62 133.343 263.184H136.403V258.912H134.015L133.967 260.1ZM141.978 264.096C140.13 264.096 138.954 262.8 138.954 261.012C138.954 259.272 140.201 258 141.918 258C143.574 258 144.75 259.14 144.75 260.784C144.75 260.928 144.726 261.108 144.714 261.264H139.938C140.046 262.512 140.826 263.256 141.978 263.256C142.962 263.256 143.538 262.788 143.778 262.032L144.69 262.2C144.402 263.364 143.37 264.096 141.978 264.096ZM141.918 258.816C140.97 258.816 140.166 259.416 139.974 260.472H143.742C143.67 259.488 142.914 258.816 141.918 258.816ZM146.265 258.096H147.201V260.448H148.077L150.093 258.096H151.209L148.821 260.868L151.413 264H150.261L148.029 261.36H147.201V264H146.265V258.096Z" fill="black" fill-opacity="0.4"/>
<path d="M122.033 283.635V285H115.702V283.83L118.107 281.412C119.732 279.813 120.304 279.033 120.304 278.084C120.304 277.109 119.667 276.446 118.666 276.446C117.821 276.446 116.976 276.953 116.82 278.136L115.416 277.863C115.728 276.056 117.106 275.133 118.731 275.133C120.551 275.133 121.773 276.303 121.773 278.045C121.773 279.371 121.006 280.32 119.251 282.075L117.717 283.635H122.033ZM129.881 285.117C127.723 285.117 126.306 283.245 126.306 280.099C126.306 276.979 127.723 275.133 129.881 275.133C132.039 275.133 133.456 276.979 133.456 280.099C133.456 283.245 132.039 285.117 129.881 285.117ZM129.881 276.446C128.438 276.446 127.762 277.902 127.762 280.099C127.762 282.335 128.438 283.804 129.881 283.804C131.311 283.804 131.987 282.335 131.987 280.099C131.987 277.902 131.298 276.446 129.881 276.446ZM139.146 285V282.79H134.596V281.555L138.756 275.25H140.563V281.49H141.915V282.79H140.563V285H139.146ZM136.117 281.49H139.146V276.914L136.117 281.49ZM146.664 285.117C144.506 285.117 143.089 283.245 143.089 280.099C143.089 276.979 144.506 275.133 146.664 275.133C148.822 275.133 150.239 276.979 150.239 280.099C150.239 283.245 148.822 285.117 146.664 285.117ZM146.664 276.446C145.221 276.446 144.545 277.902 144.545 280.099C144.545 282.335 145.221 283.804 146.664 283.804C148.094 283.804 148.77 282.335 148.77 280.099C148.77 277.902 148.081 276.446 146.664 276.446ZM155.757 285V283.713H154.314V282.452H155.757V281.269H154.314V279.956H155.757V275.25H159.449C161.412 275.25 162.712 276.511 162.712 278.253C162.712 279.969 161.412 281.269 159.449 281.269H157.213V282.452H159.956V283.713H157.213V285H155.757ZM159.449 276.563H157.213V279.956H159.449C160.567 279.956 161.256 279.267 161.256 278.253C161.256 277.226 160.567 276.563 159.449 276.563Z" fill="black" fill-opacity="0.4"/>
<rect x="109.25" y="298" width="75.25" height="6" rx="3" fill="black" fill-opacity="0.08"/>
<path d="M197.15 264L201.17 255.924H196.55V255H202.286V255.828L198.23 264H197.15ZM205.91 259.908C205.91 258.852 206.654 258.096 207.758 258.096H210.626V264H209.702V261.684H208.382L206.654 264H205.598L207.374 261.624C206.522 261.48 205.91 260.856 205.91 259.908ZM208.01 260.892H209.702V258.876H208.022C207.338 258.876 206.894 259.2 206.894 259.884C206.894 260.568 207.326 260.892 208.01 260.892ZM212.597 264V258.096H213.533V260.472H216.641V258.096H217.589V264H216.641V261.3H213.533V264H212.597ZM219.558 264V258.096H222.222C223.278 258.096 223.986 258.66 223.986 259.608C223.986 260.232 223.662 260.688 223.122 260.904C223.83 261.084 224.25 261.588 224.25 262.344C224.25 263.412 223.374 264 222.342 264H219.558ZM222.09 258.876H220.482V260.58H222.15C222.738 260.58 223.062 260.268 223.062 259.716C223.062 259.152 222.726 258.876 222.09 258.876ZM222.126 263.208C222.882 263.208 223.278 262.884 223.278 262.272C223.278 261.672 222.906 261.348 222.21 261.348H220.482V263.208H222.126Z" fill="black" fill-opacity="0.4"/>
<path d="M203.283 283.635V285H196.952V283.83L199.357 281.412C200.982 279.813 201.554 279.033 201.554 278.084C201.554 277.109 200.917 276.446 199.916 276.446C199.071 276.446 198.226 276.953 198.07 278.136L196.666 277.863C196.978 276.056 198.356 275.133 199.981 275.133C201.801 275.133 203.023 276.303 203.023 278.045C203.023 279.371 202.256 280.32 200.501 282.075L198.967 283.635H203.283ZM211.131 285.117C208.973 285.117 207.556 283.245 207.556 280.099C207.556 276.979 208.973 275.133 211.131 275.133C213.289 275.133 214.706 276.979 214.706 280.099C214.706 283.245 213.289 285.117 211.131 285.117ZM211.131 276.446C209.688 276.446 209.012 277.902 209.012 280.099C209.012 282.335 209.688 283.804 211.131 283.804C212.561 283.804 213.237 282.335 213.237 280.099C213.237 277.902 212.548 276.446 211.131 276.446ZM220.396 285V282.79H215.846V281.555L220.006 275.25H221.813V281.49H223.165V282.79H221.813V285H220.396ZM217.367 281.49H220.396V276.914L217.367 281.49ZM227.914 285.117C225.756 285.117 224.339 283.245 224.339 280.099C224.339 276.979 225.756 275.133 227.914 275.133C230.072 275.133 231.489 276.979 231.489 280.099C231.489 283.245 230.072 285.117 227.914 285.117ZM227.914 276.446C226.471 276.446 225.795 277.902 225.795 280.099C225.795 282.335 226.471 283.804 227.914 283.804C229.344 283.804 230.02 282.335 230.02 280.099C230.02 277.902 229.331 276.446 227.914 276.446ZM237.007 285V283.713H235.564V282.452H237.007V281.269H235.564V279.956H237.007V275.25H240.699C242.662 275.25 243.962 276.511 243.962 278.253C243.962 279.969 242.662 281.269 240.699 281.269H238.463V282.452H241.206V283.713H238.463V285H237.007ZM240.699 276.563H238.463V279.956H240.699C241.817 279.956 242.506 279.267 242.506 278.253C242.506 277.226 241.817 276.563 240.699 276.563Z" fill="black" fill-opacity="0.4"/>
<rect x="190.5" y="298" width="75.25" height="6" rx="3" fill="black" fill-opacity="0.08"/>
<path d="M283.884 263.052V264H278.16V263.16L280.872 260.352C281.928 259.284 282.576 258.516 282.576 257.532C282.576 256.512 281.856 255.84 280.824 255.84C279.924 255.84 279.072 256.332 278.892 257.556L277.908 257.352C278.196 255.72 279.432 254.904 280.872 254.904C282.468 254.904 283.608 255.924 283.608 257.508C283.608 258.756 282.864 259.608 281.676 260.832L279.54 263.052H283.884ZM286.396 264V257.004H284.764V256.416C285.796 256.356 286.492 255.864 286.66 255H287.392V264H286.396ZM292.094 259.908C292.094 258.852 292.838 258.096 293.942 258.096H296.81V264H295.886V261.684H294.566L292.838 264H291.782L293.558 261.624C292.706 261.48 292.094 260.856 292.094 259.908ZM294.194 260.892H295.886V258.876H294.206C293.522 258.876 293.078 259.2 293.078 259.884C293.078 260.568 293.51 260.892 294.194 260.892ZM298.781 264V258.096H299.717V260.472H302.825V258.096H303.773V264H302.825V261.3H299.717V264H298.781ZM305.742 264V258.096H308.406C309.462 258.096 310.17 258.66 310.17 259.608C310.17 260.232 309.846 260.688 309.306 260.904C310.014 261.084 310.434 261.588 310.434 262.344C310.434 263.412 309.558 264 308.526 264H305.742ZM308.274 258.876H306.666V260.58H308.334C308.922 260.58 309.246 260.268 309.246 259.716C309.246 259.152 308.91 258.876 308.274 258.876ZM308.31 263.208C309.066 263.208 309.462 262.884 309.462 262.272C309.462 261.672 309.09 261.348 308.394 261.348H306.666V263.208H308.31Z" fill="black" fill-opacity="0.4"/>
<path d="M284.533 283.635V285H278.202V283.83L280.607 281.412C282.232 279.813 282.804 279.033 282.804 278.084C282.804 277.109 282.167 276.446 281.166 276.446C280.321 276.446 279.476 276.953 279.32 278.136L277.916 277.863C278.228 276.056 279.606 275.133 281.231 275.133C283.051 275.133 284.273 276.303 284.273 278.045C284.273 279.371 283.506 280.32 281.751 282.075L280.217 283.635H284.533ZM292.381 285.117C290.223 285.117 288.806 283.245 288.806 280.099C288.806 276.979 290.223 275.133 292.381 275.133C294.539 275.133 295.956 276.979 295.956 280.099C295.956 283.245 294.539 285.117 292.381 285.117ZM292.381 276.446C290.938 276.446 290.262 277.902 290.262 280.099C290.262 282.335 290.938 283.804 292.381 283.804C293.811 283.804 294.487 282.335 294.487 280.099C294.487 277.902 293.798 276.446 292.381 276.446ZM301.646 285V282.79H297.096V281.555L301.256 275.25H303.063V281.49H304.415V282.79H303.063V285H301.646ZM298.617 281.49H301.646V276.914L298.617 281.49ZM309.164 285.117C307.006 285.117 305.589 283.245 305.589 280.099C305.589 276.979 307.006 275.133 309.164 275.133C311.322 275.133 312.739 276.979 312.739 280.099C312.739 283.245 311.322 285.117 309.164 285.117ZM309.164 276.446C307.721 276.446 307.045 277.902 307.045 280.099C307.045 282.335 307.721 283.804 309.164 283.804C310.594 283.804 311.27 282.335 311.27 280.099C311.27 277.902 310.581 276.446 309.164 276.446ZM318.257 285V283.713H316.814V282.452H318.257V281.269H316.814V279.956H318.257V275.25H321.949C323.912 275.25 325.212 276.511 325.212 278.253C325.212 279.969 323.912 281.269 321.949 281.269H319.713V282.452H322.456V283.713H319.713V285H318.257ZM321.949 276.563H319.713V279.956H321.949C323.067 279.956 323.756 279.267 323.756 278.253C323.756 277.226 323.067 276.563 321.949 276.563Z" fill="black" fill-opacity="0.4"/>
<rect x="271.75" y="298" width="75.25" height="6" rx="3" fill="black" fill-opacity="0.08"/>
<path d="M52.368 324V315H59.472V324H58.452V315.936H53.388V324H52.368ZM61.816 318.096H62.716L62.74 319.116C63.232 318.42 63.988 318 64.9 318C66.532 318 67.768 319.284 67.768 321.036C67.768 322.812 66.532 324.096 64.9 324.096C64 324.096 63.244 323.688 62.752 323.004V326.64H61.816V318.096ZM64.768 318.864C63.58 318.864 62.752 319.752 62.752 321.036C62.752 322.332 63.58 323.232 64.768 323.232C65.944 323.232 66.784 322.332 66.784 321.036C66.784 319.752 65.944 318.864 64.768 318.864ZM69.2692 324V318.096H70.1692V322.62L73.3132 318.096H74.2132V324H73.3132V319.476L70.1692 324H69.2692ZM76.1832 324V318.096H77.1552L79.2552 320.856L81.3672 318.096H82.3392V324H81.4392V319.344L79.3392 322.092H79.1232L77.0832 319.392V324H76.1832ZM86.8603 324.096C85.0123 324.096 83.8363 322.8 83.8363 321.012C83.8363 319.272 85.0843 318 86.8003 318C88.4563 318 89.6323 319.14 89.6323 320.784C89.6323 320.928 89.6083 321.108 89.5963 321.264H84.8203C84.9283 322.512 85.7083 323.256 86.8603 323.256C87.8443 323.256 88.4203 322.788 88.6603 322.032L89.5723 322.2C89.2843 323.364 88.2523 324.096 86.8603 324.096ZM86.8003 318.816C85.8523 318.816 85.0483 319.416 84.8563 320.472H88.6243C88.5523 319.488 87.7963 318.816 86.8003 318.816ZM91.1481 318.096H92.0481L92.0721 319.116C92.5641 318.42 93.3201 318 94.2321 318C95.8641 318 97.1001 319.284 97.1001 321.036C97.1001 322.812 95.8641 324.096 94.2321 324.096C93.3321 324.096 92.5761 323.688 92.0841 323.004V326.64H91.1481V318.096ZM94.1001 318.864C92.9121 318.864 92.0841 319.752 92.0841 321.036C92.0841 322.332 92.9121 323.232 94.1001 323.232C95.2761 323.232 96.1161 322.332 96.1161 321.036C96.1161 319.752 95.2761 318.864 94.1001 318.864ZM98.6012 324V318.096H99.5372V320.472H102.645V318.096H103.593V324H102.645V321.3H99.5372V324H98.6012ZM105.562 324V318.096H106.498V320.076H108.046C109.294 320.076 110.122 320.856 110.122 322.044C110.122 323.22 109.294 324 108.046 324H105.562ZM110.866 324V318.096H111.802V324H110.866ZM107.878 320.904H106.498V323.184H107.878C108.706 323.184 109.138 322.776 109.138 322.044C109.138 321.3 108.706 320.904 107.878 320.904ZM116.285 316.356C116.837 316.356 117.233 316.068 117.245 315.456H118.073C118.073 316.476 117.341 317.1 116.285 317.1C115.229 317.1 114.509 316.476 114.497 315.456H115.337C115.337 316.068 115.745 316.356 116.285 316.356ZM113.765 324V318.096H114.665V322.62L117.809 318.096H118.709V324H117.809V319.476L114.665 324H113.765ZM123.316 324V318.096H127.24V318.912H124.252V324H123.316ZM128.461 318.096H129.361L129.385 319.116C129.877 318.42 130.633 318 131.545 318C133.177 318 134.413 319.284 134.413 321.036C134.413 322.812 133.177 324.096 131.545 324.096C130.645 324.096 129.889 323.688 129.397 323.004V326.64H128.461V318.096ZM131.413 318.864C130.225 318.864 129.397 319.752 129.397 321.036C129.397 322.332 130.225 323.232 131.413 323.232C132.589 323.232 133.429 322.332 133.429 321.036C133.429 319.752 132.589 318.864 131.413 318.864ZM139.574 324L139.55 322.824C139.082 323.628 138.278 324.096 137.318 324.096C136.202 324.096 135.458 323.472 135.458 322.464C135.458 321.324 136.406 320.856 137.822 320.496L139.526 320.088C139.43 319.224 138.854 318.804 138.002 318.804C137.138 318.804 136.55 319.188 136.334 319.992L135.446 319.824C135.722 318.684 136.682 318 138.014 318C139.502 318 140.438 318.84 140.438 320.304V324H139.574ZM136.442 322.38C136.442 322.92 136.814 323.292 137.462 323.292C138.518 323.292 139.538 322.476 139.538 320.988V320.856L137.834 321.276C136.934 321.504 136.442 321.792 136.442 322.38ZM144.965 326.64V324C143.081 323.964 141.821 322.788 141.821 321.036C141.821 319.308 143.081 318.132 144.965 318.096V315H145.877V318.096C147.761 318.144 148.997 319.32 148.997 321.036C148.997 322.776 147.761 323.952 145.877 324V326.64H144.965ZM142.781 321.036C142.781 322.32 143.585 323.148 144.965 323.184V318.912C143.585 318.948 142.781 319.764 142.781 321.036ZM148.037 321.036C148.037 319.764 147.245 318.948 145.877 318.912V323.184C147.245 323.148 148.037 322.32 148.037 321.036ZM150.504 324V318.096H151.404V322.62L154.548 318.096H155.448V324H154.548V319.476L151.404 324H150.504ZM157.418 318.096H158.354V320.448H159.23L161.246 318.096H162.362L159.974 320.868L162.566 324H161.414L159.182 321.36H158.354V324H157.418V318.096ZM163.749 325.8H162.981L163.545 322.8H164.685L163.749 325.8ZM168.855 324V318.096H169.827L171.927 320.856L174.039 318.096H175.011V324H174.111V319.344L172.011 322.092H171.795L169.755 319.392V324H168.855ZM179.556 318C181.32 318 182.604 319.284 182.604 321.036C182.604 322.812 181.32 324.096 179.556 324.096C177.792 324.096 176.508 322.812 176.508 321.036C176.508 319.284 177.792 318 179.556 318ZM179.556 318.864C178.344 318.864 177.492 319.752 177.492 321.036C177.492 322.332 178.344 323.232 179.556 323.232C180.768 323.232 181.62 322.332 181.62 321.036C181.62 319.752 180.768 318.864 179.556 318.864ZM184.261 318.096L185.929 320.484H186.709V318.096H187.609V320.484H188.377L190.069 318.096H191.125L189.097 320.856L191.281 324H190.201L188.341 321.324H187.609V324H186.709V321.324H185.965L184.093 324H183.049L185.209 320.916L183.193 318.096H184.261ZM194.626 324.096C192.778 324.096 191.602 322.8 191.602 321.012C191.602 319.272 192.85 318 194.566 318C196.222 318 197.398 319.14 197.398 320.784C197.398 320.928 197.374 321.108 197.362 321.264H192.586C192.694 322.512 193.474 323.256 194.626 323.256C195.61 323.256 196.186 322.788 196.426 322.032L197.338 322.2C197.05 323.364 196.018 324.096 194.626 324.096ZM194.566 318.816C193.618 318.816 192.814 319.416 192.622 320.472H196.39C196.318 319.488 195.562 318.816 194.566 318.816ZM200.222 324V318.912H198.17V318.096H203.222V318.912H201.17V324H200.222ZM209.818 324.096C207.898 324.096 206.71 322.74 206.71 320.076C206.71 317.1 207.73 315.444 210.322 315.18L211.27 315.072C211.714 315.036 211.954 314.988 212.29 314.904L212.398 315.72C212.062 315.828 211.654 315.876 211.27 315.924L210.286 316.032C208.702 316.212 207.766 317.04 207.634 319.296C208.246 318.3 209.266 318.012 210.082 318.012C211.678 318.012 212.866 319.248 212.866 321.036C212.866 322.824 211.654 324.096 209.818 324.096ZM209.854 318.84C208.618 318.84 207.754 319.752 207.754 321.036C207.754 322.332 208.606 323.232 209.818 323.232C211.03 323.232 211.882 322.332 211.882 321.036C211.882 319.752 211.09 318.84 209.854 318.84ZM214.371 324V318.096H215.307V320.076H216.855C218.103 320.076 218.931 320.856 218.931 322.044C218.931 323.22 218.103 324 216.855 324H214.371ZM219.675 324V318.096H220.611V324H219.675ZM216.687 320.904H215.307V323.184H216.687C217.515 323.184 217.947 322.776 217.947 322.044C217.947 321.3 217.515 320.904 216.687 320.904ZM223.882 324V318.912H221.83V318.096H226.882V318.912H224.83V324H223.882ZM228.105 324V318.096H229.041V320.076H230.625C231.873 320.076 232.701 320.856 232.701 322.044C232.701 323.22 231.873 324 230.625 324H228.105ZM230.457 320.904H229.041V323.184H230.457C231.285 323.184 231.717 322.776 231.717 322.044C231.717 321.3 231.285 320.904 230.457 320.904ZM236.121 321.012C236.121 319.272 237.393 318 239.097 318C240.537 318 241.545 318.828 241.821 320.076L240.861 320.244C240.657 319.404 240.021 318.864 239.097 318.864C237.945 318.864 237.105 319.728 237.105 321.012C237.105 322.332 237.933 323.232 239.097 323.232C240.093 323.232 240.729 322.644 240.909 321.78L241.857 321.936C241.641 323.172 240.561 324.096 239.097 324.096C237.381 324.096 236.121 322.788 236.121 321.012ZM245.755 324.096C243.907 324.096 242.731 322.8 242.731 321.012C242.731 319.272 243.979 318 245.695 318C247.351 318 248.527 319.14 248.527 320.784C248.527 320.928 248.503 321.108 248.491 321.264H243.715C243.823 322.512 244.603 323.256 245.755 323.256C246.739 323.256 247.315 322.788 247.555 322.032L248.467 322.2C248.179 323.364 247.147 324.096 245.755 324.096ZM245.695 318.816C244.747 318.816 243.943 319.416 243.751 320.472H247.519C247.447 319.488 246.691 318.816 245.695 318.816ZM250.043 318.096H250.943L250.967 319.116C251.459 318.42 252.215 318 253.127 318C254.759 318 255.995 319.284 255.995 321.036C255.995 322.812 254.759 324.096 253.127 324.096C252.227 324.096 251.471 323.688 250.979 323.004V326.64H250.043V318.096ZM252.995 318.864C251.807 318.864 250.979 319.752 250.979 321.036C250.979 322.332 251.807 323.232 252.995 323.232C254.171 323.232 255.011 322.332 255.011 321.036C255.011 319.752 254.171 318.864 252.995 318.864ZM257.496 324V318.096H260.16C261.216 318.096 261.924 318.66 261.924 319.608C261.924 320.232 261.6 320.688 261.06 320.904C261.768 321.084 262.188 321.588 262.188 322.344C262.188 323.412 261.312 324 260.28 324H257.496ZM260.028 318.876H258.42V320.58H260.088C260.676 320.58 261 320.268 261 319.716C261 319.152 260.664 318.876 260.028 318.876ZM260.064 323.208C260.82 323.208 261.216 322.884 261.216 322.272C261.216 321.672 260.844 321.348 260.148 321.348H258.42V323.208H260.064ZM263.707 324V318.096H264.607V322.62L267.751 318.096H268.651V324H267.751V319.476L264.607 324H263.707ZM270.153 321.012C270.153 319.272 271.425 318 273.129 318C274.569 318 275.577 318.828 275.853 320.076L274.893 320.244C274.689 319.404 274.053 318.864 273.129 318.864C271.977 318.864 271.137 319.728 271.137 321.012C271.137 322.332 271.965 323.232 273.129 323.232C274.125 323.232 274.761 322.644 274.941 321.78L275.889 321.936C275.673 323.172 274.593 324.096 273.129 324.096C271.413 324.096 270.153 322.788 270.153 321.012ZM277.23 324V318.096H278.166V320.472H281.274V318.096H282.222V324H281.274V321.3H278.166V324H277.23ZM284.191 324V318.096H285.127V320.076H286.675C287.923 320.076 288.751 320.856 288.751 322.044C288.751 323.22 287.923 324 286.675 324H284.191ZM289.495 324V318.096H290.431V324H289.495ZM286.507 320.904H285.127V323.184H286.507C287.335 323.184 287.767 322.776 287.767 322.044C287.767 321.3 287.335 320.904 286.507 320.904ZM294.914 316.356C295.466 316.356 295.862 316.068 295.874 315.456H296.702C296.702 316.476 295.97 317.1 294.914 317.1C293.858 317.1 293.138 316.476 293.126 315.456H293.966C293.966 316.068 294.374 316.356 294.914 316.356ZM292.394 324V318.096H293.294V322.62L296.438 318.096H297.338V324H296.438V319.476L293.294 324H292.394ZM301.477 321.012C301.477 319.272 302.749 318 304.453 318C305.893 318 306.901 318.828 307.177 320.076L306.217 320.244C306.013 319.404 305.377 318.864 304.453 318.864C303.301 318.864 302.461 319.728 302.461 321.012C302.461 322.332 303.289 323.232 304.453 323.232C305.449 323.232 306.085 322.644 306.265 321.78L307.213 321.936C306.997 323.172 305.917 324.096 304.453 324.096C302.737 324.096 301.477 322.788 301.477 321.012ZM311.29 324.096C309.37 324.096 308.182 322.74 308.182 320.076C308.182 317.1 309.202 315.444 311.794 315.18L312.742 315.072C313.186 315.036 313.426 314.988 313.762 314.904L313.87 315.72C313.534 315.828 313.126 315.876 312.742 315.924L311.758 316.032C310.174 316.212 309.238 317.04 309.106 319.296C309.718 318.3 310.738 318.012 311.554 318.012C313.15 318.012 314.338 319.248 314.338 321.036C314.338 322.824 313.126 324.096 311.29 324.096ZM311.326 318.84C310.09 318.84 309.226 319.752 309.226 321.036C309.226 322.332 310.078 323.232 311.29 323.232C312.502 323.232 313.354 322.332 313.354 321.036C313.354 319.752 312.562 318.84 311.326 318.84ZM318.423 318C320.187 318 321.471 319.284 321.471 321.036C321.471 322.812 320.187 324.096 318.423 324.096C316.659 324.096 315.375 322.812 315.375 321.036C315.375 319.284 316.659 318 318.423 318ZM318.423 318.864C317.211 318.864 316.359 319.752 316.359 321.036C316.359 322.332 317.211 323.232 318.423 323.232C319.635 323.232 320.487 322.332 320.487 321.036C320.487 319.752 319.635 318.864 318.423 318.864ZM322.968 318.096H323.868L323.892 319.116C324.384 318.42 325.14 318 326.052 318C327.684 318 328.92 319.284 328.92 321.036C328.92 322.812 327.684 324.096 326.052 324.096C325.152 324.096 324.396 323.688 323.904 323.004V326.64H322.968V318.096ZM325.92 318.864C324.732 318.864 323.904 319.752 323.904 321.036C323.904 322.332 324.732 323.232 325.92 323.232C327.096 323.232 327.936 322.332 327.936 321.036C327.936 319.752 327.096 318.864 325.92 318.864Z" fill="black" fill-opacity="0.4"/>
<path d="M132.731 368V359H139.835V368H138.815V359.936H133.751V368H132.731ZM144.759 362C146.523 362 147.807 363.284 147.807 365.036C147.807 366.812 146.523 368.096 144.759 368.096C142.995 368.096 141.711 366.812 141.711 365.036C141.711 363.284 142.995 362 144.759 362ZM144.759 362.864C143.547 362.864 142.695 363.752 142.695 365.036C142.695 366.332 143.547 367.232 144.759 367.232C145.971 367.232 146.823 366.332 146.823 365.036C146.823 363.752 145.971 362.864 144.759 362.864ZM148.428 369.86V367.184H148.98C149.4 366.776 149.592 366.152 149.676 364.136L149.748 362.096H153.96V367.184H154.764V369.86H153.852V368H149.328V369.86H148.428ZM150.588 364.1C150.528 365.66 150.348 366.62 149.964 367.184H153.024V362.912H150.636L150.588 364.1ZM156.043 362.096H156.943L156.967 363.116C157.459 362.42 158.215 362 159.127 362C160.759 362 161.995 363.284 161.995 365.036C161.995 366.812 160.759 368.096 159.127 368.096C158.227 368.096 157.471 367.688 156.979 367.004V370.64H156.043V362.096ZM158.995 362.864C157.807 362.864 156.979 363.752 156.979 365.036C156.979 366.332 157.807 367.232 158.995 367.232C160.171 367.232 161.011 366.332 161.011 365.036C161.011 363.752 160.171 362.864 158.995 362.864ZM166.076 362C167.84 362 169.124 363.284 169.124 365.036C169.124 366.812 167.84 368.096 166.076 368.096C164.312 368.096 163.028 366.812 163.028 365.036C163.028 363.284 164.312 362 166.076 362ZM166.076 362.864C164.864 362.864 164.012 363.752 164.012 365.036C164.012 366.332 164.864 367.232 166.076 367.232C167.288 367.232 168.14 366.332 168.14 365.036C168.14 363.752 167.288 362.864 166.076 362.864ZM173.357 368.096C171.437 368.096 170.249 366.74 170.249 364.076C170.249 361.1 171.269 359.444 173.861 359.18L174.809 359.072C175.253 359.036 175.493 358.988 175.829 358.904L175.937 359.72C175.601 359.828 175.193 359.876 174.809 359.924L173.825 360.032C172.241 360.212 171.305 361.04 171.173 363.296C171.785 362.3 172.805 362.012 173.621 362.012C175.217 362.012 176.405 363.248 176.405 365.036C176.405 366.824 175.193 368.096 173.357 368.096ZM173.393 362.84C172.157 362.84 171.293 363.752 171.293 365.036C171.293 366.332 172.145 367.232 173.357 367.232C174.569 367.232 175.421 366.332 175.421 365.036C175.421 363.752 174.629 362.84 173.393 362.84ZM177.91 368V362.096H178.846V364.472H181.954V362.096H182.902V368H181.954V365.3H178.846V368H177.91ZM187.451 362C189.215 362 190.499 363.284 190.499 365.036C190.499 366.812 189.215 368.096 187.451 368.096C185.687 368.096 184.403 366.812 184.403 365.036C184.403 363.284 185.687 362 187.451 362ZM187.451 362.864C186.239 362.864 185.387 363.752 185.387 365.036C185.387 366.332 186.239 367.232 187.451 367.232C188.663 367.232 189.515 366.332 189.515 365.036C189.515 363.752 188.663 362.864 187.451 362.864ZM191.528 365.012C191.528 363.272 192.8 362 194.504 362C195.944 362 196.952 362.828 197.228 364.076L196.268 364.244C196.064 363.404 195.428 362.864 194.504 362.864C193.352 362.864 192.512 363.728 192.512 365.012C192.512 366.332 193.34 367.232 194.504 367.232C195.5 367.232 196.136 366.644 196.316 365.78L197.264 365.936C197.048 367.172 195.968 368.096 194.504 368.096C192.788 368.096 191.528 366.788 191.528 365.012ZM199.913 368V362.912H197.861V362.096H202.913V362.912H200.861V368H199.913ZM204.136 368V362.096H205.036V366.62L208.18 362.096H209.08V368H208.18V363.476L205.036 368H204.136ZM213.687 368V362.096H214.623V364.472H217.731V362.096H218.679V368H217.731V365.3H214.623V368H213.687ZM224.308 368L224.284 366.824C223.816 367.628 223.012 368.096 222.052 368.096C220.936 368.096 220.192 367.472 220.192 366.464C220.192 365.324 221.14 364.856 222.556 364.496L224.26 364.088C224.164 363.224 223.588 362.804 222.736 362.804C221.872 362.804 221.284 363.188 221.068 363.992L220.18 363.824C220.456 362.684 221.416 362 222.748 362C224.236 362 225.172 362.84 225.172 364.304V368H224.308ZM221.176 366.38C221.176 366.92 221.548 367.292 222.196 367.292C223.252 367.292 224.272 366.476 224.272 364.988V364.856L222.568 365.276C221.668 365.504 221.176 365.792 221.176 366.38Z" fill="black" fill-opacity="0.4"/>
<path d="M235.144 368H234.244L234.22 367.04C233.728 367.7 232.984 368.096 232.096 368.096C230.428 368.096 229.192 366.812 229.192 365.036C229.192 363.284 230.428 362 232.096 362C232.972 362 233.716 362.396 234.208 363.032V359H235.144V368ZM232.192 362.864C231.016 362.864 230.176 363.752 230.176 365.036C230.176 366.332 231.016 367.232 232.192 367.232C233.392 367.232 234.208 366.332 234.208 365.036C234.208 363.752 233.392 362.864 232.192 362.864ZM239.693 362C241.457 362 242.741 363.284 242.741 365.036C242.741 366.812 241.457 368.096 239.693 368.096C237.929 368.096 236.645 366.812 236.645 365.036C236.645 363.284 237.929 362 239.693 362ZM239.693 362.864C238.481 362.864 237.629 363.752 237.629 365.036C237.629 366.332 238.481 367.232 239.693 367.232C240.905 367.232 241.757 366.332 241.757 365.036C241.757 363.752 240.905 362.864 239.693 362.864ZM244.238 368V359H245.174V368H244.238ZM246.256 362.096H247.312L249.352 366.752L251.176 362.096H252.172L248.728 370.64H247.744L248.824 367.952L246.256 362.096ZM256.886 368L256.862 366.824C256.394 367.628 255.59 368.096 254.63 368.096C253.514 368.096 252.77 367.472 252.77 366.464C252.77 365.324 253.718 364.856 255.134 364.496L256.838 364.088C256.742 363.224 256.166 362.804 255.314 362.804C254.45 362.804 253.862 363.188 253.646 363.992L252.758 363.824C253.034 362.684 253.994 362 255.326 362C256.814 362 257.75 362.84 257.75 364.304V368H256.886ZM253.754 366.38C253.754 366.92 254.126 367.292 254.774 367.292C255.83 367.292 256.85 366.476 256.85 364.988V364.856L255.146 365.276C254.246 365.504 253.754 365.792 253.754 366.38ZM259.601 368V362.096H260.501L260.525 362.864C260.885 362.348 261.449 362 262.193 362C262.973 362 263.645 362.348 263.993 363.044C264.365 362.432 265.001 362 265.877 362C267.053 362 267.965 362.756 267.965 364.256V368H267.017V364.304C267.017 363.344 266.489 362.876 265.709 362.876C264.905 362.876 264.245 363.356 264.245 364.34V368H263.309V364.304C263.309 363.344 262.769 362.876 262.001 362.876C261.197 362.876 260.537 363.392 260.537 364.424V368H259.601ZM272.364 368.096C270.516 368.096 269.34 366.8 269.34 365.012C269.34 363.272 270.588 362 272.304 362C273.96 362 275.136 363.14 275.136 364.784C275.136 364.928 275.112 365.108 275.1 365.264H270.324C270.432 366.512 271.212 367.256 272.364 367.256C273.348 367.256 273.924 366.788 274.164 366.032L275.076 366.2C274.788 367.364 273.756 368.096 272.364 368.096ZM272.304 362.816C271.356 362.816 270.552 363.416 270.36 364.472H274.128C274.056 363.488 273.3 362.816 272.304 362.816ZM277.012 368.108C276.604 368.108 276.304 367.832 276.304 367.412C276.304 367.004 276.604 366.728 277.012 366.728C277.432 366.728 277.72 367.004 277.72 367.412C277.72 367.832 277.432 368.108 277.012 368.108ZM279.347 368V362.096H280.271L280.295 363.032C280.631 362.408 281.255 362 282.083 362C282.287 362 282.455 362.024 282.671 362.084L282.527 363.008C282.311 362.948 282.119 362.924 281.927 362.924C281.039 362.924 280.283 363.608 280.283 364.928V368H279.347ZM284.534 362.096V365.636C284.534 366.656 285.146 367.232 286.082 367.232C286.922 367.232 287.714 366.716 287.714 365.468V362.096H288.65V368H287.786L287.762 367.148C287.354 367.772 286.682 368.096 285.854 368.096C284.558 368.096 283.598 367.232 283.598 365.72V362.096H284.534Z" fill="#1771E6"/>
<g filter="url(#filter0_b_239_4065)">
<rect x="343" y="8" width="24" height="24" rx="12" fill="black" fill-opacity="0.04"/>
<path d="M350.001 24.0453L359.045 15.0006L359.999 15.9547L350.955 24.9994L350.001 24.0453Z" fill="black"/>
<path d="M350.954 15L360 24.0459L359.046 25L350 15.9541L350.954 15Z" fill="black"/>
</g>
<defs>
<filter id="filter0_b_239_4065" x="327" y="-8" width="56" height="56" filterUnits="userSpaceOnUse" color-interpolation-filters="sRGB">
<feFlood flood-opacity="0" result="BackgroundImageFix"/>
<feGaussianBlur in="BackgroundImageFix" stdDeviation="8"/>
<feComposite in2="SourceAlpha" operator="in" result="effect1_backgroundBlur_239_4065"/>
<feBlend mode="normal" in="SourceGraphic" in2="effect1_backgroundBlur_239_4065" result="shape"/>
</filter>
</defs>
</svg>
